<?xml version="1.0" encoding="iso-8859-1"?>
<!-- Generator: Adobe Illustrator 18.0.0, SVG Export Plug-In . SVG Version: 6.00 Build 0)  -->
<!DOCTYPE svg PUBLIC "-//W3C//DTD SVG 1.1//EN" "http://www.w3.org/Graphics/SVG/1.1/DTD/svg11.dtd">
<svg version="1.1" id="Capa_1" xmlns="http://www.w3.org/2000/svg" xmlns:xlink="http://www.w3.org/1999/xlink" x="0px" y="0px"
	 viewBox="0 0 212.59 212.59" style="enable-background:new 0 0 212.59 212.59;" xml:space="preserve">
<g>
	<g>
		<ellipse style="fill:#A4CD39;" cx="106.295" cy="177.211" rx="98.71" ry="35.379"/>
		<ellipse style="fill:#8CB131;" cx="106.295" cy="177.211" rx="82.583" ry="23.931"/>
	</g>
	<polygon style="fill:#E95122;" points="106.295,177.211 106.295,16.936 155.74,43.8 182.993,94.802 182.993,177.211 	"/>
	<rect x="106.295" y="100.902" style="fill:#CE471D;" width="53.468" height="76.309"/>
	<polygon style="fill:#E95122;" points="106.295,177.211 106.295,16.936 56.85,43.8 29.597,94.802 29.597,177.211 	"/>
	<rect x="52.827" y="100.902" style="fill:#CE471D;" width="53.468" height="76.309"/>
	<polygon style="fill:#CE471D;" points="29.597,94.802 29.597,99.474 30.765,99.474 57.823,49.64 106.295,22.387 106.295,16.936 
		56.85,43.8 	"/>
	<g>
		<rect x="61.05" y="108.04" style="fill:#B8874A;" width="90.489" height="69.171"/>
		<rect x="61.05" y="108.04" style="fill:#9A713D;" width="4.986" height="69.171"/>
		<rect x="73.265" y="108.04" style="fill:#9A713D;" width="4.986" height="69.171"/>
		<rect x="85.48" y="108.04" style="fill:#9A713D;" width="4.985" height="69.171"/>
		<rect x="97.695" y="108.04" style="fill:#9A713D;" width="4.985" height="69.171"/>
		<rect x="109.91" y="108.04" style="fill:#9A713D;" width="4.985" height="69.171"/>
		<rect x="122.124" y="108.04" style="fill:#9A713D;" width="4.986" height="69.171"/>
		<rect x="134.339" y="108.04" style="fill:#9A713D;" width="4.986" height="69.171"/>
		<rect x="146.554" y="108.04" style="fill:#9A713D;" width="4.986" height="69.171"/>
		<rect x="59.575" y="139.648" style="fill:#836132;" width="93.44" height="5.955"/>
	</g>
	<path style="fill:#503517;" d="M106.295,19.077c0-2.141,0-19.077,0-19.077L43.807,31.341L11.493,96.165h19.272l27.059-49.834
		L106.295,19.077z"/>
	<path style="fill:#472D10;" d="M30.765,96.165l27.059-49.834l48.472-27.253c0-0.903,0-4.446,0-8.234L51.028,38.562L22.314,96.165
		H30.765z"/>
	<polygon style="fill:#CE471D;" points="182.993,94.802 182.993,99.474 181.825,99.474 154.767,49.64 106.295,22.387 
		106.295,16.936 155.74,43.8 	"/>
	<path style="fill:#503517;" d="M106.295,19.077c0-2.141,0-19.077,0-19.077l62.488,31.341l32.314,64.824h-19.272l-27.059-49.834
		L106.295,19.077z"/>
	<path style="fill:#472D10;" d="M181.825,96.165l-27.059-49.834l-48.472-27.253c0-0.903,0-4.446,0-8.234l55.267,27.719
		l28.715,57.603H181.825z"/>
	<circle style="fill:#472D10;" cx="106.295" cy="68.933" r="18.106"/>
	<circle style="fill:#503517;" cx="106.295" cy="68.933" r="16.736"/>
	<circle style="fill:#472D10;" cx="106.295" cy="68.933" r="12.905"/>
	<circle style="fill:#C1E8FB;" cx="106.295" cy="68.933" r="11.868"/>
	<g>
		<path style="fill:#FFFFFF;" d="M103.404,57.461l-8.7,8.967c-0.174,0.809-0.276,1.644-0.276,2.504c0,0.122,0.033,0.236,0.036,0.357
			l11.583-12.2C105.133,57.109,104.255,57.247,103.404,57.461z"/>
		<path style="fill:#FFFFFF;" d="M111.956,58.563c-1.109-0.606-2.305-1.062-3.592-1.289l-13.68,14.1
			c0.285,1.36,0.83,2.617,1.537,3.763L111.956,58.563z"/>
	</g>
</g>
<g>
</g>
<g>
</g>
<g>
</g>
<g>
</g>
<g>
</g>
<g>
</g>
<g>
</g>
<g>
</g>
<g>
</g>
<g>
</g>
<g>
</g>
<g>
</g>
<g>
</g>
<g>
</g>
<g>
</g>
</svg>
