<?xml version="1.0" encoding="iso-8859-1"?>
<!-- Generator: Adobe Illustrator 19.0.0, SVG Export Plug-In . SVG Version: 6.00 Build 0)  -->
<svg version="1.1" id="Layer_1" xmlns="http://www.w3.org/2000/svg" xmlns:xlink="http://www.w3.org/1999/xlink" x="0px" y="0px"
	 viewBox="0 0 512 512" style="enable-background:new 0 0 512 512;" xml:space="preserve">
<path style="fill:#EA5A20;" d="M256,0l-33.758,256L256,512c141.385,0,256-114.615,256-256S397.385,0,256,0z"/>
<path style="fill:#F77A20;" d="M0,256c0,141.385,114.615,256,256,256V0C114.615,0,0,114.615,0,256z"/>
<path style="fill:#FFFFFF;" d="M256,478.242c-122.545,0-222.242-99.697-222.242-222.242S133.455,33.758,256,33.758
	S478.242,133.455,478.242,256S378.545,478.242,256,478.242z"/>
<path style="fill:#A3DDE9;" d="M256,33.758v444.484c122.545,0,222.242-99.697,222.242-222.242S378.545,33.758,256,33.758z"/>
<path style="fill:#C4F5FF;" d="M256,33.758C133.455,33.758,33.758,133.455,33.758,256S133.455,478.242,256,478.242
	c103.93,0,188.484-99.697,188.484-222.242S359.93,33.758,256,33.758z"/>
<path style="fill:#82C8DB;" d="M256,81.02c-96.484,0-174.98,78.496-174.98,174.98c0,30.734,8.119,60.984,23.488,87.504
	c0.433,0.743,4.464,7.125,12.557,2.456l23.29-13.446c4.036-2.33,5.419-7.492,3.089-11.528c-2.33-4.037-7.492-5.418-11.528-3.089
	c0,0-9.692,5.596-16.841,9.724c-9.986-19.596-15.758-41.155-16.939-63.181h19.456c4.661,0,8.44-3.778,8.44-8.44
	c0-4.662-3.779-8.44-8.44-8.44H98.125c1.196-22.639,7.178-44.03,16.949-63.18l16.841,9.723c1.329,0.767,2.781,1.132,4.212,1.132
	c2.917,0,5.754-1.514,7.317-4.221c2.33-4.036,0.947-9.198-3.089-11.528l-16.812-9.705c12.036-18.429,27.809-34.202,46.238-46.238
	l9.705,16.81c1.563,2.707,4.4,4.221,7.317,4.221c1.431,0,2.883-0.365,4.212-1.132c4.036-2.33,5.419-7.492,3.089-11.528
	l-9.724-16.841c19.151-9.771,40.541-15.753,63.181-16.949v19.466c0,4.662,3.779,8.44,8.44,8.44c4.661,0,8.44-3.778,8.44-8.44V98.125
	c22.639,1.196,44.03,7.178,63.179,16.949l-9.723,16.841c-2.33,4.036-0.947,9.198,3.089,11.528c1.329,0.767,2.781,1.132,4.212,1.132
	c2.917,0,5.754-1.514,7.317-4.221l9.706-16.81c18.429,12.037,34.202,27.809,46.238,46.238l-16.812,9.705
	c-4.036,2.33-5.419,7.492-3.089,11.528c1.563,2.707,4.4,4.221,7.317,4.221c1.431,0,2.883-0.365,4.212-1.132l16.841-9.723
	c9.771,19.149,15.752,40.54,16.949,63.18h-19.464c-4.661,0-8.44,3.778-8.44,8.44c0,4.662,3.779,8.44,8.44,8.44h19.456
	c-1.179,22.012-6.945,43.574-16.917,63.191l-16.861-9.735c-4.037-2.33-9.198-0.949-11.528,3.089
	c-2.33,4.036-0.948,9.198,3.089,11.528l24.363,14.066c1.329,0.767,2.779,1.132,4.212,1.132c2.914,0,5.75-1.512,7.314-4.217
	C422.873,316.96,430.98,286.704,430.98,256C430.98,159.516,352.484,81.02,256,81.02z"/>
<g>
	<path style="fill:#06384A;" d="M246.154,251.94l-85.004,49.077c-4.036,2.33-5.419,7.492-3.089,11.528
		c1.563,2.707,4.4,4.221,7.317,4.221c1.431,0,2.883-0.365,4.212-1.132l85.004-49.077L246.154,251.94z"/>
	<path style="fill:#06384A;" d="M299.853,230.681c-4.742-8.213-11.453-14.596-19.196-18.897l-16.439,29.479l8.653,14.989
		l33.749,0.503C306.767,247.898,304.595,238.895,299.853,230.681z"/>
</g>
<g>
	<path style="fill:#419EBE;" d="M285.423,430.98h-58.845c-4.661,0-8.44-3.778-8.44-8.44s3.779-8.44,8.44-8.44h58.845
		c4.661,0,8.44,3.778,8.44,8.44S290.083,430.98,285.423,430.98z"/>
	<path style="fill:#419EBE;" d="M274.17,397.222h-36.34c-4.661,0-8.44-3.778-8.44-8.44s3.779-8.44,8.44-8.44h36.34
		c4.661,0,8.44,3.778,8.44,8.44S278.831,397.222,274.17,397.222z"/>
</g>
<path style="fill:#EA5A20;" d="M254.875,275.692c-10.859,0-19.692-8.833-19.692-19.692c0-10.859,8.833-19.692,19.692-19.692
	s19.692,8.833,19.692,19.692C274.567,266.859,265.734,275.692,254.875,275.692z"/>
<g>
</g>
<g>
</g>
<g>
</g>
<g>
</g>
<g>
</g>
<g>
</g>
<g>
</g>
<g>
</g>
<g>
</g>
<g>
</g>
<g>
</g>
<g>
</g>
<g>
</g>
<g>
</g>
<g>
</g>
</svg>
