<?xml version="1.0" encoding="iso-8859-1"?>
<!-- Generator: Adobe Illustrator 19.1.0, SVG Export Plug-In . SVG Version: 6.00 Build 0)  -->
<svg version="1.1" id="Capa_1" xmlns="http://www.w3.org/2000/svg" xmlns:xlink="http://www.w3.org/1999/xlink" x="0px" y="0px"
	 viewBox="0 0 410.371 410.371" style="enable-background:new 0 0 410.371 410.371;" xml:space="preserve">
<g>
	<path style="fill:#E6E6E6;" d="M94.378,135.177c-12.96,0-22.644,5.783-22.644,10.953v37.644h114.079V146.13
		c0-5.17-9.684-10.953-22.643-10.953H94.378z"/>
	<path style="fill:#BB844C;" d="M30.25,333.552H15.934c-3.825,0.011-6.934,3.124-6.934,6.951c0,2.868,4.043,6.399,6.002,7.661
		c1.287,0.828,2.077,2.262,2.077,3.792v9.193h12.026v-9.193c0-1.54,0.788-2.974,2.088-3.799c1.946-1.253,5.988-4.785,5.988-7.653
		C37.182,336.676,34.074,333.563,30.25,333.552z"/>
	<path style="fill:#BB844C;" d="M363.112,183.774v-60.097c-20.028-2.023-40.644-17.174-40.644-36.992
		c0-0.058-1.825-6.126-31.056-11.67c-22.394-4.247-52.984-6.586-86.135-6.586c-0.031,0-0.06-0.009-0.091-0.009
		c-0.031,0.001-0.06,0.009-0.091,0.009c-33.151,0-63.741,2.339-86.135,6.586c-29.231,5.544-31.056,11.612-31.056,11.67
		c0,19.818-20.616,34.969-40.644,36.992v60.097h15.475V146.13c0-11.188,13.899-19.953,31.644-19.953h68.792
		c17.744,0,31.643,8.765,31.643,19.953v37.644h20.744V146.13c0-11.188,13.899-19.953,31.643-19.953h68.792
		c17.744,0,31.644,8.765,31.644,19.953v37.644H363.112z"/>
	<path style="fill:#CCB683;" d="M38.26,119.416c0-2.485,2.015-4.5,4.5-4.5c16.714,0,36.144-12.332,36.144-28.231
		c0-8.905,12.554-15.615,38.379-20.512c22.93-4.349,54.116-6.744,87.812-6.744c0.031,0,0.06,0.009,0.091,0.009
		c0.031,0,0.06-0.009,0.091-0.009c33.696,0,64.882,2.395,87.813,6.744c25.825,4.897,38.379,11.607,38.379,20.512
		c0,15.899,19.429,28.231,36.144,28.231c2.485,0,4.5,2.015,4.5,4.5v64.358h12.917v-76.222c-22.992-1.94-41.018-18.578-41.058-38.764
		c0-0.004-0.001-0.009-0.001-0.013c-0.167-0.379-3.738-7.057-40.313-12.935c-26.553-4.268-61.492-6.618-98.38-6.618
		c-0.031,0-0.06-0.009-0.091-0.009c-0.031,0-0.06,0.009-0.091,0.009c-36.888,0-71.827,2.35-98.38,6.618
		C69.792,61.774,66.507,68.518,66.4,68.779c-0.034,20.19-18.063,36.832-41.058,38.772v76.222H38.26V119.416z"/>
	<path style="fill:#E6E6E6;" d="M247.201,135.177c-12.96,0-22.643,5.783-22.643,10.953v37.644h114.079V146.13
		c0-5.17-9.684-10.953-22.644-10.953H247.201z"/>
	<path style="fill:#BB844C;" d="M394.436,333.552h-14.316c-3.823,0.011-6.931,3.124-6.931,6.951c0,2.868,4.043,6.4,6,7.661
		c1.286,0.829,2.076,2.262,2.076,3.792v9.193h12.026v-9.193c0-1.54,0.788-2.974,2.089-3.799c1.946-1.253,5.989-4.785,5.989-7.653
		C401.371,336.676,398.262,333.563,394.436,333.552z"/>
	<path style="fill:#C6CDC9;" d="M388.745,192.774H21.627c-13.168,7.237-12.649,23.301-12.62,23.996
		c0.003,0.063,0.005,0.143,0.005,0.206v37.756h392.347v-37.756c0-0.074,0.002-0.148,0.005-0.222
		C401.393,216.075,401.912,200.011,388.745,192.774z"/>
	<rect x="220.602" y="283.2" style="fill:#CCB683;" width="160.494" height="21.886"/>
	<path style="fill:#BB844C;" d="M9.001,324.552h392.37v-60.82H9.001V324.552z M211.602,278.7c0-2.485,2.015-4.5,4.5-4.5h169.494
		c2.485,0,4.5,2.015,4.5,4.5v30.886c0,2.485-2.015,4.5-4.5,4.5H216.102c-2.485,0-4.5-2.015-4.5-4.5V278.7z M20.275,278.7
		c0-2.485,2.015-4.5,4.5-4.5h169.494c2.485,0,4.5,2.015,4.5,4.5v30.886c0,2.485-2.015,4.5-4.5,4.5H24.775
		c-2.485,0-4.5-2.015-4.5-4.5V278.7z"/>
	<rect x="29.275" y="283.2" style="fill:#CCB683;" width="160.494" height="21.886"/>
	<path style="fill:#7C5F53;" d="M24.775,314.086h169.494c2.485,0,4.5-2.015,4.5-4.5V278.7c0-2.485-2.015-4.5-4.5-4.5H24.775
		c-2.485,0-4.5,2.015-4.5,4.5v30.886C20.275,312.071,22.289,314.086,24.775,314.086z M29.275,283.2h160.494v21.886H29.275V283.2z"/>
	<path style="fill:#7C5F53;" d="M394.029,185.439v-82.195c0-2.485-2.015-4.5-4.5-4.5c-20.159,0-36.56-13.468-36.56-30.021
		c0-5.903-4.737-14.544-45.696-21.409c-27.283-4.573-63.506-7.091-101.996-7.091c-0.031,0-0.06,0.009-0.091,0.009
		c-0.031,0-0.06-0.009-0.091-0.009c-38.49,0-74.713,2.518-101.996,7.091c-40.959,6.865-45.696,15.506-45.696,21.409
		c0,16.554-16.4,30.021-36.56,30.021c-2.485,0-4.5,2.015-4.5,4.5v82.195c-16.664,9.866-16.402,29.638-16.33,31.628L0.001,329.052
		c0,1.562,0.797,2.936,2.006,3.743c-1.273,2.285-2.006,4.91-2.006,7.708c0,6.371,5.065,11.347,8.078,13.744v11.401
		c0,2.485,2.015,4.5,4.5,4.5h21.026c2.485,0,4.5-2.015,4.5-4.5v-11.402c3.013-2.397,8.077-7.373,8.077-13.744
		c0-2.497-0.596-4.849-1.626-6.951h321.251c-1.028,2.103-1.617,4.456-1.617,6.951c0,6.371,5.064,11.347,8.077,13.744v11.402
		c0,2.485,2.015,4.5,4.5,4.5h21.026c2.485,0,4.5-2.015,4.5-4.5v-11.401c3.014-2.397,8.078-7.374,8.078-13.744
		c0-2.798-0.732-5.423-2.005-7.708c1.208-0.807,2.005-2.181,2.005-3.743l-0.011-111.985
		C410.431,215.077,410.692,195.305,394.029,185.439z M25.343,107.552c22.995-1.94,41.024-18.582,41.058-38.772
		c0.106-0.262,3.392-7.005,40.314-12.939c26.553-4.268,61.492-6.618,98.38-6.618c0.031,0,0.06-0.009,0.091-0.009
		c0.031,0,0.06,0.009,0.091,0.009c36.888,0,71.827,2.35,98.38,6.618c36.575,5.878,40.146,12.556,40.313,12.935
		c0,0.004,0.001,0.009,0.001,0.013c0.04,20.186,18.066,36.824,41.058,38.764v76.222h-12.917v-64.358c0-2.485-2.015-4.5-4.5-4.5
		c-16.714,0-36.144-12.332-36.144-28.231c0-8.905-12.554-15.615-38.379-20.512c-22.93-4.349-54.116-6.744-87.813-6.744
		c-0.031,0-0.06,0.009-0.091,0.009c-0.031,0-0.06-0.009-0.091-0.009c-33.696,0-64.882,2.395-87.812,6.744
		C91.457,71.07,78.903,77.78,78.903,86.685c0,15.899-19.429,28.231-36.144,28.231c-2.485,0-4.5,2.015-4.5,4.5v64.358H25.343V107.552
		z M315.993,126.177h-68.792c-17.744,0-31.643,8.765-31.643,19.953v37.644h-20.744V146.13c0-11.188-13.899-19.953-31.643-19.953
		H94.378c-17.744,0-31.644,8.765-31.644,19.953v37.644H47.26v-60.097c20.028-2.023,40.644-17.174,40.644-36.992
		c0-0.058,1.825-6.126,31.056-11.67c22.394-4.247,52.984-6.586,86.135-6.586c0.031,0,0.06-0.009,0.091-0.009
		c0.031,0.001,0.06,0.009,0.091,0.009c33.151,0,63.741,2.339,86.135,6.586c29.231,5.544,31.056,11.612,31.056,11.67
		c0,19.818,20.616,34.969,40.644,36.992v60.097h-15.475V146.13C347.637,134.942,333.737,126.177,315.993,126.177z M338.637,146.13
		v37.644H224.558V146.13c0-5.17,9.684-10.953,22.643-10.953h68.792C328.953,135.177,338.637,140.96,338.637,146.13z M185.814,146.13
		v37.644H71.735V146.13c0-5.17,9.684-10.953,22.644-10.953h68.792C176.13,135.177,185.814,140.96,185.814,146.13z M31.193,348.156
		c-1.3,0.826-2.088,2.259-2.088,3.799v9.193H17.079v-9.193c0-1.53-0.79-2.963-2.077-3.792c-1.958-1.261-6.002-4.793-6.002-7.661
		c0-3.827,3.109-6.94,6.934-6.951H30.25c3.824,0.011,6.932,3.124,6.932,6.951C37.182,343.372,33.139,346.904,31.193,348.156z
		 M395.381,348.156c-1.301,0.825-2.089,2.259-2.089,3.799v9.193h-12.026v-9.193c0-1.53-0.79-2.963-2.076-3.792
		c-1.958-1.261-6-4.792-6-7.661c0-3.827,3.108-6.94,6.931-6.951h14.316c3.825,0.011,6.934,3.124,6.934,6.951
		C401.371,343.371,397.327,346.903,395.381,348.156z M401.371,324.552H9.001v-60.82h392.37V324.552z M401.365,216.754
		c-0.003,0.074-0.005,0.148-0.005,0.222v37.756H9.012v-37.756c0-0.063-0.002-0.143-0.005-0.206
		c-0.029-0.695-0.548-16.759,12.62-23.996h367.118C401.912,200.011,401.393,216.075,401.365,216.754z"/>
	<path style="fill:#7C5F53;" d="M216.102,314.086h169.494c2.485,0,4.5-2.015,4.5-4.5V278.7c0-2.485-2.015-4.5-4.5-4.5H216.102
		c-2.485,0-4.5,2.015-4.5,4.5v30.886C211.602,312.071,213.617,314.086,216.102,314.086z M220.602,283.2h160.494v21.886H220.602
		V283.2z"/>
</g>
<g>
</g>
<g>
</g>
<g>
</g>
<g>
</g>
<g>
</g>
<g>
</g>
<g>
</g>
<g>
</g>
<g>
</g>
<g>
</g>
<g>
</g>
<g>
</g>
<g>
</g>
<g>
</g>
<g>
</g>
</svg>
