<?xml version="1.0" encoding="iso-8859-1"?>
<svg xmlns="http://www.w3.org/2000/svg" xmlns:xlink="http://www.w3.org/1999/xlink" version="1.1" viewBox="0 0 463 463" enable-background="new 0 0 463 463" width="512px" height="512px">
  <g>
    <g>
      <path d="m423.5,24h-24.5v-8.5c0-4.143-3.357-7.5-7.5-7.5s-7.5,3.357-7.5,7.5v8.5h-25v-8.5c0-4.143-3.357-7.5-7.5-7.5s-7.5,3.357-7.5,7.5v8.5h-25v-8.5c0-4.143-3.357-7.5-7.5-7.5s-7.5,3.357-7.5,7.5v8.5h-25v-8.5c0-4.143-3.357-7.5-7.5-7.5s-7.5,3.357-7.5,7.5v8.5h-25v-8.5c0-4.143-3.357-7.5-7.5-7.5s-7.5,3.357-7.5,7.5v8.5h-25v-8.5c0-4.143-3.357-7.5-7.5-7.5s-7.5,3.357-7.5,7.5v8.5h-25v-8.5c0-4.143-3.357-7.5-7.5-7.5s-7.5,3.357-7.5,7.5v8.5h-25v-8.5c0-4.143-3.357-7.5-7.5-7.5s-7.5,3.357-7.5,7.5v8.5h-25v-8.5c0-4.143-3.357-7.5-7.5-7.5s-7.5,3.357-7.5,7.5v8.5h-24.5c-21.78,0-39.5,17.72-39.5,39.5v288c0,21.78 17.72,39.5 39.5,39.5h86.197c20.023,38.017 59.932,64 105.803,64s85.78-25.983 105.803-64h86.197c21.78,0 39.5-17.72 39.5-39.5v-288c0-21.78-17.72-39.5-39.5-39.5zm-384,15h24.5v8.5c0,4.143 3.357,7.5 7.5,7.5s7.5-3.357 7.5-7.5v-8.5h25v8.5c0,4.143 3.357,7.5 7.5,7.5s7.5-3.357 7.5-7.5v-8.5h25v8.5c0,4.143 3.357,7.5 7.5,7.5s7.5-3.357 7.5-7.5v-8.5h25v8.5c0,4.143 3.357,7.5 7.5,7.5s7.5-3.357 7.5-7.5v-8.5h25v8.5c0,4.143 3.357,7.5 7.5,7.5s7.5-3.357 7.5-7.5v-8.5h25v8.5c0,4.143 3.357,7.5 7.5,7.5s7.5-3.357 7.5-7.5v-8.5h25v8.5c0,4.143 3.357,7.5 7.5,7.5s7.5-3.357 7.5-7.5v-8.5h25v8.5c0,4.143 3.357,7.5 7.5,7.5s7.5-3.357 7.5-7.5v-8.5h25v8.5c0,4.143 3.357,7.5 7.5,7.5s7.5-3.357 7.5-7.5v-8.5h24.5c13.51,0 24.5,10.99 24.5,24.5v8.5h-433v-8.5c0-13.51 10.99-24.5 24.5-24.5zm199.5,400.728v-16.228c0-4.143-3.357-7.5-7.5-7.5s-7.5,3.357-7.5,7.5v16.228c-51.656-3.681-93.047-45.073-96.728-96.728h16.228c4.143,0 7.5-3.357 7.5-7.5s-3.357-7.5-7.5-7.5h-16.228c3.681-51.656 45.073-93.047 96.728-96.728v16.228c0,4.143 3.357,7.5 7.5,7.5s7.5-3.357 7.5-7.5v-16.228c51.66,3.682 93.053,45.079 96.729,96.74-0.077-0.002-0.152-0.011-0.229-0.011h-16c-4.143,0-7.5,3.357-7.5,7.5s3.357,7.5 7.5,7.5h16c0.077,0 0.152-0.009 0.229-0.011-3.676,51.66-45.069,93.057-96.729,96.738zm184.5-63.728h-79.57c4.572-12.653 7.07-26.29 7.07-40.5 0-20.425-5.155-39.667-14.225-56.5h6.725c4.143,0 7.5-3.357 7.5-7.5s-3.357-7.5-7.5-7.5h-16c-0.1,0-0.197,0.011-0.296,0.015-21.813-29.13-56.595-48.015-95.704-48.015s-73.891,18.885-95.704,48.015c-0.099-0.004-0.196-0.015-0.296-0.015h-16c-4.143,0-7.5,3.357-7.5,7.5s3.357,7.5 7.5,7.5h6.725c-9.07,16.833-14.225,36.075-14.225,56.5 0,14.21 2.499,27.847 7.07,40.5h-79.57c-13.51,0-24.5-10.99-24.5-24.5v-264.5h433v264.5c0,13.51-10.99,24.5-24.5,24.5z" fill="#933EC5"/>
      <path d="m151.5,184h-32c-4.143,0-7.5,3.357-7.5,7.5s3.357,7.5 7.5,7.5h32c4.143,0 7.5-3.357 7.5-7.5s-3.357-7.5-7.5-7.5z" fill="#933EC5"/>
      <path d="m87.5,184h-32c-4.143,0-7.5,3.357-7.5,7.5s3.357,7.5 7.5,7.5h32c4.143,0 7.5-3.357 7.5-7.5s-3.357-7.5-7.5-7.5z" fill="#933EC5"/>
      <path d="m215.5,184h-32c-4.143,0-7.5,3.357-7.5,7.5s3.357,7.5 7.5,7.5h32c4.143,0 7.5-3.357 7.5-7.5s-3.357-7.5-7.5-7.5z" fill="#933EC5"/>
      <path d="m343.5,184h-32c-4.143,0-7.5,3.357-7.5,7.5s3.357,7.5 7.5,7.5h32c4.143,0 7.5-3.357 7.5-7.5s-3.357-7.5-7.5-7.5z" fill="#933EC5"/>
      <path d="m407.5,184h-32c-4.143,0-7.5,3.357-7.5,7.5s3.357,7.5 7.5,7.5h32c4.143,0 7.5-3.357 7.5-7.5s-3.357-7.5-7.5-7.5z" fill="#933EC5"/>
      <path d="m279.5,184h-32c-4.143,0-7.5,3.357-7.5,7.5s3.357,7.5 7.5,7.5h32c4.143,0 7.5-3.357 7.5-7.5s-3.357-7.5-7.5-7.5z" fill="#933EC5"/>
      <path d="m151.5,144h-32c-4.143,0-7.5,3.357-7.5,7.5s3.357,7.5 7.5,7.5h32c4.143,0 7.5-3.357 7.5-7.5s-3.357-7.5-7.5-7.5z" fill="#933EC5"/>
      <path d="m87.5,144h-32c-4.143,0-7.5,3.357-7.5,7.5s3.357,7.5 7.5,7.5h32c4.143,0 7.5-3.357 7.5-7.5s-3.357-7.5-7.5-7.5z" fill="#933EC5"/>
      <path d="m215.5,144h-32c-4.143,0-7.5,3.357-7.5,7.5s3.357,7.5 7.5,7.5h32c4.143,0 7.5-3.357 7.5-7.5s-3.357-7.5-7.5-7.5z" fill="#933EC5"/>
      <path d="m343.5,144h-32c-4.143,0-7.5,3.357-7.5,7.5s3.357,7.5 7.5,7.5h32c4.143,0 7.5-3.357 7.5-7.5s-3.357-7.5-7.5-7.5z" fill="#933EC5"/>
      <path d="m407.5,144h-32c-4.143,0-7.5,3.357-7.5,7.5s3.357,7.5 7.5,7.5h32c4.143,0 7.5-3.357 7.5-7.5s-3.357-7.5-7.5-7.5z" fill="#933EC5"/>
      <path d="m279.5,144h-32c-4.143,0-7.5,3.357-7.5,7.5s3.357,7.5 7.5,7.5h32c4.143,0 7.5-3.357 7.5-7.5s-3.357-7.5-7.5-7.5z" fill="#933EC5"/>
      <path d="m151.5,224h-32c-4.143,0-7.5,3.357-7.5,7.5s3.357,7.5 7.5,7.5h32c4.143,0 7.5-3.357 7.5-7.5s-3.357-7.5-7.5-7.5z" fill="#933EC5"/>
      <path d="m87.5,224h-32c-4.143,0-7.5,3.357-7.5,7.5s3.357,7.5 7.5,7.5h32c4.143,0 7.5-3.357 7.5-7.5s-3.357-7.5-7.5-7.5z" fill="#933EC5"/>
      <path d="m343.5,224h-32c-4.143,0-7.5,3.357-7.5,7.5s3.357,7.5 7.5,7.5h32c4.143,0 7.5-3.357 7.5-7.5s-3.357-7.5-7.5-7.5z" fill="#933EC5"/>
      <path d="m407.5,224h-32c-4.143,0-7.5,3.357-7.5,7.5s3.357,7.5 7.5,7.5h32c4.143,0 7.5-3.357 7.5-7.5s-3.357-7.5-7.5-7.5z" fill="#933EC5"/>
      <path d="m87.5,264h-32c-4.143,0-7.5,3.357-7.5,7.5s3.357,7.5 7.5,7.5h32c4.143,0 7.5-3.357 7.5-7.5s-3.357-7.5-7.5-7.5z" fill="#933EC5"/>
      <path d="m407.5,264h-32c-4.143,0-7.5,3.357-7.5,7.5s3.357,7.5 7.5,7.5h32c4.143,0 7.5-3.357 7.5-7.5s-3.357-7.5-7.5-7.5z" fill="#933EC5"/>
      <path d="m87.5,304h-32c-4.143,0-7.5,3.357-7.5,7.5s3.357,7.5 7.5,7.5h32c4.143,0 7.5-3.357 7.5-7.5s-3.357-7.5-7.5-7.5z" fill="#933EC5"/>
      <path d="m407.5,304h-32c-4.143,0-7.5,3.357-7.5,7.5s3.357,7.5 7.5,7.5h32c4.143,0 7.5-3.357 7.5-7.5s-3.357-7.5-7.5-7.5z" fill="#933EC5"/>
      <path d="m292.804,284.804c2.929-2.93 2.929-7.678 0-10.607-2.93-2.928-7.678-2.928-10.607,0l-40.258,40.258c-3.147-1.567-6.691-2.454-10.439-2.454-10.336,0-19.128,6.71-22.266,16h-9.734c-4.143,0-7.5,3.357-7.5,7.5s3.357,7.5 7.5,7.5h9.734c0.342,1.012 0.749,1.993 1.219,2.939l-13.11,13.11c-2.929,2.93-2.929,7.678 0,10.607 1.465,1.464 3.385,2.196 5.304,2.196s3.839-0.732 5.304-2.196l13.11-13.11c3.147,1.567 6.691,2.454 10.439,2.454 10.336,0 19.128-6.71 22.266-16h33.734c4.143,0 7.5-3.357 7.5-7.5s-3.357-7.5-7.5-7.5h-33.734c-0.342-1.012-0.749-1.993-1.219-2.939l40.257-40.258zm-61.304,59.196c-4.687,0-8.5-3.813-8.5-8.5s3.813-8.5 8.5-8.5 8.5,3.813 8.5,8.5-3.813,8.5-8.5,8.5z" fill="#933EC5"/>
    </g>
  </g>
</svg>
