<?xml version="1.0" standalone="no"?>
<!DOCTYPE svg PUBLIC "-//W3C//DTD SVG 20010904//EN"
 "http://www.w3.org/TR/2001/REC-SVG-20010904/DTD/svg10.dtd">
<svg version="1.0" xmlns="http://www.w3.org/2000/svg"
 width="125.000000pt" height="125.000000pt" viewBox="0 0 125.000000 125.000000"
 preserveAspectRatio="xMidYMid meet">
<metadata>
Created by potrace 1.13, written by Peter Selinger 2001-2015
</metadata>
<g transform="translate(0.000000,125.000000) scale(0.100000,-0.100000)"
fill="#000000" stroke="none">
<path d="M0 625 l0 -625 625 0 625 0 0 625 0 625 -625 0 -625 0 0 -625z m506
348 c-3 -21 -6 -57 -6 -81 l0 -43 -112 3 c-128 3 -116 -8 -103 101 l6 57 111
0 111 0 -7 -37z m232 -45 l3 -78 -100 0 c-56 0 -103 4 -106 10 -3 6 -3 42 1
80 l7 71 96 -3 96 -3 3 -77z m250 10 c6 -40 8 -76 3 -81 -4 -4 -55 -6 -112 -5
l-104 3 -3 78 -3 77 104 0 105 0 10 -72z m-489 -170 c-5 -95 4 -89 -128 -86
l-116 3 2 35 c2 19 5 50 8 68 l6 32 115 0 115 0 -2 -52z m246 -7 c4 -33 4 -65
0 -70 -4 -7 -48 -11 -111 -11 l-104 0 0 70 0 70 104 0 104 0 7 -59z m259 51
c2 -4 8 -36 12 -70 l7 -62 -37 0 -36 0 0 -241 0 -240 -27 3 -28 3 -3 238 -2
237 -55 0 -55 0 0 54 c0 30 -3 61 -6 70 -5 14 8 16 109 16 64 0 118 -4 121 -8z
m-346 -203 c30 -10 45 -33 73 -111 11 -32 18 -38 41 -38 21 0 28 -5 28 -20 0
-11 -7 -23 -15 -26 -12 -5 -15 -27 -15 -110 l0 -104 -60 0 c-59 0 -60 1 -60
28 l0 27 -132 -2 -133 -2 -3 -25 c-3 -25 -6 -26 -63 -26 l-59 0 0 104 c0 83
-3 105 -15 110 -8 3 -15 15 -15 26 0 15 7 20 29 20 25 0 30 6 46 48 24 64 42
91 68 102 31 13 248 12 285 -1z"/>
<path d="M370 514 c-11 -25 -20 -50 -20 -54 0 -21 193 -32 292 -16 l46 7 -16
42 c-26 68 -22 67 -159 67 l-124 0 -19 -46z"/>
</g>
</svg>
