<?xml version="1.0" encoding="iso-8859-1"?>
<!-- Generator: Adobe Illustrator 19.0.0, SVG Export Plug-In . SVG Version: 6.00 Build 0)  -->
<svg version="1.1" id="Capa_1" xmlns="http://www.w3.org/2000/svg" xmlns:xlink="http://www.w3.org/1999/xlink" x="0px" y="0px"
	 viewBox="0 0 58 58" style="enable-background:new 0 0 58 58;" xml:space="preserve">
<circle style="fill:#556080;" cx="29" cy="29" r="29"/>
<g>
	<path style="fill:#FFFFFF;" d="M16,21c-2.206,0-4-1.794-4-4s1.794-4,4-4s4,1.794,4,4S18.206,21,16,21z M16,15c-1.103,0-2,0.897-2,2
		s0.897,2,2,2s2-0.897,2-2S17.103,15,16,15z"/>
</g>
<path style="fill:#FFFFFF;" d="M40,45h-6.211C25.496,45,19,38.214,19,29.55S25.496,14.1,33.789,14.1H40c0.552,0,1,0.447,1,1
	s-0.448,1-1,1h-6.211C26.498,16.1,21,21.882,21,29.55S26.498,43,33.789,43H40c0.552,0,1,0.447,1,1S40.552,45,40,45z"/>
<g>
</g>
<g>
</g>
<g>
</g>
<g>
</g>
<g>
</g>
<g>
</g>
<g>
</g>
<g>
</g>
<g>
</g>
<g>
</g>
<g>
</g>
<g>
</g>
<g>
</g>
<g>
</g>
<g>
</g>
</svg>
