<?xml version="1.0" encoding="iso-8859-1"?>
<!-- Generator: Adobe Illustrator 19.0.0, SVG Export Plug-In . SVG Version: 6.00 Build 0)  -->
<svg version="1.1" id="Layer_1" xmlns="http://www.w3.org/2000/svg" xmlns:xlink="http://www.w3.org/1999/xlink" x="0px" y="0px"
	 viewBox="0 0 511.996 511.996" style="enable-background:new 0 0 511.996 511.996;" xml:space="preserve">
<g>
	<path style="fill:#129A58;" d="M174.156,366.773c0-10.475,8.522-18.998,18.994-18.998c10.474,0,18.994,8.523,18.994,18.998
		c0,1.612-0.223,3.17-0.604,4.664c12.383-4.633,25.309-10.069,38.261-16.412c-4.817-3.449-7.973-9.078-7.973-15.441
		c0-10.474,8.522-18.994,18.996-18.994c10.126,0,18.402,7.971,18.942,17.964c17.765-10.961,34.775-23.869,49.58-39.026
		c-7.494-1.677-12.119-6.087-15.982-9.791c-4.367-4.184-7.816-7.489-15.026-7.489c-7.208,0-10.655,3.304-15.02,7.488
		c-4.879,4.676-10.948,10.494-22.501,10.494c-11.552,0-17.622-5.819-22.499-10.494c-4.365-4.184-7.812-7.489-15.02-7.489
		c-7.209,0-10.656,3.305-15.022,7.489c-4.877,4.675-10.948,10.494-22.499,10.494c-0.66,0-1.298-0.024-1.923-0.061
		c-12.681,30.711-30.032,68.516-47.3,92.796c10.498-2.126,26.251-5.742,44.79-11.343
		C176.971,378.143,174.156,372.784,174.156,366.773z M293.274,298.684c1.008-1.008,2.401-1.585,3.818-1.585
		c1.429,0,2.821,0.576,3.818,1.585c1.01,1.008,1.585,2.401,1.585,3.818c0,1.429-0.576,2.821-1.585,3.83
		c-0.996,0.996-2.388,1.573-3.818,1.573c-1.417,0-2.809-0.576-3.818-1.573c-1.008-1.008-1.585-2.401-1.585-3.83
		C291.689,301.085,292.265,299.692,293.274,298.684z M218.861,298.684c1.008-1.008,2.401-1.585,3.83-1.585
		c1.417,0,2.809,0.576,3.818,1.585s1.585,2.401,1.585,3.818c0,1.429-0.576,2.821-1.585,3.818c-1.008,1.008-2.401,1.585-3.818,1.585
		c-1.429,0-2.823-0.576-3.83-1.585c-0.996-0.996-1.573-2.389-1.573-3.818C217.289,301.085,217.864,299.692,218.861,298.684z
		 M215.859,331.039c1.022-1.008,2.401-1.585,3.83-1.585c1.417,0,2.809,0.576,3.818,1.585s1.585,2.401,1.585,3.818
		c0,1.429-0.576,2.809-1.585,3.818c-1.008,1.008-2.401,1.585-3.818,1.585c-1.429,0-2.823-0.576-3.83-1.585
		c-0.996-1.008-1.573-2.401-1.573-3.818C214.288,333.44,214.863,332.048,215.859,331.039z M189.327,322.179
		c1.008-1.008,2.401-1.585,3.818-1.585c1.43,0,2.823,0.576,3.831,1.585c0.996,0.996,1.584,2.389,1.584,3.818
		c0,1.417-0.587,2.809-1.584,3.818c-1.008,1.008-2.401,1.585-3.831,1.585c-1.417,0-2.809-0.576-3.818-1.585
		c-1.008-1.008-1.585-2.401-1.585-3.818C187.742,324.568,188.319,323.175,189.327,322.179z"/>
	<path style="fill:#129A58;" d="M200.799,281.938c4.877-4.675,10.948-10.494,22.499-10.494c11.551,0,17.621,5.818,22.498,10.494
		c4.365,4.184,7.812,7.489,15.022,7.489c7.211,0,10.659-3.305,15.025-7.489c4.876-4.675,10.947-10.493,22.496-10.493
		c11.553,0,17.625,5.818,22.501,10.493c4.367,4.184,7.816,7.489,15.026,7.489c10.955,0,26.859-4.475,33.948-8.039
		c-83.697-26.511-142.055-85.391-160.086-105.399c-14.142,33.315-33.144,73.401-51.43,97.21c5.489,2.081,9.24,5.654,12.458,8.739
		c4.365,4.184,7.812,7.489,15.022,7.489S196.435,286.122,200.799,281.938z M257.004,254.971c1.008-1.008,2.401-1.585,3.818-1.585
		c1.429,0,2.821,0.576,3.818,1.585c1.01,1.008,1.585,2.401,1.585,3.818c0,1.429-0.576,2.809-1.585,3.818
		c-0.996,1.008-2.388,1.585-3.818,1.585c-1.417,0-2.809-0.576-3.818-1.585c-1.008-0.996-1.585-2.389-1.585-3.818
		C255.419,257.372,255.996,255.979,257.004,254.971z M217.464,210.704c10.474,0,18.994,8.523,18.994,18.998
		c0,10.473-8.522,18.992-18.994,18.992c-10.475,0-18.996-8.521-18.996-18.992C198.469,219.227,206.99,210.704,217.464,210.704z
		 M180.671,262.222c0-1.417,0.576-2.809,1.584-3.818c1.01-1.008,2.401-1.585,3.819-1.585c1.417,0,2.809,0.576,3.818,1.585
		c1.008,1.008,1.585,2.401,1.585,3.818s-0.576,2.809-1.585,3.818c-1.008,1.008-2.401,1.585-3.818,1.585
		c-1.418,0-2.809-0.576-3.819-1.585C181.246,265.031,180.671,263.639,180.671,262.222z"/>
</g>
<path style="fill:#EFD18D;" d="M217.464,237.889c4.517,0,8.189-3.673,8.189-8.187c0-4.518-3.674-8.193-8.189-8.193
	c-4.517,0-8.19,3.675-8.19,8.193C209.274,234.216,212.949,237.889,217.464,237.889z"/>
<path style="fill:#FF5240;" d="M184.961,366.773c0,4.514,3.674,8.187,8.189,8.187c4.517,0,8.189-3.673,8.189-8.187
	c0-4.518-3.673-8.193-8.189-8.193C188.635,358.582,184.961,362.257,184.961,366.773z"/>
<path style="fill:#FFFFFF;" d="M252.635,339.586c0,4.517,3.675,8.19,8.19,8.19c4.517,0,8.189-3.674,8.189-8.19
	c0-4.515-3.674-8.189-8.189-8.189C256.31,331.397,252.635,335.071,252.635,339.586z"/>
<rect x="116.045" y="484.073" style="fill:#E1B658;" width="139.675" height="17.118"/>
<path style="fill:#129A58;" d="M215.946,155.531c3.753-3.597,8.424-8.074,17.45-8.074c9.027,0,13.697,4.477,17.449,8.074
	c3.185,3.053,5.29,5.07,9.977,5.07c4.685,0,6.788-2.017,9.973-5.069c3.754-3.597,8.426-8.074,17.453-8.074
	c9.028,0,13.699,4.477,17.452,8.074c3.185,3.053,5.29,5.07,9.977,5.07c4.687,0,6.79-2.017,9.977-5.069
	c1.677-1.608,3.54-3.388,5.891-4.87c-15.526-13.286-29.862-32.962-41.791-52.581c-3.179,3.41-6.633,6.758-10.355,10.012
	c0.274,1.28,0.424,2.605,0.424,3.966c0,10.474-8.522,18.994-18.994,18.994c-3.574,0-6.907-1.01-9.766-2.733
	c-21.439,12.694-43.156,20.966-56.883,25.5c0.635,0.577,1.24,1.154,1.82,1.708c3.184,3.053,5.289,5.07,9.974,5.07
	C210.656,160.601,212.76,158.584,215.946,155.531z M286.778,127.301c0.996-1.008,2.389-1.585,3.818-1.585
	c1.418,0,2.809,0.576,3.819,1.585c1.008,1.008,1.584,2.401,1.584,3.818c0,1.417-0.575,2.809-1.584,3.818
	c-1.01,1.008-2.401,1.585-3.819,1.585c-1.417,0-2.809-0.576-3.818-1.585c-1.008-1.008-1.585-2.401-1.585-3.818
	C285.193,129.702,285.77,128.309,286.778,127.301z"/>
<path style="fill:#FF5240;" d="M295.998,229.702c0,4.514,3.674,8.187,8.189,8.187c4.517,0,8.189-3.673,8.189-8.187
	c0-4.518-3.674-8.193-8.189-8.193S295.998,225.184,295.998,229.702z"/>
<path style="fill:#FFFFFF;" d="M252.635,112.06c0,4.515,3.675,8.189,8.19,8.189c4.517,0,8.189-3.674,8.189-8.189
	c0-4.515-3.674-8.189-8.189-8.189C256.31,103.87,252.635,107.544,252.635,112.06z"/>
<g>
	<rect x="80.868" y="484.073" style="fill:#E1B658;" width="24.368" height="17.118"/>
	<rect x="80.868" y="460.518" style="fill:#E1B658;" width="24.368" height="12.751"/>
</g>
<g>
	<path style="fill:#129A58;" d="M241.83,112.06c0-10.474,8.522-18.994,18.996-18.994c5.122,0,9.768,2.047,13.187,5.353
		c3.637-3.284,6.974-6.654,9.992-10.075c-10.302-18.027-18.356-35.051-23.181-45.866c-9.605,21.528-31.994,67.657-59.479,97.329
		c12.079-4.496,27.296-10.996,42.307-19.677C242.496,117.676,241.83,114.947,241.83,112.06z M257.004,71.642
		c1.008-1.008,2.401-1.585,3.818-1.585c1.429,0,2.821,0.576,3.818,1.585c1.01,1.008,1.585,2.401,1.585,3.818
		c0,1.417-0.576,2.809-1.585,3.818c-0.996,1.008-2.388,1.585-3.818,1.585c-1.417,0-2.809-0.576-3.818-1.585
		c-1.008-0.996-1.585-2.389-1.585-3.818C255.419,74.043,255.996,72.651,257.004,71.642z"/>
	<path style="fill:#129A58;" d="M298.224,163.333c-3.185-3.053-5.29-5.07-9.977-5.07c-4.686,0-6.79,2.017-9.977,5.07
		c-3.752,3.597-8.423,8.074-17.449,8.074c-9.028,0-13.699-4.477-17.453-8.074c-3.184-3.052-5.287-5.069-9.973-5.069
		c-4.685,0-6.788,2.017-9.973,5.069c-1.71,1.638-3.614,3.454-6.027,4.951c9.876,10.88,33.736,35.359,67.977,58.95
		c1.217-9.309,9.18-16.528,18.815-16.528c10.474,0,18.994,8.523,18.994,18.998c0,6.589-3.376,12.401-8.487,15.808
		c13.407,7.505,27.889,14.472,43.329,20.32c-17.585-25.602-35.332-64.056-48.349-95.178
		C304.373,169.225,301.04,166.032,298.224,163.333z M264.639,192.817c-0.996,0.996-2.388,1.573-3.818,1.573
		c-1.417,0-2.809-0.576-3.818-1.573c-1.008-1.008-1.585-2.401-1.585-3.818c0-1.429,0.576-2.821,1.585-3.83
		c1.008-0.996,2.401-1.585,3.818-1.585c1.429,0,2.821,0.588,3.818,1.585c1.01,1.008,1.585,2.401,1.585,3.83
		C266.225,190.415,265.648,191.808,264.639,192.817z M300.908,192.817c-0.996,1.008-2.388,1.585-3.818,1.585
		c-1.417,0-2.809-0.576-3.818-1.585c-1.008-1.008-1.585-2.401-1.585-3.818c0-1.429,0.576-2.821,1.585-3.83
		c1.008-0.996,2.401-1.573,3.818-1.573c1.429,0,2.821,0.576,3.818,1.573c1.01,1.008,1.585,2.401,1.585,3.83
		C302.494,190.415,301.918,191.808,300.908,192.817z"/>
</g>
<rect x="116.045" y="460.518" style="fill:#E1B658;" width="139.675" height="12.751"/>
<g>
	<rect x="360.435" y="384.665" style="fill:#FF5240;" width="44.746" height="13.953"/>
	<rect x="360.435" y="409.421" style="fill:#FF5240;" width="44.746" height="91.772"/>
</g>
<path style="fill:#EFD18D;" d="M328.501,358.582c-4.517,0-8.189,3.675-8.189,8.193c0,4.514,3.674,8.187,8.189,8.187
	c4.517,0,8.19-3.673,8.19-8.187C336.691,362.257,333.016,358.582,328.501,358.582z"/>
<rect x="415.986" y="409.421" style="fill:#FF5240;" width="14.982" height="91.772"/>
<path style="fill:#129A58;" d="M339.574,304.451c-39.299,41.538-93.831,66.681-133.58,80.622
	c-25.055,8.788-47.067,14.26-61.939,17.429c2.195,1.728,4.146,3.593,6.018,5.387c5.52,5.291,9.88,9.47,19.156,9.47
	c9.278,0,13.637-4.179,19.159-9.47c6.1-5.848,13.017-12.475,26.636-12.475c13.618,0,20.532,6.627,26.632,12.474
	c5.521,5.291,9.881,9.47,19.159,9.47c9.278,0,13.637-4.179,19.159-9.47c6.1-5.848,13.016-12.475,26.636-12.475
	c13.622,0,20.537,6.627,26.638,12.474c4.936,4.729,8.956,8.561,16.38,9.324v-37.947c0-2.983,2.419-5.403,5.403-5.403h17.934
	C360.362,352.023,348.445,325.655,339.574,304.451z M267.053,397.143c-1.022,1.008-2.401,1.585-3.83,1.585
	c-1.417,0-2.809-0.576-3.818-1.585s-1.585-2.401-1.585-3.818c0-1.429,0.576-2.821,1.585-3.83c1.008-0.996,2.401-1.573,3.818-1.573
	c1.429,0,2.821,0.576,3.83,1.573c0.996,1.008,1.573,2.413,1.573,3.83S268.049,396.135,267.053,397.143z M289.216,370.598
	c-1.01,0.996-2.401,1.573-3.819,1.573c-1.427,0-2.821-0.576-3.829-1.573c-0.996-1.008-1.574-2.401-1.574-3.83
	c0-1.417,0.576-2.809,1.574-3.818c1.008-0.996,2.401-1.585,3.829-1.585c1.418,0,2.809,0.588,3.819,1.585
	c1.008,1.008,1.584,2.401,1.584,3.818C290.799,368.197,290.224,369.59,289.216,370.598z M324.681,328.086
	c0.996-1.008,2.388-1.585,3.818-1.585c1.427,0,2.821,0.576,3.818,1.585c1.008,1.008,1.585,2.401,1.585,3.818
	c0,1.417-0.576,2.809-1.585,3.818c-0.996,1.008-2.401,1.585-3.818,1.585c-1.417,0-2.809-0.576-3.818-1.585
	c-1.01-1.008-1.585-2.401-1.585-3.818C323.096,330.487,323.671,329.094,324.681,328.086z M328.501,385.766
	c-10.474,0-18.994-8.521-18.994-18.992c0-10.475,8.522-18.998,18.994-18.998c10.475,0,18.996,8.523,18.996,18.998
	C347.497,377.246,338.975,385.766,328.501,385.766z"/>
<path style="fill:#BDF3FF;" d="M205.011,449.715h56.117c2.983,0,5.403,2.419,5.403,5.403v46.076h13.46v-73.031h-74.98V449.715z"/>
<rect x="415.986" y="384.665" style="fill:#FF5240;" width="14.982" height="13.953"/>
<rect x="290.802" y="428.162" style="fill:#BDF3FF;" width="12.793" height="73.031"/>
<g>
	<rect x="314.393" y="484.073" style="fill:#EFD18D;" width="35.235" height="17.118"/>
	<rect x="314.393" y="460.518" style="fill:#EFD18D;" width="35.235" height="12.751"/>
</g>
<g>
	<path style="fill:#4F413B;" d="M217.464,248.694c10.474,0,18.994-8.521,18.994-18.992c0-10.475-8.522-18.998-18.994-18.998
		c-10.475,0-18.996,8.523-18.996,18.998C198.469,240.175,206.99,248.694,217.464,248.694z M217.464,221.509
		c4.517,0,8.189,3.675,8.189,8.193c0,4.514-3.674,8.187-8.189,8.187c-4.517,0-8.19-3.673-8.19-8.187
		C209.274,225.184,212.949,221.509,217.464,221.509z"/>
	<path style="fill:#4F413B;" d="M328.501,347.776c-10.474,0-18.994,8.523-18.994,18.998c0,10.473,8.522,18.992,18.994,18.992
		c10.475,0,18.996-8.52,18.996-18.992C347.497,356.298,338.975,347.776,328.501,347.776z M328.501,374.961
		c-4.517,0-8.189-3.673-8.189-8.187c0-4.518,3.674-8.193,8.189-8.193c4.517,0,8.19,3.675,8.19,8.193
		C336.691,371.289,333.016,374.961,328.501,374.961z"/>
	<path style="fill:#4F413B;" d="M290.595,136.521c1.418,0,2.809-0.576,3.819-1.585c1.008-1.008,1.584-2.401,1.584-3.818
		c0-1.417-0.575-2.809-1.584-3.818c-1.01-1.008-2.401-1.585-3.819-1.585c-1.427,0-2.821,0.576-3.818,1.585
		c-1.008,1.008-1.585,2.401-1.585,3.818c0,1.417,0.576,2.809,1.585,3.818C287.787,135.945,289.18,136.521,290.595,136.521z"/>
	<path style="fill:#4F413B;" d="M260.822,80.863c1.429,0,2.821-0.576,3.818-1.585c1.01-1.008,1.585-2.401,1.585-3.818
		s-0.576-2.809-1.585-3.818c-0.996-1.008-2.388-1.585-3.818-1.585c-1.417,0-2.809,0.576-3.818,1.585
		c-1.008,1.008-1.585,2.401-1.585,3.818c0,1.429,0.576,2.821,1.585,3.818C258.013,80.286,259.405,80.863,260.822,80.863z"/>
	<path style="fill:#4F413B;" d="M260.822,183.584c-1.417,0-2.809,0.588-3.818,1.585c-1.008,1.008-1.585,2.401-1.585,3.83
		c0,1.417,0.576,2.809,1.585,3.818c1.008,0.996,2.401,1.573,3.818,1.573c1.429,0,2.821-0.576,3.818-1.573
		c1.01-1.008,1.585-2.401,1.585-3.818c0-1.429-0.576-2.821-1.585-3.83C263.642,184.172,262.251,183.584,260.822,183.584z"/>
	<path style="fill:#4F413B;" d="M297.091,183.596c-1.417,0-2.809,0.576-3.818,1.573c-1.008,1.008-1.585,2.401-1.585,3.83
		c0,1.417,0.576,2.809,1.585,3.818c1.008,1.008,2.401,1.585,3.818,1.585c1.429,0,2.821-0.576,3.818-1.585
		c1.01-1.008,1.585-2.401,1.585-3.818c0-1.429-0.576-2.821-1.585-3.83C299.912,184.172,298.52,183.596,297.091,183.596z"/>
	<path style="fill:#4F413B;" d="M260.822,264.191c1.429,0,2.821-0.576,3.818-1.585c1.01-1.008,1.585-2.389,1.585-3.818
		c0-1.417-0.576-2.809-1.585-3.818c-0.996-1.008-2.388-1.585-3.818-1.585c-1.417,0-2.809,0.576-3.818,1.585
		c-1.008,1.008-1.585,2.401-1.585,3.818c0,1.429,0.576,2.821,1.585,3.818C258.013,263.615,259.405,264.191,260.822,264.191z"/>
	<path style="fill:#4F413B;" d="M189.892,266.04c1.008-1.008,1.585-2.401,1.585-3.818c0-1.417-0.576-2.809-1.585-3.818
		c-1.008-1.008-2.401-1.585-3.818-1.585c-1.418,0-2.809,0.576-3.819,1.585c-1.008,1.008-1.584,2.401-1.584,3.818
		c0,1.417,0.576,2.809,1.584,3.818c1.01,1.008,2.401,1.585,3.819,1.585C187.491,267.625,188.883,267.048,189.892,266.04z"/>
	<path style="fill:#4F413B;" d="M297.091,307.904c1.429,0,2.821-0.576,3.818-1.573c1.01-1.008,1.585-2.401,1.585-3.83
		c0-1.417-0.576-2.809-1.585-3.818c-0.996-1.008-2.388-1.585-3.818-1.585c-1.417,0-2.809,0.576-3.818,1.585
		c-1.008,1.008-1.585,2.401-1.585,3.818c0,1.429,0.576,2.821,1.585,3.83C294.282,307.328,295.675,307.904,297.091,307.904z"/>
	<path style="fill:#4F413B;" d="M222.692,307.904c1.417,0,2.809-0.576,3.818-1.585c1.008-0.996,1.585-2.389,1.585-3.818
		c0-1.417-0.576-2.809-1.585-3.818c-1.008-1.008-2.401-1.585-3.818-1.585c-1.429,0-2.823,0.576-3.83,1.585
		c-0.996,1.008-1.573,2.401-1.573,3.818c0,1.429,0.576,2.821,1.573,3.818C219.869,307.328,221.262,307.904,222.692,307.904z"/>
	<path style="fill:#4F413B;" d="M219.69,340.26c1.417,0,2.809-0.576,3.818-1.585s1.585-2.389,1.585-3.818
		c0-1.417-0.576-2.809-1.585-3.818c-1.008-1.008-2.401-1.585-3.818-1.585c-1.429,0-2.809,0.576-3.83,1.585
		c-0.996,1.008-1.573,2.401-1.573,3.818c0,1.417,0.576,2.809,1.573,3.818C216.868,339.683,218.26,340.26,219.69,340.26z"/>
	<path style="fill:#4F413B;" d="M193.144,331.399c1.43,0,2.823-0.576,3.831-1.585c0.996-1.008,1.584-2.401,1.584-3.818
		c0-1.429-0.587-2.821-1.584-3.818c-1.008-1.008-2.401-1.585-3.831-1.585c-1.417,0-2.809,0.576-3.818,1.585
		c-1.008,0.996-1.585,2.389-1.585,3.818c0,1.417,0.576,2.809,1.585,3.818C190.336,330.823,191.729,331.399,193.144,331.399z"/>
	<path style="fill:#4F413B;" d="M263.223,387.923c-1.417,0-2.809,0.576-3.818,1.573c-1.008,1.008-1.585,2.401-1.585,3.83
		c0,1.417,0.576,2.809,1.585,3.818c1.008,1.008,2.401,1.585,3.818,1.585c1.429,0,2.809-0.576,3.83-1.585
		c0.996-1.008,1.573-2.401,1.573-3.818s-0.576-2.821-1.573-3.83C266.043,388.499,264.652,387.923,263.223,387.923z"/>
	<path style="fill:#4F413B;" d="M285.397,361.366c-1.427,0-2.821,0.588-3.829,1.585c-0.996,1.008-1.574,2.401-1.574,3.818
		c0,1.429,0.576,2.821,1.574,3.83c1.008,0.996,2.401,1.573,3.829,1.573c1.418,0,2.809-0.576,3.819-1.573
		c1.008-1.008,1.584-2.401,1.584-3.83c0-1.417-0.576-2.809-1.584-3.818C288.206,361.954,286.814,361.366,285.397,361.366z"/>
	<path style="fill:#4F413B;" d="M328.499,337.306c1.417,0,2.821-0.576,3.818-1.585c1.008-1.008,1.585-2.401,1.585-3.818
		c0-1.417-0.576-2.809-1.585-3.818c-0.996-1.008-2.389-1.585-3.818-1.585c-1.429,0-2.821,0.576-3.818,1.585
		c-1.01,1.008-1.585,2.401-1.585,3.818c0,1.417,0.576,2.809,1.585,3.818S327.082,337.306,328.499,337.306z"/>
	<path style="fill:#4F413B;" d="M436.302,350.986c-3.058-2.296-8.426-3.973-16.606,1.084c-5.313,3.284-9.551,7.573-12.699,12.804
		c-3.148-5.231-7.385-9.521-12.696-12.803c-8.182-5.059-13.544-3.381-16.603-1.085c-1.262,0.947-2.262,2.127-3.057,3.444
		c-9.702-18.532-18.681-38.741-25.662-55.503c4.91-0.861,10.076-2.113,14.957-3.668c16.503-5.255,19.077-10.264,19.577-13.573
		c0.372-2.458-0.114-6.806-6.993-9.469c-19.824-22.553-41.973-70.546-55.093-101.507c5.445-1.394,8.842-4.638,11.702-7.378
		c3.185-3.053,5.29-5.07,9.978-5.07c2.983,0,5.403-2.419,5.403-5.403c0-0.016-0.005-0.03-0.005-0.046
		c0.018-1.753-0.813-3.48-2.375-4.535c-40.212-27.152-75.824-110.768-79.9-120.578v-6.311h5.181c2.983,0,5.403-2.419,5.403-5.403
		s-2.419-5.403-5.403-5.403h-5.181V5.403c0-2.983-2.419-5.403-5.403-5.403c-2.983,0-5.403,2.419-5.403,5.403v5.182h-5.182
		c-2.983,0-5.403,2.419-5.403,5.403s2.419,5.403,5.403,5.403h5.182v6.311c-4.076,9.81-39.688,93.425-79.901,120.578
		c-1.562,1.054-2.392,2.782-2.375,4.535c0,0.016-0.005,0.03-0.005,0.046c0,2.982,2.417,5.4,5.399,5.403v0.001
		c0.004,0,0.008-0.001,0.012-0.001c4.68,0.002,6.782,2.018,9.965,5.069c2.86,2.741,6.26,5.987,11.707,7.379
		c-13.313,31.416-35.927,80.394-55.97,102.507c-2.004,2.211-1.836,5.628,0.375,7.631c1.034,0.938,2.333,1.4,3.627,1.4h0.001
		c7.208,0,10.655,3.304,15.02,7.489c2.721,2.608,5.814,5.568,10.02,7.679c-19.915,48.026-38.968,83.355-53.862,99.788
		c-2.004,2.21-1.836,5.627,0.375,7.631c1.034,0.935,2.329,1.397,3.622,1.399v0.001c0.061,0,0.124-0.011,0.185-0.013
		c9.151,0.054,13.495,4.209,18.979,9.464c6.101,5.848,13.015,12.475,26.635,12.475s20.535-6.627,26.635-12.474
		c5.521-5.291,9.882-9.47,19.161-9.47c9.277,0,13.635,4.179,19.155,9.47c0.575,0.552,1.166,1.111,1.761,1.67h-36.334
		c-2.983,0-5.403,2.419-5.403,5.403v26.954h-42.567c0.397-0.926,0.755-1.922,1.059-3.013c1.671-6.018,1.773-17.48-5.068-22.617
		c-3.25-2.441-8.972-4.203-17.773,1.235c-6.104,3.773-10.923,8.753-14.418,14.876c-3.496-6.124-8.315-11.104-14.419-14.875
		c-8.799-5.44-14.52-3.675-17.771-1.237c-6.842,5.137-6.738,16.6-5.066,22.618c0.304,1.091,0.662,2.087,1.058,3.012h-3.773
		c-2.983,0-5.403,2.419-5.403,5.403v51.478c0,2.983,2.419,5.403,5.403,5.403h360.899c2.983,0,5.403-2.419,5.403-5.403V379.265
		c0-1.645-0.75-3.099-1.909-4.089c0.457-0.983,0.864-2.057,1.197-3.254C442.603,366.366,442.675,355.77,436.302,350.986z
		 M105.24,501.195H80.872v-17.118h24.368V501.195z M105.24,473.272H80.872V460.52h24.368V473.272z M98.985,449.715
		c-5.946,0-8.911-0.582-10.389-5.904c-1.211-4.357-0.383-9.938,1.143-11.084c0.486-0.371,2.388-0.201,5.601,1.786
		c7.296,4.508,10.901,10.588,12.765,15.203h-9.12V449.715z M384.185,359.626c0.122-0.095,1.476-0.194,4.433,1.635
		c6.01,3.715,9.189,8.643,10.928,12.601H389.34c-3.276-0.269-5.005-1.286-5.99-4.831
		C382.276,365.162,383.109,360.433,384.185,359.626z M358.024,265.83c-15.439-5.849-29.922-12.815-43.329-20.32
		c5.111-3.407,8.487-9.219,8.487-15.808c0-10.475-8.522-18.998-18.994-18.998c-9.635,0-17.598,7.219-18.815,16.528
		c-34.242-23.59-58.102-48.071-67.977-58.95c2.414-1.497,4.318-3.314,6.027-4.951c3.184-3.052,5.287-5.069,9.973-5.069
		c4.685,0,6.788,2.017,9.973,5.069c3.754,3.597,8.426,8.074,17.453,8.074c9.026,0,13.697-4.477,17.449-8.074
		c3.185-3.053,5.29-5.07,9.977-5.07c4.686,0,6.79,2.017,9.977,5.07c2.817,2.699,6.149,5.892,11.451,7.32
		C322.693,201.774,340.438,240.227,358.024,265.83z M312.377,229.702c0,4.514-3.674,8.187-8.189,8.187
		c-4.517,0-8.189-3.673-8.189-8.187c0-4.518,3.674-8.193,8.189-8.193S312.377,225.184,312.377,229.702z M260.827,42.478
		c4.825,10.815,12.879,27.839,23.181,45.866c-3.019,3.422-6.356,6.792-9.992,10.075c-3.42-3.306-8.067-5.353-13.187-5.353
		c-10.475,0-18.996,8.521-18.996,18.994c0,2.887,0.666,5.616,1.825,8.069c-15.011,8.681-30.228,15.181-42.307,19.677
		C228.831,110.135,251.222,64.005,260.827,42.478z M269.016,112.06c0,4.515-3.674,8.189-8.189,8.189c-4.517,0-8.19-3.674-8.19-8.189
		c0-4.515,3.675-8.189,8.19-8.189S269.016,107.544,269.016,112.06z M195.997,155.531c-0.579-0.555-1.184-1.131-1.82-1.708
		c13.727-4.535,35.445-12.808,56.883-25.5c2.859,1.723,6.191,2.733,9.766,2.733c10.474,0,18.994-8.521,18.994-18.994
		c0-1.36-0.15-2.686-0.424-3.966c3.722-3.252,7.176-6.601,10.355-10.012c11.929,19.619,26.265,39.295,41.791,52.581
		c-2.351,1.48-4.214,3.262-5.891,4.87c-3.185,3.052-5.29,5.069-9.977,5.069c-4.687,0-6.79-2.017-9.977-5.07
		c-3.753-3.597-8.424-8.074-17.452-8.074c-9.027,0-13.699,4.477-17.453,8.074c-3.184,3.052-5.287,5.069-9.973,5.069
		s-6.79-2.017-9.977-5.07c-3.752-3.597-8.423-8.074-17.449-8.074c-9.026,0-13.697,4.477-17.45,8.074
		c-3.184,3.053-5.289,5.07-9.974,5.07C201.286,160.601,199.182,158.584,195.997,155.531z M170.757,281.938
		c-3.219-3.085-6.969-6.658-12.458-8.739c18.285-23.809,37.289-63.895,51.43-97.21c18.031,20.008,76.389,78.888,160.086,105.399
		c-7.088,3.564-22.992,8.039-33.948,8.039c-7.211,0-10.66-3.305-15.026-7.489c-4.877-4.675-10.948-10.493-22.501-10.493
		c-11.55,0-17.621,5.818-22.496,10.493c-4.366,4.184-7.815,7.489-15.025,7.489c-7.209,0-10.656-3.305-15.022-7.489
		c-4.877-4.676-10.947-10.494-22.498-10.494s-17.622,5.819-22.499,10.494c-4.365,4.184-7.812,7.489-15.022,7.489
		C178.569,289.427,175.122,286.122,170.757,281.938z M136.555,392.967c17.269-24.28,34.621-62.086,47.3-92.796
		c0.625,0.037,1.263,0.061,1.923,0.061c11.551,0,17.622-5.819,22.499-10.494c4.365-4.184,7.812-7.489,15.022-7.489
		c7.208,0,10.655,3.304,15.02,7.489c4.877,4.675,10.947,10.494,22.499,10.494c11.553,0,17.623-5.819,22.501-10.494
		c4.365-4.184,7.812-7.488,15.02-7.488c7.211,0,10.66,3.305,15.026,7.489c3.865,3.704,8.488,8.114,15.982,9.791
		c-14.806,15.157-31.815,28.065-49.58,39.026c-0.539-9.994-8.817-17.964-18.942-17.964c-10.475,0-18.996,8.52-18.996,18.994
		c0,6.363,3.156,11.991,7.973,15.441c-12.952,6.343-25.878,11.779-38.261,16.412c0.379-1.496,0.604-3.053,0.604-4.664
		c0-10.475-8.522-18.998-18.994-18.998c-10.474,0-18.994,8.523-18.994,18.998c0,6.01,2.815,11.368,7.188,14.851
		C162.805,387.226,147.053,390.841,136.555,392.967z M269.016,339.586c0,4.517-3.674,8.19-8.189,8.19c-4.517,0-8.19-3.674-8.19-8.19
		c0-4.515,3.675-8.189,8.19-8.189C265.342,331.397,269.016,335.071,269.016,339.586z M201.34,366.773
		c0,4.514-3.673,8.187-8.189,8.187c-4.517,0-8.189-3.673-8.189-8.187c0-4.518,3.674-8.193,8.189-8.193
		C197.667,358.582,201.34,362.257,201.34,366.773z M135.539,434.512c3.212-1.986,5.112-2.154,5.604-1.785
		c1.525,1.145,2.353,6.726,1.143,11.084c-1.478,5.322-4.442,5.904-10.389,5.904h-9.122
		C124.638,445.101,128.243,439.022,135.539,434.512z M255.725,501.195h-139.68v-17.118h139.681v17.118H255.725z M255.725,473.272
		h-139.68V460.52h139.681v12.751H255.725z M279.99,501.195h-13.46v-46.076c0-2.983-2.419-5.403-5.403-5.403h-56.117v-21.552h74.98
		V501.195z M303.59,501.195h-12.793v-73.031h12.793V501.195z M349.629,501.195h-35.235v-17.118h35.235V501.195z M349.629,473.272
		h-35.235V460.52h35.235V473.272z M349.629,449.715h-35.235v-26.954c0-2.983-2.419-5.403-5.403-5.403h-23.298
		c0.594-0.558,1.181-1.118,1.758-1.669c5.521-5.291,9.881-9.47,19.16-9.47c9.28,0,13.641,4.179,19.164,9.47
		c5.67,5.433,12.051,11.533,23.854,12.37V449.715z M349.629,379.265v37.947c-7.423-0.761-11.443-4.593-16.38-9.324
		c-6.101-5.847-13.018-12.474-26.638-12.474s-20.536,6.627-26.636,12.475c-5.521,5.291-9.881,9.47-19.159,9.47
		c-9.278,0-13.637-4.179-19.159-9.47c-6.1-5.847-13.014-12.474-26.632-12.474c-13.621,0-20.536,6.627-26.636,12.475
		c-5.521,5.291-9.881,9.47-19.159,9.47c-9.277,0-13.636-4.179-19.156-9.47c-1.873-1.795-3.824-3.661-6.019-5.387
		c14.872-3.167,36.884-8.641,61.939-17.429c39.748-13.941,94.281-39.085,133.58-80.622c8.871,21.203,20.787,47.572,33.392,69.411
		h-17.934C352.048,373.863,349.629,376.282,349.629,379.265z M405.18,501.195h-44.746v-91.77h44.746V501.195z M405.18,398.62
		h-44.746v-13.953h44.746V398.62z M430.966,501.195h-14.981v-91.77h14.981V501.195z M430.966,398.62h-14.981v-13.953h14.981V398.62z
		 M430.649,369.03c-0.984,3.547-2.713,4.563-5.99,4.832h-10.204c1.734-3.957,4.908-8.884,10.923-12.601
		c2.956-1.826,4.311-1.728,4.437-1.634C430.889,360.433,431.722,365.162,430.649,369.03z"/>
</g>
<g>
</g>
<g>
</g>
<g>
</g>
<g>
</g>
<g>
</g>
<g>
</g>
<g>
</g>
<g>
</g>
<g>
</g>
<g>
</g>
<g>
</g>
<g>
</g>
<g>
</g>
<g>
</g>
<g>
</g>
</svg>
