<?xml version="1.0" encoding="iso-8859-1"?>
<!-- Generator: Adobe Illustrator 19.0.0, SVG Export Plug-In . SVG Version: 6.00 Build 0)  -->
<svg version="1.1" id="Layer_1" xmlns="http://www.w3.org/2000/svg" xmlns:xlink="http://www.w3.org/1999/xlink" x="0px" y="0px"
	 viewBox="0 0 299.637 299.637" style="enable-background:new 0 0 299.637 299.637;" xml:space="preserve">
<g>
	<path style="fill:#E4E7E7;" d="M251.629,118.432c-5.983-32.735-34.571-57.568-69.038-57.568c-24.214,0-45.563,12.257-58.186,30.9
		c-3.661-1.751-7.706-2.809-12.042-2.809c-15.516,0-28.091,12.575-28.091,28.091l0.019,0.234l-4.701-0.234
		c-28.437,0-51.5,23.063-51.5,51.5c0,1.742,0.094,3.436,0.262,5.131C12.36,175.85,0,189.418,0,206.001
		c0,18.109,14.673,32.773,32.773,32.773h206c33.634,0,60.864-27.248,60.864-60.864C299.636,148.704,279.046,124.322,251.629,118.432
		z"/>
</g>
<g>
</g>
<g>
</g>
<g>
</g>
<g>
</g>
<g>
</g>
<g>
</g>
<g>
</g>
<g>
</g>
<g>
</g>
<g>
</g>
<g>
</g>
<g>
</g>
<g>
</g>
<g>
</g>
<g>
</g>
</svg>
