<?xml version="1.0" encoding="iso-8859-1"?>
<!-- Generator: Adobe Illustrator 19.0.0, SVG Export Plug-In . SVG Version: 6.00 Build 0)  -->
<svg version="1.1" id="Layer_1" xmlns="http://www.w3.org/2000/svg" xmlns:xlink="http://www.w3.org/1999/xlink" x="0px" y="0px"
	 viewBox="0 0 299.637 299.637" style="enable-background:new 0 0 299.637 299.637;" xml:space="preserve">
<g>
	<path style="fill:#425864;" d="M110.088,145.764c-30.123,0-54.534-23.868-54.534-53.307c0-16.471,7.641-31.181,19.636-40.957
		C38.728,52.184,9.364,81.22,9.364,117.017c0,36.209,30.048,65.574,67.128,65.574c30.048,0,55.48-19.298,64.038-45.901
		C131.831,142.412,121.362,145.764,110.088,145.764z"/>
	<path style="fill:#E4E7E7;" d="M251.62,127.795c-5.974-32.735-34.552-57.568-69.029-57.568c-24.214,0-45.563,12.257-58.195,30.9
		c-3.661-1.751-7.697-2.809-12.032-2.809c-15.516,0-28.091,12.575-28.091,28.091l0.019,0.234l-4.701-0.234
		c-28.437,0-51.5,23.063-51.5,51.5c0,1.742,0.094,3.436,0.262,5.131C12.36,185.213,0,198.781,0,215.364
		c0,18.109,14.673,32.773,32.773,32.773h206c33.625,0,60.864-27.248,60.864-60.864C299.636,158.068,279.055,133.685,251.62,127.795z
		"/>
</g>
<g>
</g>
<g>
</g>
<g>
</g>
<g>
</g>
<g>
</g>
<g>
</g>
<g>
</g>
<g>
</g>
<g>
</g>
<g>
</g>
<g>
</g>
<g>
</g>
<g>
</g>
<g>
</g>
<g>
</g>
</svg>
