<?xml version="1.0" encoding="iso-8859-1"?>
<!-- Generator: Adobe Illustrator 19.1.0, SVG Export Plug-In . SVG Version: 6.00 Build 0)  -->
<svg version="1.1" id="Capa_1" xmlns="http://www.w3.org/2000/svg" xmlns:xlink="http://www.w3.org/1999/xlink" x="0px" y="0px"
	 viewBox="0 0 216.291 216.291" style="enable-background:new 0 0 216.291 216.291;" xml:space="preserve">
<g>
	<g id="group-73svg">
		<path id="path-1_139_" style="fill:#FF3A2F;" d="M134.327,164.329c0.133,0,0.273-0.007,0.406-0.023
			c15.658-1.546,28.301-8.24,36.547-19.348c9.872-13.3,12.848-32.447,8.373-53.916C174.6,66.68,156.475,39.804,138.95,13.809
			c-2.757-4.1-5.49-8.154-8.13-12.138c-1.484-2.235-5.216-2.22-6.685,0c-2.693,4.077-5.489,8.216-8.308,12.402
			c-5.632,8.355-11.394,16.903-16.752,25.452L134.327,164.329z"/>
		<path id="path-2_139_" style="opacity:0.35;fill:#020403;enable-background:new    ;" d="M116.615,31.796
			c-2.15-3.191-4.247-6.325-6.331-9.452c-3.81,5.696-7.603,11.427-11.209,17.181l35.252,124.804c0.133,0,0.273-0.008,0.406-0.023
			c5.672-0.56,10.934-1.817,15.75-3.693c8.598-13.175,11.076-31.225,6.843-51.578C152.257,84.689,134.139,57.797,116.615,31.796z"/>
		<path id="path-3_139_" style="fill:#2476FF;" d="M91.491,186.053c-18.102,0-32.752-6.188-42.381-17.894
			c-11.011-13.393-14.494-33.182-9.793-55.733C44.37,88.08,62.48,61.211,79.996,35.224c2.772-4.109,5.506-8.178,8.153-12.169
			c1.468-2.228,5.216-2.228,6.685,0c2.632,3.984,5.365,8.03,8.122,12.122c17.525,26.002,35.643,52.895,40.711,77.241
			c4.693,22.567,1.209,42.364-9.808,55.748C124.236,179.871,109.586,186.053,91.491,186.053z"/>
		<path id="path-4_138_" style="opacity:0.25;fill:#020403;enable-background:new    ;" d="M143.667,112.418
			c-5.068-24.346-23.186-51.239-40.711-77.241c-2.757-4.092-5.49-8.138-8.121-12.122c-1.469-2.228-5.217-2.228-6.684,0
			c-1.506,2.268-3.083,4.604-4.635,6.915c17.193,25.516,34.695,51.821,39.663,75.683c4.694,22.566,1.21,42.364-9.809,55.748
			c-9.621,11.705-24.272,17.886-42.367,17.886c-3.334,0-6.509-0.28-9.601-0.696c8.347,4.897,18.501,7.462,30.089,7.462
			c18.095,0,32.745-6.182,42.368-17.887C144.876,154.782,148.36,134.985,143.667,112.418z"/>
		<path id="path-5_138_" style="fill:#FFFFFF;" d="M68.952,161.521c-2.866,0-5.542-1.265-7.345-3.472
			c-7.874-9.578-10.184-24.641-6.485-42.399c0.611-2.925,3.519-4.808,6.446-4.203c2.953,0.604,4.854,3.463,4.244,6.388
			c-2.954,14.188-1.571,25.843,3.894,32.923c2.658,0.362,4.705,2.621,4.705,5.355C74.411,159.1,71.966,161.521,68.952,161.521z"/>
		<path id="path-6_136_" style="fill:#2476FF;" d="M114.676,194.001h14.818c2.857,0,5.174,1.454,5.174,3.247
			s-2.317,3.246-5.174,3.246h-0.69c-2.856,0-5.173,1.453-5.173,3.247c0,1.793,2.317,3.248,5.173,3.248h31.854
			c2.857,0,5.171,1.453,5.171,3.246s-2.314,3.247-5.171,3.247h-38.28H80.305c-2.857,0-5.172-1.454-5.172-3.247
			s2.315-3.246,5.172-3.246h8.841c2.857,0,5.172-1.455,5.172-3.248c0-1.794-2.315-3.247-5.172-3.247H47.073
			c-2.858,0-5.172-1.453-5.172-3.246s2.314-3.247,5.172-3.247h9.944H114.676z"/>
		<path id="path-7_136_" style="fill:#FF3A2F;" d="M27.427,163.383h4.772c0.92,0,1.665,0.799,1.665,1.783
			c0,0.985-0.745,1.784-1.665,1.784h-0.223c-0.92,0-1.666,0.798-1.666,1.784c0,0.985,0.746,1.783,1.666,1.783h10.255
			c0.921,0,1.666,0.798,1.666,1.783s-0.745,1.785-1.666,1.785H29.907H16.362c-0.92,0-1.666-0.8-1.666-1.785s0.746-1.783,1.666-1.783
			h2.845c0.92,0,1.666-0.798,1.666-1.783c0-0.986-0.746-1.784-1.666-1.784H5.662c-0.92,0-1.666-0.799-1.666-1.784
			c0-0.984,0.746-1.783,1.666-1.783h3.201H27.427z"/>
		<path id="path-8_133_" style="fill:#2476FF;" d="M184.504,170.149h4.771c0.919,0,1.665,0.798,1.665,1.783
			c0,0.984-0.746,1.783-1.665,1.783h-0.222c-0.92,0-1.666,0.799-1.666,1.785c0,0.985,0.746,1.783,1.666,1.783h10.255
			c0.92,0,1.666,0.798,1.666,1.783s-0.746,1.784-1.666,1.784h-12.324h-13.546c-0.92,0-1.666-0.799-1.666-1.784
			s0.746-1.783,1.666-1.783h2.846c0.92,0,1.666-0.798,1.666-1.783c0-0.986-0.746-1.785-1.666-1.785h-13.546
			c-0.92,0-1.665-0.799-1.665-1.783c0-0.985,0.745-1.783,1.665-1.783h3.202H184.504z"/>
		<path id="path-9_127_" style="fill:#FF3A2F;" d="M206.388,216.291c3.262,0,5.906-1.66,5.906-3.707s-2.644-3.706-5.906-3.706
			h-18.101c-3.261,0-5.906,1.659-5.906,3.706s2.645,3.707,5.906,3.707H206.388z"/>
	</g>
</g>
<g>
</g>
<g>
</g>
<g>
</g>
<g>
</g>
<g>
</g>
<g>
</g>
<g>
</g>
<g>
</g>
<g>
</g>
<g>
</g>
<g>
</g>
<g>
</g>
<g>
</g>
<g>
</g>
<g>
</g>
</svg>
