<?xml version="1.0" encoding="iso-8859-1"?>
<!-- Generator: Adobe Illustrator 19.0.0, SVG Export Plug-In . SVG Version: 6.00 Build 0)  -->
<svg version="1.1" id="Layer_1" xmlns="http://www.w3.org/2000/svg" xmlns:xlink="http://www.w3.org/1999/xlink" x="0px" y="0px"
	 viewBox="0 0 433.6 433.6" style="enable-background:new 0 0 433.6 433.6;" xml:space="preserve">
<circle style="fill:#FF9100;" cx="216.8" cy="216.8" r="216.8"/>
<path style="fill:#FF7900;" d="M63.2,64c84.8-84.8,221.6-84.8,306.4,0s84.8,221.6,0,306.4"/>
<g>
	<polygon style="fill:#FFFBCA;" points="312.8,152.8 312.8,88.8 128.8,88.8 128.8,360.8 192.8,360.8 192.8,248.8 264.8,248.8 
		264.8,184.8 192.8,184.8 192.8,152.8 	"/>
	<circle style="fill:#FFFBCA;" cx="84.8" cy="109.6" r="20"/>
</g>
<path style="fill:#E8DD91;" d="M128.8,230.4v130.4h64v-112h72v-64l0,0C219.2,216.8,168.8,230.4,128.8,230.4z"/>
<path style="fill:#FFBC00;" d="M352.8,300.8V99.2c0-12-7.2-13.6-16-13.6s-16,1.6-16,13.6v202.4c-8,5.6-18.4,16.8-18.4,29.6
	c0,18.4,14.4,33.6,33.6,33.6s34.4-15.2,34.4-33.6C369.6,317.6,360.8,306.4,352.8,300.8z"/>
<g>
</g>
<g>
</g>
<g>
</g>
<g>
</g>
<g>
</g>
<g>
</g>
<g>
</g>
<g>
</g>
<g>
</g>
<g>
</g>
<g>
</g>
<g>
</g>
<g>
</g>
<g>
</g>
<g>
</g>
</svg>
