<?xml version="1.0" encoding="UTF-8" standalone="no"?>
<svg
   xmlns:dc="http://purl.org/dc/elements/1.1/"
   xmlns:cc="http://creativecommons.org/ns#"
   xmlns:rdf="http://www.w3.org/1999/02/22-rdf-syntax-ns#"
   xmlns:svg="http://www.w3.org/2000/svg"
   xmlns="http://www.w3.org/2000/svg"
   version="1.1"
   id="svg5765"
   viewBox="0 0 383.12089 396.68606"
   height="111.95362mm"
   width="108.12523mm">
  <defs
     id="defs5767" />
  <metadata
     id="metadata5770">
    <rdf:RDF>
      <cc:Work
         rdf:about="">
        <dc:format>image/svg+xml</dc:format>
        <dc:type
           rdf:resource="http://purl.org/dc/dcmitype/StillImage" />
        <dc:title></dc:title>
      </cc:Work>
    </rdf:RDF>
  </metadata>
  <g
     transform="translate(-183.43955,-334.01833)"
     id="layer1">
    <path
       id="path266"
       style="fill:#00b3aa;fill-opacity:1;fill-rule:evenodd;stroke:none"
       d="m 375.00472,334.01833 -0.01,0 c -10.14375,0 -18.44,8.30125 -18.44,18.45 l 0,17.17125 -30.82875,-20.35375 c -6.955,-4.59875 -16.39875,-2.66125 -20.99875,4.29125 l 0,0.002 c -4.59,6.95625 -2.66,16.40625 4.29625,20.99875 l 47.53125,31.3875 0,24.2525 -21.26375,-14.03875 c -5.60375,-3.7025 -13.22,-2.14375 -16.91625,3.46125 l -0.0112,0.002 c -3.69625,5.6075 -2.14125,13.22125 3.46375,16.9225 l 34.7275,22.93 0,40.91375 -35.4375,-20.455 -2.49875,-41.5375 c -0.3963,-6.70875 -6.2138,-11.85875 -12.9263,-11.4575 -6.7025,0.40125 -11.86,6.22 -11.45375,12.92375 l 1.5225,25.43125 -20.99751,-12.12375 -3.42375,-56.85875 c -0.49625,-8.31875 -7.71625,-14.71875 -16.0325,-14.215 l 0,-0.004 c -8.32625,0.5 -14.72375,7.71875 -14.22625,16.03625 l 2.225,36.8725 -14.8775,-8.5825 c -8.7825,-5.075 -20.125,-2.03875 -25.2025,6.7525 l 0,0.002 c -5.07625,8.7875 -2.03,20.1275 6.7525,25.2025 l 14.86625,8.585 -33.0325,16.5163 c -7.4625,3.72375 -10.50875,12.875 -6.78125,20.33375 3.72625,7.455 12.87375,10.5075 20.3275,6.78 l 50.95375,-25.4675 21,12.1275 -22.7875,11.39125 c -6.01,3.0025 -8.4675,10.375 -5.4625,16.3825 l 0,0.006 c 3.005,6.00875 10.3775,8.46625 16.38875,5.4625 l 37.21501,-18.605 35.42875,20.45625 -35.42875,20.45275 -37.21501,-18.6025 c -6.01125,-3.00625 -13.38375,-0.5475 -16.38875,5.4625 l 0,0.002 c -3.005,6.00875 -0.5475,13.38375 5.4625,16.3875 l 22.7975,11.3875 -21.01,12.12625 -50.94375,-25.4675 c -7.46375,-3.725 -16.61125,-0.67125 -20.3375,6.78375 -3.7275,7.45875 -0.68125,16.61 6.78125,20.33375 l 33.0425,16.5125 -14.87625,8.59 c -8.7825,5.0725 -11.82,16.4125 -6.7525,25.2025 5.0775,8.79 16.42,11.82875 25.2025,6.75125 l 14.8775,-8.5825 -2.225,36.8725 c -0.4975,8.31875 5.9,15.53625 14.22625,16.03875 l 0,-0.002 c 8.31625,0.49875 15.53625,-5.8975 16.0325,-14.21625 l 3.42375,-56.855 20.99751,-12.1275 -1.5225,25.42875 c -0.40625,6.70625 4.75125,12.5225 11.45375,12.92375 l 0.0112,0.005 c 6.70125,0.39875 12.51875,-4.755 12.925,-11.46125 l 2.4975,-41.53625 35.42875,-20.45375 0,40.9075 -34.7275,22.93 c -5.605,3.70375 -7.16,11.31625 -3.46375,16.9225 l 0.0112,0.002 c 3.69625,5.6075 11.3125,7.16375 16.91625,3.46 l 21.26375,-14.0375 0,24.2525 -47.53125,31.38625 c -6.95625,4.595 -8.88625,14.04625 -4.29625,21.00125 l 0,0.002 c 4.6,6.95375 14.04375,8.8875 20.99875,4.29375 l 30.82875,-20.3575 0,17.17375 c 0,10.14625 8.29625,18.4475 18.44,18.4475 l 0.01,0 c 10.14375,0 18.45,-8.30125 18.45,-18.4475 l 0,-17.17375 30.8175,20.3575 c 6.95625,4.59375 16.41,2.66 21,-4.29375 l 0,-0.002 c 4.6,-6.955 2.66,-16.40625 -4.29625,-21.00125 l -47.52125,-31.38625 0,-24.2525 21.25375,14.0375 c 5.60375,3.70375 13.22,2.1475 16.92625,-3.46 l 0,-0.002 c 3.7075,-5.60625 2.1425,-13.21875 -3.4625,-16.9225 l -34.7175,-22.93 0,-40.9075 35.41875,20.45375 2.4975,41.53375 c 0.40625,6.70875 6.22375,11.8625 12.92625,11.46125 l 0.009,0 c 6.70375,-0.40375 11.86125,-6.22 11.455,-12.92625 l -1.5325,-25.42875 21.00875,12.1275 3.41125,56.8525 c 0.5075,8.32125 7.7275,14.7175 16.04375,14.21875 8.32625,-0.5 14.72375,-7.7175 14.21625,-16.03625 l -2.21375,-36.8725 14.87625,8.5825 c 8.7825,5.0775 20.12625,2.03875 25.2025,-6.75125 5.0675,-8.79 2.03,-20.13 -6.7525,-25.2025 l -14.87625,-8.59 33.04125,-16.5125 c 7.46375,-3.72375 10.51,-12.875 6.78375,-20.33375 -3.7275,-7.455 -12.88625,-10.50875 -20.33875,-6.78375 l -50.945,25.4675 -20.99875,-12.12875 22.78625,-11.385 c 6.0025,-3.00375 8.46875,-10.37875 5.46375,-16.3875 l 0,-0.005 c -3.005,-6.0075 -10.37875,-8.46625 -16.38875,-5.4625 l -37.22625,18.605 -35.41625,-20.4525 35.41625,-20.45625 37.22625,18.60125 c 6.01,3.0075 13.38375,0.55 16.38875,-5.45875 l 0,-0.006 c 3.005,-6.005 0.54875,-13.38 -5.46375,-16.3825 l -22.78625,-11.39125 20.99875,-12.1275 50.945,25.4675 c 7.46375,3.7275 16.61125,0.6725 20.33875,-6.78 3.72625,-7.45875 0.68,-16.61 -6.78375,-20.33375 l -33.04125,-16.51625 14.87625,-8.585 c 8.7825,-5.075 11.83,-16.415 6.7525,-25.2025 l 0,-0.002 c -5.07625,-8.79125 -16.42,-11.8275 -25.2025,-6.7525 l -14.87625,8.5825 2.22375,-36.87 c 0.4975,-8.32 -5.9,-15.53875 -14.22625,-16.03875 l 0,0.004 c -8.31625,-0.50375 -15.53625,5.89625 -16.0325,14.215 l -3.4225,56.85625 -21.00875,12.12625 1.5325,-25.43125 c 0.40625,-6.70375 -4.75125,-12.5225 -11.455,-12.92375 l -0.009,-0.002 c -6.7025,-0.40125 -12.52,4.75125 -12.92625,11.46 l -2.4875,41.5375 -35.42875,20.45 0,-40.90875 34.7175,-22.93 c 5.605,-3.70125 7.17,-11.315 3.4625,-16.9225 l 0,-0.002 c -3.70625,-5.605 -11.3225,-7.16375 -16.92625,-3.46125 l -21.25365,14.03845 0,-24.2525 47.52125,-31.3875 c 6.95625,-4.5925 8.89625,-14.0425 4.29625,-20.99875 l 0,-0.002 c -4.59,-6.9525 -14.04375,-8.89 -21,-4.29125 l -30.8175,20.35375 0,-17.17125 c 0,-10.14875 -8.30625,-18.45 -18.45,-18.45" />
  </g>
</svg>
