<?xml version="1.0" encoding="UTF-8" standalone="no"?>
<!-- Created with Inkscape (http://www.inkscape.org/) -->

<svg
   xmlns:dc="http://purl.org/dc/elements/1.1/"
   xmlns:cc="http://creativecommons.org/ns#"
   xmlns:rdf="http://www.w3.org/1999/02/22-rdf-syntax-ns#"
   xmlns:svg="http://www.w3.org/2000/svg"
   xmlns="http://www.w3.org/2000/svg"
   xmlns:sodipodi="http://sodipodi.sourceforge.net/DTD/sodipodi-0.dtd"
   xmlns:inkscape="http://www.inkscape.org/namespaces/inkscape"
   width="420.81799"
   height="420.81845"
   viewBox="0 0 420.818 420.81846"
   id="svg4506"
   version="1.1"
   inkscape:version="0.91 r13725"
   sodipodi:docname="HVACfan.svg">
  <defs
     id="defs4508" />
  <sodipodi:namedview
     id="base"
     pagecolor="#ffffff"
     bordercolor="#666666"
     borderopacity="1.0"
     inkscape:pageopacity="0.0"
     inkscape:pageshadow="2"
     inkscape:zoom="0.35"
     inkscape:cx="-387.44814"
     inkscape:cy="204.69496"
     inkscape:document-units="px"
     inkscape:current-layer="layer1"
     showgrid="false"
     units="px"
     fit-margin-top="0"
     fit-margin-left="0"
     fit-margin-right="0"
     fit-margin-bottom="0"
     inkscape:window-width="1244"
     inkscape:window-height="779"
     inkscape:window-x="36"
     inkscape:window-y="21"
     inkscape:window-maximized="1" />
  <metadata
     id="metadata4511">
    <rdf:RDF>
      <cc:Work
         rdf:about="">
        <dc:format>image/svg+xml</dc:format>
        <dc:type
           rdf:resource="http://purl.org/dc/dcmitype/StillImage" />
        <dc:title></dc:title>
      </cc:Work>
    </rdf:RDF>
  </metadata>
  <g
     inkscape:label="Layer 1"
     inkscape:groupmode="layer"
     id="layer1"
     transform="translate(-63.876712,-316.2387)">
    <g
       id="g152"
       transform="matrix(1.25,0,0,-1.25,275.26084,316.59307)">
      <path
         d="m 0,0 c 24.118,0 43.671,-24.441 43.671,-54.589 0,-19.485 -8.168,-36.583 -20.456,-46.242 -7.498,2.677 -15.575,4.139 -23.995,4.139 l 0,96.68 C -0.52,-0.006 -0.26,0 0,0"
         style="fill:#4b499e;fill-opacity:1;fill-rule:evenodd;stroke:none"
         id="path154"
         inkscape:connector-curvature="0" />
    </g>
    <g
       id="g156"
       transform="matrix(1.25,0,0,-1.25,275.26084,316.59307)">
      <path
         d="m 0,0 c 24.118,0 43.671,-24.441 43.671,-54.589 0,-19.485 -8.168,-36.583 -20.456,-46.242 -7.498,2.677 -15.575,4.139 -23.995,4.139 l 0,96.68 C -0.52,-0.006 -0.26,0 0,0 Z"
         style="fill:none;stroke:#4b499e;stroke-width:0.56699997;stroke-linecap:butt;stroke-linejoin:miter;stroke-miterlimit:22.9260006;stroke-dasharray:none;stroke-opacity:1"
         id="path158"
         inkscape:connector-curvature="0" />
    </g>
    <g
       id="g160"
       transform="matrix(1.25,0,0,-1.25,380.15584,345.22217)">
      <path
         d="m 0,0 c 20.89,-12.06 25.601,-43.001 10.526,-69.112 -9.746,-16.88 -25.378,-27.607 -40.856,-29.821 -5.276,6.203 -11.594,11.491 -18.684,15.593 L -0.68,0.38 C -0.453,0.256 -0.225,0.13 0,0"
         style="fill:#4b499e;fill-opacity:1;fill-rule:evenodd;stroke:none"
         id="path162"
         inkscape:connector-curvature="0" />
    </g>
    <g
       id="g164"
       transform="matrix(1.25,0,0,-1.25,380.15584,345.22217)">
      <path
         d="m 0,0 c 20.89,-12.06 25.601,-43.001 10.526,-69.112 -9.746,-16.88 -25.378,-27.607 -40.856,-29.821 -5.276,6.203 -11.594,11.491 -18.684,15.593 L -0.68,0.38 C -0.453,0.256 -0.225,0.13 0,0 Z"
         style="fill:none;stroke:#4b499e;stroke-width:0.56699997;stroke-linecap:butt;stroke-linejoin:miter;stroke-miterlimit:22.9260006;stroke-dasharray:none;stroke-opacity:1"
         id="path166"
         inkscape:connector-curvature="0" />
    </g>
    <g
       id="g168"
       transform="matrix(1.25,0,0,-1.25,456.68596,422.46217)">
      <path
         d="m 0,0 c 12.059,-20.89 0.67,-50.043 -25.44,-65.115 -16.877,-9.744 -35.769,-11.219 -50.28,-5.405 -1.487,8.189 -4.372,15.894 -8.398,22.852 L -0.4,0.668 C -0.264,0.446 -0.13,0.223 0,0"
         style="fill:#4b499e;fill-opacity:1;fill-rule:evenodd;stroke:none"
         id="path170"
         inkscape:connector-curvature="0" />
    </g>
    <g
       id="g172"
       transform="matrix(1.25,0,0,-1.25,456.68596,422.46217)">
      <path
         d="m 0,0 c 12.059,-20.89 0.67,-50.043 -25.44,-65.115 -16.877,-9.744 -35.769,-11.219 -50.28,-5.405 -1.487,8.189 -4.372,15.894 -8.398,22.852 L -0.4,0.668 C -0.264,0.446 -0.13,0.223 0,0 Z"
         style="fill:none;stroke:#4b499e;stroke-width:0.56699997;stroke-linecap:butt;stroke-linejoin:miter;stroke-miterlimit:22.9260006;stroke-dasharray:none;stroke-opacity:1"
         id="path174"
         inkscape:connector-curvature="0" />
    </g>
    <g
       id="g176"
       transform="matrix(1.25,0,0,-1.25,484.34034,527.61957)">
      <path
         d="m 0,0 c 0,-24.12 -24.438,-43.673 -54.589,-43.673 -19.483,0 -36.581,8.168 -46.242,20.456 2.679,7.498 4.141,15.575 4.141,23.994 l 96.678,0 C -0.006,0.518 0,0.258 0,0"
         style="fill:#4b499e;fill-opacity:1;fill-rule:evenodd;stroke:none"
         id="path178"
         inkscape:connector-curvature="0" />
    </g>
    <g
       id="g180"
       transform="matrix(1.25,0,0,-1.25,484.34034,527.61957)">
      <path
         d="m 0,0 c 0,-24.12 -24.438,-43.673 -54.589,-43.673 -19.483,0 -36.581,8.168 -46.242,20.456 2.679,7.498 4.141,15.575 4.141,23.994 l 96.678,0 C -0.006,0.518 0,0.258 0,0 Z"
         style="fill:none;stroke:#4b499e;stroke-width:0.56699997;stroke-linecap:butt;stroke-linejoin:miter;stroke-miterlimit:22.9260006;stroke-dasharray:none;stroke-opacity:1"
         id="path182"
         inkscape:connector-curvature="0" />
    </g>
    <g
       id="g184"
       transform="matrix(1.25,0,0,-1.25,455.71371,632.51827)">
      <path
         d="m 0,0 c -12.062,-20.889 -43.003,-25.601 -69.111,-10.527 -16.883,9.748 -27.608,25.379 -29.822,40.858 6.201,5.276 11.491,11.594 15.593,18.684 L 0.378,0.679 C 0.254,0.451 0.13,0.224 0,0"
         style="fill:#4b499e;fill-opacity:1;fill-rule:evenodd;stroke:none"
         id="path186"
         inkscape:connector-curvature="0" />
    </g>
    <g
       id="g188"
       transform="matrix(1.25,0,0,-1.25,455.71371,632.51827)">
      <path
         d="m 0,0 c -12.062,-20.889 -43.003,-25.601 -69.111,-10.527 -16.883,9.748 -27.608,25.379 -29.822,40.858 6.201,5.276 11.491,11.594 15.593,18.684 L 0.378,0.679 C 0.254,0.451 0.13,0.224 0,0 Z"
         style="fill:none;stroke:#4b499e;stroke-width:0.56699997;stroke-linecap:butt;stroke-linejoin:miter;stroke-miterlimit:22.9260006;stroke-dasharray:none;stroke-opacity:1"
         id="path190"
         inkscape:connector-curvature="0" />
    </g>
    <g
       id="g192"
       transform="matrix(1.25,0,0,-1.25,378.47059,709.04657)">
      <path
         d="m 0,0 c -20.887,-12.06 -50.04,-0.671 -65.115,25.439 -9.742,16.877 -11.218,35.77 -5.402,50.28 8.188,1.487 15.892,4.371 22.851,8.398 L 0.668,0.399 C 0.447,0.264 0.225,0.129 0,0"
         style="fill:#4b499e;fill-opacity:1;fill-rule:evenodd;stroke:none"
         id="path194"
         inkscape:connector-curvature="0" />
    </g>
    <g
       id="g196"
       transform="matrix(1.25,0,0,-1.25,378.47059,709.04657)">
      <path
         d="m 0,0 c -20.887,-12.06 -50.04,-0.671 -65.115,25.439 -9.742,16.877 -11.218,35.77 -5.402,50.28 8.188,1.487 15.892,4.371 22.851,8.398 L 0.668,0.399 C 0.447,0.264 0.225,0.129 0,0 Z"
         style="fill:none;stroke:#4b499e;stroke-width:0.56699997;stroke-linecap:butt;stroke-linejoin:miter;stroke-miterlimit:22.9260006;stroke-dasharray:none;stroke-opacity:1"
         id="path198"
         inkscape:connector-curvature="0" />
    </g>
    <g
       id="g200"
       transform="matrix(1.25,0,0,-1.25,273.31371,736.70277)">
      <path
         d="m 0,0 c -24.12,0 -43.671,24.439 -43.671,54.588 0,19.485 8.168,36.583 20.454,46.242 7.498,-2.677 15.577,-4.14 23.995,-4.14 l 0,-96.679 C 0.518,0.007 0.26,0 0,0"
         style="fill:#8781bd;fill-opacity:1;fill-rule:evenodd;stroke:none"
         id="path202"
         inkscape:connector-curvature="0" />
    </g>
    <g
       id="g204"
       transform="matrix(1.25,0,0,-1.25,273.31371,736.70277)">
      <path
         d="m 0,0 c -24.12,0 -43.671,24.439 -43.671,54.588 0,19.485 8.168,36.583 20.454,46.242 7.498,-2.677 15.577,-4.14 23.995,-4.14 l 0,-96.679 C 0.518,0.007 0.26,0 0,0 Z"
         style="fill:none;stroke:#8781bd;stroke-width:0.56699997;stroke-linecap:butt;stroke-linejoin:miter;stroke-miterlimit:22.9260006;stroke-dasharray:none;stroke-opacity:1"
         id="path206"
         inkscape:connector-curvature="0" />
    </g>
    <g
       id="g208"
       transform="matrix(1.25,0,0,-1.25,168.41571,708.07487)">
      <path
         d="m 0,0 c -20.887,12.059 -25.599,43.001 -10.526,69.111 9.748,16.883 25.38,27.608 40.857,29.821 5.276,-6.2 11.596,-11.491 18.683,-15.592 L 0.68,-0.378 C 0.453,-0.254 0.226,-0.13 0,0"
         style="fill:#8781bd;fill-opacity:1;fill-rule:evenodd;stroke:none"
         id="path210"
         inkscape:connector-curvature="0" />
    </g>
    <g
       id="g212"
       transform="matrix(1.25,0,0,-1.25,168.41571,708.07487)">
      <path
         d="m 0,0 c -20.887,12.059 -25.599,43.001 -10.526,69.111 9.748,16.883 25.38,27.608 40.857,29.821 5.276,-6.2 11.596,-11.491 18.683,-15.592 L 0.68,-0.378 C 0.453,-0.254 0.226,-0.13 0,0 Z"
         style="fill:none;stroke:#8781bd;stroke-width:0.56699997;stroke-linecap:butt;stroke-linejoin:miter;stroke-miterlimit:22.9260006;stroke-dasharray:none;stroke-opacity:1"
         id="path214"
         inkscape:connector-curvature="0" />
    </g>
    <g
       id="g216"
       transform="matrix(1.25,0,0,-1.25,91.886212,630.83257)">
      <path
         d="m 0,0 c -12.059,20.888 -0.668,50.04 25.44,65.115 16.877,9.742 35.771,11.216 50.282,5.402 1.486,-8.188 4.37,-15.891 8.398,-22.851 L 0.4,-0.67 C 0.264,-0.446 0.13,-0.226 0,0"
         style="fill:#8781bd;fill-opacity:1;fill-rule:evenodd;stroke:none"
         id="path218"
         inkscape:connector-curvature="0" />
    </g>
    <g
       id="g220"
       transform="matrix(1.25,0,0,-1.25,91.886212,630.83257)">
      <path
         d="m 0,0 c -12.059,20.888 -0.668,50.04 25.44,65.115 16.877,9.742 35.771,11.216 50.282,5.402 1.486,-8.188 4.37,-15.891 8.398,-22.851 L 0.4,-0.67 C 0.264,-0.446 0.13,-0.226 0,0 Z"
         style="fill:none;stroke:#8781bd;stroke-width:0.56699997;stroke-linecap:butt;stroke-linejoin:miter;stroke-miterlimit:22.9260006;stroke-dasharray:none;stroke-opacity:1"
         id="path222"
         inkscape:connector-curvature="0" />
    </g>
    <g
       id="g224"
       transform="matrix(1.25,0,0,-1.25,64.231087,525.67507)">
      <path
         d="m 0,0 c 0,24.118 24.441,43.671 54.589,43.671 19.486,0 36.583,-8.168 46.243,-20.454 -2.677,-7.498 -4.14,-15.577 -4.14,-23.995 l -96.68,0 C 0.006,-0.52 0,-0.26 0,0"
         style="fill:#8781bd;fill-opacity:1;fill-rule:evenodd;stroke:none"
         id="path226"
         inkscape:connector-curvature="0" />
    </g>
    <g
       id="g228"
       transform="matrix(1.25,0,0,-1.25,64.231087,525.67507)">
      <path
         d="m 0,0 c 0,24.118 24.441,43.671 54.589,43.671 19.486,0 36.583,-8.168 46.243,-20.454 -2.677,-7.498 -4.14,-15.577 -4.14,-23.995 l -96.68,0 C 0.006,-0.52 0,-0.26 0,0 Z"
         style="fill:none;stroke:#8781bd;stroke-width:0.56699997;stroke-linecap:butt;stroke-linejoin:miter;stroke-miterlimit:22.9260006;stroke-dasharray:none;stroke-opacity:1"
         id="path230"
         inkscape:connector-curvature="0" />
    </g>
    <g
       id="g232"
       transform="matrix(1.25,0,0,-1.25,92.860837,420.77757)">
      <path
         d="M 0,0 C 12.06,20.888 43.001,25.602 69.111,10.526 85.992,0.78 96.717,-14.854 98.933,-30.332 92.73,-35.608 87.442,-41.927 83.34,-49.016 L -0.38,-0.68 C -0.256,-0.453 -0.13,-0.225 0,0"
         style="fill:#8781bd;fill-opacity:1;fill-rule:evenodd;stroke:none"
         id="path234"
         inkscape:connector-curvature="0" />
    </g>
    <g
       id="g236"
       transform="matrix(1.25,0,0,-1.25,92.860837,420.77757)">
      <path
         d="M 0,0 C 12.06,20.888 43.001,25.602 69.111,10.526 85.992,0.78 96.717,-14.854 98.933,-30.332 92.73,-35.608 87.442,-41.927 83.34,-49.016 L -0.38,-0.68 C -0.256,-0.453 -0.13,-0.225 0,0 Z"
         style="fill:none;stroke:#8781bd;stroke-width:0.56699997;stroke-linecap:butt;stroke-linejoin:miter;stroke-miterlimit:22.9260006;stroke-dasharray:none;stroke-opacity:1"
         id="path238"
         inkscape:connector-curvature="0" />
    </g>
    <g
       id="g240"
       transform="matrix(1.25,0,0,-1.25,170.10146,344.25037)">
      <path
         d="m 0,0 c 20.889,12.062 50.042,0.671 65.115,-25.438 9.744,-16.876 11.218,-35.771 5.404,-50.28 -8.19,-1.488 -15.894,-4.372 -22.853,-8.399 L -0.668,-0.397 C -0.447,-0.264 -0.226,-0.13 0,0"
         style="fill:#8781bd;fill-opacity:1;fill-rule:evenodd;stroke:none"
         id="path242"
         inkscape:connector-curvature="0" />
    </g>
    <g
       id="g244"
       transform="matrix(1.25,0,0,-1.25,170.10146,344.25037)">
      <path
         d="m 0,0 c 20.889,12.062 50.042,0.671 65.115,-25.438 9.744,-16.876 11.218,-35.771 5.404,-50.28 -8.19,-1.488 -15.894,-4.372 -22.853,-8.399 L -0.668,-0.397 C -0.447,-0.264 -0.226,-0.13 0,0 Z"
         style="fill:none;stroke:#8781bd;stroke-width:0.56699997;stroke-linecap:butt;stroke-linejoin:miter;stroke-miterlimit:22.9260006;stroke-dasharray:none;stroke-opacity:1"
         id="path246"
         inkscape:connector-curvature="0" />
    </g>
    <g
       id="g248"
       transform="matrix(1.25,0,0,-1.25,274.28609,467.67457)">
      <path
         d="m 0,0 c 26.058,0 47.18,-21.123 47.18,-47.179 0,-26.057 -21.122,-47.18 -47.18,-47.18 -26.056,0 -47.18,21.123 -47.18,47.18 C -47.18,-21.123 -26.056,0 0,0"
         style="fill:#8781bd;fill-opacity:1;fill-rule:evenodd;stroke:none"
         id="path250"
         inkscape:connector-curvature="0" />
    </g>
    <g
       id="g252"
       transform="matrix(1.25,0,0,-1.25,274.28609,467.67457)">
      <path
         d="m 0,0 c 26.058,0 47.18,-21.123 47.18,-47.179 0,-26.057 -21.122,-47.18 -47.18,-47.18 -26.056,0 -47.18,21.123 -47.18,47.18 C -47.18,-21.123 -26.056,0 0,0 Z"
         style="fill:none;stroke:#8781bd;stroke-width:0.56699997;stroke-linecap:butt;stroke-linejoin:miter;stroke-miterlimit:22.9260006;stroke-dasharray:none;stroke-opacity:1"
         id="path254"
         inkscape:connector-curvature="0" />
    </g>
    <g
       id="g256"
       transform="matrix(1.25,0,0,-1.25,333.26134,526.64787)">
      <path
         d="m 0,0 c 0,26.056 -21.123,47.179 -47.18,47.179 l 0,-94.36 C -21.123,-47.181 0,-26.058 0,0"
         style="fill:#4b499e;fill-opacity:1;fill-rule:evenodd;stroke:none"
         id="path258"
         inkscape:connector-curvature="0" />
    </g>
    <g
       id="g260"
       transform="matrix(1.25,0,0,-1.25,333.26134,526.64787)">
      <path
         d="m 0,0 c 0,26.056 -21.123,47.179 -47.18,47.179 l 0,-94.36 C -21.123,-47.181 0,-26.058 0,0 Z"
         style="fill:none;stroke:#4b499e;stroke-width:0.56699997;stroke-linecap:butt;stroke-linejoin:miter;stroke-miterlimit:22.9260006;stroke-dasharray:none;stroke-opacity:1"
         id="path262"
         inkscape:connector-curvature="0" />
    </g>
  </g>
</svg>
