<?xml version="1.0" encoding="UTF-8" standalone="no"?>
<!-- Created with Inkscape (http://www.inkscape.org/) -->

<svg
   xmlns:dc="http://purl.org/dc/elements/1.1/"
   xmlns:cc="http://creativecommons.org/ns#"
   xmlns:rdf="http://www.w3.org/1999/02/22-rdf-syntax-ns#"
   xmlns:svg="http://www.w3.org/2000/svg"
   xmlns="http://www.w3.org/2000/svg"
   xmlns:sodipodi="http://sodipodi.sourceforge.net/DTD/sodipodi-0.dtd"
   xmlns:inkscape="http://www.inkscape.org/namespaces/inkscape"
   width="72.781021mm"
   height="113.94056mm"
   viewBox="0 0 257.88551 403.72639"
   id="svg6944"
   version="1.1"
   inkscape:version="0.91 r13725"
   sodipodi:docname="hvacheat.svg">
  <defs
     id="defs6946" />
  <sodipodi:namedview
     id="base"
     pagecolor="#ffffff"
     bordercolor="#666666"
     borderopacity="1.0"
     inkscape:pageopacity="0.0"
     inkscape:pageshadow="2"
     inkscape:zoom="0.35"
     inkscape:cx="128.94275"
     inkscape:cy="201.8632"
     inkscape:document-units="px"
     inkscape:current-layer="layer1"
     showgrid="false"
     fit-margin-top="0"
     fit-margin-left="0"
     fit-margin-right="0"
     fit-margin-bottom="0"
     inkscape:window-width="1244"
     inkscape:window-height="779"
     inkscape:window-x="36"
     inkscape:window-y="21"
     inkscape:window-maximized="1" />
  <metadata
     id="metadata6949">
    <rdf:RDF>
      <cc:Work
         rdf:about="">
        <dc:format>image/svg+xml</dc:format>
        <dc:type
           rdf:resource="http://purl.org/dc/dcmitype/StillImage" />
        <dc:title></dc:title>
      </cc:Work>
    </rdf:RDF>
  </metadata>
  <g
     inkscape:label="Layer 1"
     inkscape:groupmode="layer"
     id="layer1"
     transform="translate(452.51418,-330.49901)">
    <g
       id="g72"
       transform="matrix(1.25,0,0,-1.25,-446.7302,733.87103)">
      <path
         d="m 0,0 c -5.418,18.217 -10.869,54.228 17.571,82.663 39.772,39.773 21.056,127.895 21.056,127.895 0,0 14.037,-19.496 25.734,-86.563 11.699,-67.066 10.918,-67.066 10.918,-67.066 0,0 -11.697,70.966 -1.559,138.811 10.137,67.847 -1.56,125.555 -1.56,125.555 0,0 60.827,-93.581 51.47,-164.547 -9.359,-70.965 -19.496,-81.883 -19.496,-81.883 0,0 30.414,38.992 31.972,82.663 1.561,43.671 -5.458,67.067 -5.458,67.067 0,0 42.892,-66.287 31.974,-112.298 -10.918,-46.01 1.56,-60.827 1.56,-60.827 0,0 -3.12,17.156 3.899,41.331 7.018,24.176 15.597,31.194 15.597,31.194 0,0 -10.918,-25.735 6.238,-64.727 C 199.721,36.99 204.677,15.73 198.99,0 L 0,0 Z"
         style="fill:#f04923;fill-opacity:1;fill-rule:evenodd;stroke:none"
         id="path74"
         inkscape:connector-curvature="0" />
    </g>
    <g
       id="g76"
       transform="matrix(1.25,0,0,-1.25,-446.7302,733.87103)">
      <path
         d="m 0,0 c -5.418,18.217 -10.869,54.228 17.571,82.663 39.772,39.773 21.056,127.895 21.056,127.895 0,0 14.037,-19.496 25.734,-86.563 11.699,-67.066 10.918,-67.066 10.918,-67.066 0,0 -11.697,70.966 -1.559,138.811 10.137,67.847 -1.56,125.555 -1.56,125.555 0,0 60.827,-93.581 51.47,-164.547 -9.359,-70.965 -19.496,-81.883 -19.496,-81.883 0,0 30.414,38.992 31.972,82.663 1.561,43.671 -5.458,67.067 -5.458,67.067 0,0 42.892,-66.287 31.974,-112.298 -10.918,-46.01 1.56,-60.827 1.56,-60.827 0,0 -3.12,17.156 3.899,41.331 7.018,24.176 15.597,31.194 15.597,31.194 0,0 -10.918,-25.735 6.238,-64.727 C 199.721,36.99 204.677,15.73 198.99,0 L 0,0 Z"
         style="fill:none;stroke:#f04923;stroke-width:0.56699997;stroke-linecap:butt;stroke-linejoin:miter;stroke-miterlimit:22.9260006;stroke-dasharray:none;stroke-opacity:1"
         id="path78"
         inkscape:connector-curvature="0" />
    </g>
    <g
       id="g80"
       transform="matrix(1.25,0,0,-1.25,-322.3613,733.87103)">
      <path
         d="m 0,0 0,269.955 c -13.469,30.012 -27.335,51.34 -27.335,51.34 0,0 11.697,-57.708 1.56,-125.555 -7.547,-50.539 -2.99,-102.813 -0.162,-126.187 -1.479,9.402 -4.201,25.811 -9.197,54.442 -11.697,67.067 -25.734,86.563 -25.734,86.563 0,0 18.716,-88.122 -21.056,-127.895 C -110.364,54.228 -104.913,18.217 -99.495,0 L 0,0 Z m -25.937,69.553 c 1.981,-12.624 1.721,-12.624 1.721,-12.624 0,0 -0.763,4.618 -1.721,12.624"
         style="fill:#f57e20;fill-opacity:1;fill-rule:evenodd;stroke:none"
         id="path82"
         inkscape:connector-curvature="0" />
    </g>
    <path
       d="m -322.3613,733.87103 0,-337.44375 c -16.83625,-37.515 -34.16875,-64.175 -34.16875,-64.175 0,0 14.62125,72.135 1.95,156.94375 -9.43375,63.17375 -3.7375,128.51625 -0.2025,157.73375 -1.84875,-11.7525 -5.25125,-32.26375 -11.49625,-68.0525 -14.62125,-83.83375 -32.1675,-108.20375 -32.1675,-108.20375 0,0 23.395,110.1525 -26.32,159.86875 -35.55,35.54375 -28.73625,80.5575 -21.96375,103.32875 l 124.36875,0 z m -32.42125,-86.94125 c 2.47625,15.78 2.15125,15.78 2.15125,15.78 0,0 -0.95375,-5.7725 -2.15125,-15.78 z"
       style="fill:none;stroke:#f57e20;stroke-width:0.70874995;stroke-linecap:butt;stroke-linejoin:miter;stroke-miterlimit:22.9260006;stroke-dasharray:none;stroke-opacity:1"
       id="path86"
       inkscape:connector-curvature="0" />
  </g>
</svg>
