<?xml version="1.0" encoding="iso-8859-1"?>
<!-- Generator: Adobe Illustrator 19.1.0, SVG Export Plug-In . SVG Version: 6.00 Build 0)  -->
<svg version="1.1" id="Capa_1" xmlns="http://www.w3.org/2000/svg" xmlns:xlink="http://www.w3.org/1999/xlink" x="0px" y="0px"
	 viewBox="0 0 424.228 424.228" style="enable-background:new 0 0 424.228 424.228;" xml:space="preserve">
<g>
	<polygon style="fill:#EDD570;" points="178.362,415.228 245.865,415.228 244.489,408.379 179.738,408.379 	"/>
	<path style="fill:#D5C7C1;" d="M207.614,27.817h-17.491c-1.25,18.674-8.037,92.31-39.265,143.362h56.756V27.817z"/>
	<path style="fill:#CCB683;" d="M170.183,27.817c-4.471,44.522-22.927,82.607-37.868,106.999
		c-10.14,16.553-19.886,28.999-26.115,36.363h33.99c31.972-48.165,39.459-123.88,40.891-143.362H170.183z"/>
	<path style="fill:#BB844C;" d="M212.114,9c-6.321,0-11.689,4.123-13.582,9.817h27.163C223.804,13.123,218.436,9,212.114,9z"/>
	<rect x="207.987" y="180.18" style="fill:#EDD570;" width="8.255" height="15.391"/>
	<path style="fill:#BB844C;" d="M220.964,204.57h-17.7c-3.015,0-5.467,2.23-5.467,4.97c0,2.74,2.452,4.97,5.467,4.97h17.7
		c3.015,0,5.467-2.23,5.467-4.97C226.431,206.8,223.979,204.57,220.964,204.57z"/>
	<path style="fill:#D5C7C1;" d="M216.614,27.817V171.18h56.756c-31.229-51.053-38.016-124.689-39.266-143.362H216.614z"/>
	<path style="fill:#EDD570;" d="M204.46,379.701c-1.226,8.86-5.987,15.231-11.189,19.678h37.671
		c-5.201-4.446-9.962-10.817-11.187-19.678H204.46z"/>
	<path style="fill:#CCB683;" d="M254.045,27.817h-10.897c1.432,19.482,8.92,95.197,40.891,143.362h33.99
		c-6.23-7.364-15.976-19.81-26.115-36.363C276.972,110.424,258.516,72.34,254.045,27.817z"/>
	<path style="fill:#BB844C;" d="M217.624,370.701c3.015,0,5.468-2.23,5.468-4.971c0-2.74-2.453-4.97-5.468-4.97h-11.02
		c-3.015,0-5.468,2.229-5.468,4.97c0,2.741,2.453,4.971,5.468,4.971H217.624z"/>
	<path style="fill:#CCB683;" d="M172.176,263.388c0,23.382,11.752,69.841,28.169,88.373h23.536
		c16.418-18.533,28.171-64.992,28.171-88.373c0-15.402-13.384-29.892-23.036-39.878h-33.807
		C185.557,233.497,172.176,247.984,172.176,263.388z"/>
	<path style="fill:#7C5F53;" d="M262.643,22.959c-0.186-2.339-2.139-4.142-4.485-4.142h-23.166C232.888,8.106,223.432,0,212.114,0
		c-11.318,0-20.774,8.106-22.877,18.817h-23.167c-2.347,0-4.299,1.803-4.485,4.142c-6.81,85.194-68.035,148.945-68.652,149.579
		c-1.263,1.296-1.627,3.223-0.924,4.89c0.703,1.667,2.336,2.751,4.146,2.751h102.832v16.015c-5.896,1.766-10.189,7.08-10.189,13.346
		c0,2.209,0.548,4.292,1.497,6.15c-0.072,0.065-27.118,23.335-27.118,47.697c0,24.773,12.372,74.697,31.107,95.058
		c-1.353,2.125-2.146,4.614-2.146,7.285c0,3.547,1.387,6.779,3.65,9.246c-0.004,0.076-0.023,0.148-0.023,0.225
		c0,17.928-20.124,24.106-20.98,24.36c-0.039,0.012-2.58,0.656-3.143,3.432l-3.183,15.849c-0.266,1.322,0.076,2.694,0.931,3.737
		c0.855,1.043,2.133,1.648,3.482,1.648h78.489c0.008,0,0.015,0,0.02,0c2.485,0,4.5-2.015,4.5-4.5c0-0.454-0.066-0.893-0.192-1.306
		l-3.098-15.428c-0.355-2.714-3.146-3.427-3.174-3.435c-0.21-0.061-20.963-6.311-20.963-24.357c0-0.073-0.018-0.141-0.021-0.213
		c2.27-2.468,3.662-5.705,3.662-9.258c0-2.672-0.794-5.161-2.147-7.286c18.735-20.363,31.107-70.285,31.107-95.057
		c0-25.609-27.048-47.631-27.119-47.695c0.949-1.859,1.498-3.943,1.498-6.152c0-6.266-4.295-11.58-10.189-13.346V180.18h37.6v61.402
		c0,2.485,2.015,4.5,4.5,4.5c2.485,0,4.5-2.015,4.5-4.5V180.18h56.232c1.81,0,3.442-1.085,4.146-2.751
		c0.703-1.667,0.339-3.594-0.924-4.89C330.678,171.904,269.453,108.153,262.643,22.959z M212.114,9
		c6.321,0,11.689,4.123,13.581,9.817h-27.163C200.425,13.123,205.793,9,212.114,9z M216.241,180.18v15.391h-8.255V180.18H216.241z
		 M106.199,171.18c6.229-7.364,15.976-19.81,26.115-36.363c14.941-24.393,33.398-62.477,37.868-106.999h10.897
		c-1.432,19.482-8.919,95.197-40.891,143.362H106.199z M150.859,171.18c31.228-51.053,38.015-124.689,39.265-143.362h17.491V171.18
		H150.859z M244.489,408.379l1.376,6.849h-67.503l1.376-6.849H244.489z M230.942,399.379h-37.671
		c5.202-4.446,9.964-10.817,11.189-19.678h15.295C220.98,388.561,225.74,394.933,230.942,399.379z M201.136,365.73
		c0-2.74,2.453-4.97,5.468-4.97h11.02c3.015,0,5.468,2.229,5.468,4.97c0,2.741-2.453,4.971-5.468,4.971h-11.02
		C203.589,370.701,201.136,368.471,201.136,365.73z M252.052,263.388c0,23.381-11.753,69.84-28.171,88.373h-23.536
		c-16.417-18.532-28.169-64.991-28.169-88.373c0-15.403,13.381-29.891,23.033-39.878h33.807
		C238.668,233.496,252.052,247.985,252.052,263.388z M226.431,209.54c0,2.74-2.452,4.97-5.467,4.97h-17.7
		c-3.015,0-5.467-2.23-5.467-4.97c0-2.74,2.452-4.97,5.467-4.97h17.7C223.979,204.57,226.431,206.8,226.431,209.54z M216.614,171.18
		V27.817h17.49c1.25,18.674,8.037,92.31,39.266,143.362H216.614z M284.038,171.18c-31.971-48.165-39.459-123.88-40.891-143.362
		h10.897c4.471,44.522,22.927,82.607,37.868,106.999c10.14,16.553,19.886,28.999,26.115,36.363H284.038z"/>
</g>
<g>
</g>
<g>
</g>
<g>
</g>
<g>
</g>
<g>
</g>
<g>
</g>
<g>
</g>
<g>
</g>
<g>
</g>
<g>
</g>
<g>
</g>
<g>
</g>
<g>
</g>
<g>
</g>
<g>
</g>
</svg>
