<?xml version="1.0" encoding="iso-8859-1"?>
<!-- Generator: Adobe Illustrator 19.0.0, SVG Export Plug-In . SVG Version: 6.00 Build 0)  -->
<svg version="1.1" id="Layer_1" xmlns="http://www.w3.org/2000/svg" xmlns:xlink="http://www.w3.org/1999/xlink" x="0px" y="0px"
	 viewBox="0 0 495 495" style="enable-background:new 0 0 495 495;" xml:space="preserve">
<g>
	<path style="fill:#3D9AE2;" d="M130,317.5c0-64.79,52.71-117.5,117.5-117.5v-60H20v355h227.5v-60C182.71,435,130,382.29,130,317.5z
		"/>
	<path style="fill:#1A6FB0;" d="M247.5,200c64.79,0,117.5,52.71,117.5,117.5S312.29,435,247.5,435v60H475V140H247.5V200z"/>
	<path style="fill:#EBE5DD;" d="M247.5,0H20v140h227.5V0z M170.333,90H80V50h90.333V90z"/>
	<path style="fill:#D9CCBC;" d="M247.5,0v140H475V0H247.5z M355,90h-40V50h40V90z M415,90h-40V50h40V90z"/>
	<rect x="80" y="50" style="fill:#3D9AE2;" width="90.333" height="40"/>
	<rect x="375" y="50" style="fill:#1A6FB0;" width="40" height="40"/>
	<rect x="315" y="50" style="fill:#1A6FB0;" width="40" height="40"/>
	<path style="fill:#44FFE8;" d="M130,317.5c0,64.79,52.71,117.5,117.5,117.5V200C182.71,200,130,252.71,130,317.5z"/>
	<path style="fill:#00E7F0;" d="M365,317.5c0-64.79-52.71-117.5-117.5-117.5v235C312.29,435,365,382.29,365,317.5z"/>
</g>
<g>
</g>
<g>
</g>
<g>
</g>
<g>
</g>
<g>
</g>
<g>
</g>
<g>
</g>
<g>
</g>
<g>
</g>
<g>
</g>
<g>
</g>
<g>
</g>
<g>
</g>
<g>
</g>
<g>
</g>
</svg>
