<?xml version="1.0" encoding="iso-8859-1"?>
<!-- Generator: Adobe Illustrator 19.0.0, SVG Export Plug-In . SVG Version: 6.00 Build 0)  -->
<svg version="1.1" id="Layer_1" xmlns="http://www.w3.org/2000/svg" xmlns:xlink="http://www.w3.org/1999/xlink" x="0px" y="0px"
	 viewBox="0 0 512.001 512.001" style="enable-background:new 0 0 512.001 512.001;" xml:space="preserve">
<path style="fill:#FCD577;" d="M257.907,467.536h-58.059c10.207,21.032,31.774,35.543,56.74,35.543
	c24.884,0,46.4-14.429,56.647-35.368c0.031-0.062,0.062-0.113,0.093-0.175H257.907z"/>
<path style="fill:#FF6F52;" d="M181.954,8.92c13.427,27.68,41.798,46.757,74.639,46.757c0.013,0,0.013,0,0.027,0
	c32.815-0.013,61.172-19.091,74.613-46.757H181.954z"/>
<path style="fill:#E25749;" d="M256.599,55.671c-32.85,0-61.217-19.066-74.645-46.754h42.865
	C230.54,36.605,242.612,55.671,256.599,55.671z"/>
<polygon style="fill:#FF6F52;" points="395.818,246.17 117.423,246.17 73.517,467.536 439.723,467.536 "/>
<polygon style="fill:#E25749;" points="117.423,246.17 73.517,467.536 148.119,467.536 169.615,246.17 "/>
<polygon style="fill:#CFDCE5;" points="285.565,191.727 227.675,191.727 222.073,246.17 291.168,246.17 "/>
<polygon style="fill:#BAC6CC;" points="227.675,191.727 222.073,246.17 247.05,246.17 252.652,191.727 "/>
<path d="M447.854,465.801l-43.906-221.366c-0.828-4.176-4.491-7.185-8.749-7.185h-96.6l-4.779-46.436
	c-0.469-4.549-4.301-8.007-8.874-8.007h-20.025V64.161c31.788-3.035,59.521-22.121,73.716-51.342
	c1.343-2.764,1.168-6.025-0.463-8.631C336.544,1.582,333.686,0,330.614,0h-27.918c-4.928,0-8.92,3.994-8.92,8.92
	s3.993,8.92,8.92,8.92h12.008c-13.826,18.114-35.239,28.907-58.729,28.916c-23.498,0-44.92-10.792-58.741-28.916h75.726
	c4.928,0,8.92-3.994,8.92-8.92S277.888,0,272.96,0h-91.626c-3.072,0-5.929,1.582-7.56,4.185c-1.632,2.604-1.808,5.864-0.466,8.628
	c13.951,28.764,42.276,48.209,73.772,51.331v118.663h-20.024c-4.573,0-8.405,3.459-8.873,8.007l-4.779,46.436h-96.601
	c-4.258,0-7.921,3.009-8.75,7.185l-9.262,46.696c-0.959,4.832,2.183,9.527,7.015,10.486c4.835,0.956,9.527-2.182,10.484-7.015
	l7.837-39.511h263.745l40.366,203.525H83.761l25.87-130.431c0.959-4.832-2.181-9.527-7.014-10.486
	c-4.831-0.957-9.526,2.182-10.484,7.015L64.148,465.801c-0.52,2.619,0.162,5.332,1.855,7.397c1.695,2.064,4.225,3.259,6.894,3.259
	h121.01c12.821,21.76,36.59,35.544,62.061,35.544c25.856,0,49.162-13.479,62.07-35.544h121.065c2.67,0,5.2-1.195,6.894-3.259
	C447.692,471.134,448.372,468.419,447.854,465.801z M231.339,237.25l3.767-36.603h41.791l3.767,36.603H231.339z M255.969,494.159
	c-15.635,0-30.016-6.537-40.096-17.704h80.178C285.966,487.62,271.584,494.159,255.969,494.159z"/>
<g>
</g>
<g>
</g>
<g>
</g>
<g>
</g>
<g>
</g>
<g>
</g>
<g>
</g>
<g>
</g>
<g>
</g>
<g>
</g>
<g>
</g>
<g>
</g>
<g>
</g>
<g>
</g>
<g>
</g>
</svg>
