<?xml version="1.0" encoding="iso-8859-1"?>
<!-- Generator: Adobe Illustrator 19.0.0, SVG Export Plug-In . SVG Version: 6.00 Build 0)  -->
<svg version="1.1" id="Layer_1" xmlns="http://www.w3.org/2000/svg" xmlns:xlink="http://www.w3.org/1999/xlink" x="0px" y="0px"
	 viewBox="0 0 299.637 299.637" style="enable-background:new 0 0 299.637 299.637;" xml:space="preserve">
<g>
	<path style="fill:#EFC75E;" d="M65.545,28.092c36.2,0,65.545,29.355,65.545,65.545c0,36.2-29.346,65.545-65.545,65.545
		S0,129.837,0,93.637C0,57.447,29.346,28.092,65.545,28.092z"/>
	<path style="fill:#E4E7E7;" d="M251.62,95.023c-5.974-32.735-34.552-57.568-69.029-57.568c-24.214,0-45.563,12.257-58.195,30.9
		c-3.652-1.751-7.697-2.809-12.032-2.809c-15.516,0-28.091,12.575-28.091,28.091l0.019,0.234l-4.701-0.234
		c-28.437,0-51.5,23.063-51.5,51.5c0,1.732,0.094,3.436,0.253,5.131C12.36,152.441,0,166.008,0,182.592
		c0,18.109,14.673,32.773,32.773,32.773h206c33.615,0,60.864-27.248,60.864-60.864C299.636,125.296,279.064,100.922,251.62,95.023z"
		/>
	<path style="fill:#EFC75E;" d="M206,178.303l-46.416-0.197l27.876-56.378h-65.564l-37.623,93.505h47.67l-19.664,56.313
		C112.279,271.546,206,178.303,206,178.303z"/>
</g>
<g>
</g>
<g>
</g>
<g>
</g>
<g>
</g>
<g>
</g>
<g>
</g>
<g>
</g>
<g>
</g>
<g>
</g>
<g>
</g>
<g>
</g>
<g>
</g>
<g>
</g>
<g>
</g>
<g>
</g>
</svg>
