<?xml version="1.0" encoding="iso-8859-1"?>
<!-- Generator: Adobe Illustrator 19.0.0, SVG Export Plug-In . SVG Version: 6.00 Build 0)  -->
<svg version="1.1" id="Capa_1" xmlns="http://www.w3.org/2000/svg" xmlns:xlink="http://www.w3.org/1999/xlink" x="0px" y="0px"
	 viewBox="0 0 332.778 332.778" style="enable-background:new 0 0 332.778 332.778;" xml:space="preserve">
<g id="XMLID_842_">
	<path id="XMLID_845_" style="fill:#D77258;" d="M261.389,280.778v-96.364c0-52.25-42.75-95-95-95h0c-52.25,0-95,42.75-95,95v96.364
		H261.389z"/>
	<rect id="XMLID_55_" x="154.167" style="fill:#F9E375;" width="24.444" height="48.889"/>
	<rect id="XMLID_52_" x="282.5" y="122.222" style="fill:#F5D361;" width="48.889" height="24.444"/>
	<rect id="XMLID_49_" x="1.389" y="122.222" style="fill:#F9E375;" width="48.889" height="24.444"/>
	
		<rect id="XMLID_46_" x="58.486" y="32.652" transform="matrix(-0.7071 0.7071 -0.7071 -0.7071 161.0799 47.4705)" style="fill:#F9E375;" width="24.444" height="48.889"/>
	
		<rect id="XMLID_43_" x="237.625" y="44.875" transform="matrix(-0.7071 0.7071 -0.7071 -0.7071 487.7542 -87.8408)" style="fill:#F5D361;" width="48.889" height="24.444"/>
	<path id="XMLID_853_" style="fill:#D14F4E;" d="M166.389,89.414L166.389,89.414l0,191.364h95v-96.364
		C261.389,132.164,218.639,89.414,166.389,89.414z"/>
	<rect id="XMLID_856_" x="166.389" y="0" style="fill:#F5D361;" width="12.222" height="48.889"/>
	<rect id="XMLID_34_" x="51.389" y="272.778" style="fill:#F9E375;" width="230" height="60"/>
	<rect id="XMLID_860_" x="166.389" y="272.778" style="fill:#F5D361;" width="115" height="60"/>
</g>
<g>
</g>
<g>
</g>
<g>
</g>
<g>
</g>
<g>
</g>
<g>
</g>
<g>
</g>
<g>
</g>
<g>
</g>
<g>
</g>
<g>
</g>
<g>
</g>
<g>
</g>
<g>
</g>
<g>
</g>
</svg>
