<?xml version="1.0" encoding="iso-8859-1"?>
<!-- Generator: Adobe Illustrator 19.1.0, SVG Export Plug-In . SVG Version: 6.00 Build 0)  -->
<svg version="1.1" id="Capa_1" xmlns="http://www.w3.org/2000/svg" xmlns:xlink="http://www.w3.org/1999/xlink" x="0px" y="0px"
	 viewBox="0 0 416.274 416.274" style="enable-background:new 0 0 416.274 416.274;" xml:space="preserve">
<g>
	<path style="fill:#D5C7C1;" d="M243.599,208.884h-9.085c-2.429,2.721-8.258,10.814-9.217,26.585h7.363
		C232.924,230.079,235.062,221.176,243.599,208.884z"/>
	<path style="fill:#EDD570;" d="M239.101,9h-61.928c3.226,9.24,16.098,16.377,30.964,16.377C223.003,25.377,235.875,18.24,239.101,9
		z"/>
	<path style="fill:#D5C7C1;" d="M60.343,258.014c-0.975-15.63-6.852-23.864-9.231-26.585h-9.066
		c8.537,12.292,10.675,21.195,10.938,26.585H60.343z"/>
	<path style="fill:#D5C7C1;" d="M85.819,258.014c0.677-12.383,4.068-21.036,7.286-26.585H62.072
		c3.218,5.55,6.609,14.202,7.286,26.585H85.819z"/>
	<path style="fill:#D5C7C1;" d="M112.97,231.429h-8.923c-2.429,2.721-8.258,10.814-9.217,26.585h7.201
		C102.295,252.623,104.433,243.72,112.97,231.429z"/>
	<path style="fill:#EDD570;" d="M99.778,347.093H55.237c3.804,3.825,12.106,7.016,22.271,7.016
		C87.671,354.109,95.973,350.918,99.778,347.093z"/>
	<path style="fill:#C6CDC9;" d="M124.268,310.844c0-11.74-10.93-34.705-19.288-43.83H49.996
		c-8.341,9.113-19.249,32.074-19.249,43.83c0,13.397,6.084,22.319,18.593,27.249h56.332
		C118.183,333.162,124.268,324.24,124.268,310.844z"/>
	<path style="fill:#D5C7C1;" d="M190.811,235.47c-0.975-15.63-6.852-23.864-9.231-26.585h-8.905
		c8.537,12.292,10.675,21.195,10.939,26.585H190.811z"/>
	<path style="fill:#EDD570;" d="M338.767,354.109c10.164,0,18.466-3.191,22.271-7.016h-44.541
		C320.301,350.918,328.603,354.109,338.767,354.109z"/>
	<path style="fill:#D5C7C1;" d="M321.441,258.014c-0.975-15.63-6.852-23.864-9.231-26.585h-8.905
		c8.537,12.292,10.675,21.195,10.939,26.585H321.441z"/>
	<path style="fill:#C6CDC9;" d="M311.294,267.014c-8.357,9.125-19.288,32.09-19.288,43.83c0,13.397,6.085,22.318,18.596,27.249
		h56.332c12.509-4.93,18.593-13.852,18.593-27.249c0-11.755-10.908-34.716-19.249-43.83H311.294z"/>
	<path style="fill:#D5C7C1;" d="M346.916,258.014c0.677-12.383,4.068-21.036,7.286-26.585H323.17
		c3.218,5.55,6.609,14.202,7.286,26.585H346.916z"/>
	<path style="fill:#D5C7C1;" d="M216.286,235.47c0.677-12.383,4.068-21.036,7.286-26.585H192.54
		c3.218,5.55,6.609,14.202,7.286,26.585H216.286z"/>
	<path style="fill:#EDD570;" d="M208.137,331.564c10.164,0,18.466-3.191,22.27-7.016h-44.541
		C189.671,328.373,197.973,331.564,208.137,331.564z"/>
	<path style="fill:#D5C7C1;" d="M374.229,231.429h-9.085c-2.429,2.721-8.258,10.814-9.217,26.585h7.363
		C363.554,252.623,365.692,243.72,374.229,231.429z"/>
	<path style="fill:#C6CDC9;" d="M254.897,288.299c0-11.755-10.908-34.716-19.249-43.83h-54.984
		c-8.358,9.125-19.288,32.09-19.288,43.83c0,13.397,6.085,22.318,18.596,27.249h56.332
		C248.813,310.618,254.897,301.697,254.897,288.299z"/>
	<path style="fill:#7C5F53;" d="M386.764,229.782c1.103-1.345,1.332-3.206,0.587-4.778c-0.744-1.573-2.328-2.575-4.067-2.575H294.25
		c-1.74,0-3.323,1.002-4.067,2.575c-0.744,1.572-0.516,3.433,0.587,4.778c14.363,17.52,14.706,27.738,14.446,30.563
		c-9.993,10.482-22.209,35.904-22.209,50.499c0,16.438,7.816,28.45,22.627,34.915c1.721,7.083,9.158,12.87,19.442,15.619
		c-0.668,1.506-1.046,3.169-1.046,4.92c0,6.055,4.443,11.079,10.237,12.017v6.054c0,7.658-4.615,14.445-11.682,18.606
		c5.083-8.545,3.977-19.777-3.368-27.123c-7.296-7.296-19.169-7.297-26.467,0c-6.188,6.188-6.188,16.258,0,22.447
		c2.568,2.568,5.983,3.983,9.615,3.983c3.632,0,7.047-1.415,9.615-3.983c1.757-1.757,1.757-4.607,0-6.364
		c-1.758-1.757-4.606-1.757-6.364,0c-1.792,1.793-4.709,1.793-6.501,0c-2.68-2.679-2.68-7.039,0-9.718
		c3.787-3.789,9.951-3.788,13.739-0.001c5.173,5.174,5.173,13.592,0,18.765c-4.565,4.566-11.324,6.233-17.434,4.487
		c-10.026-3.484-17.076-11.63-17.076-21.099v-18.859c0-20.671-12.656-35.262-36.682-42.453
		c14.564-6.503,22.238-18.458,22.238-34.757c0-14.632-12.229-40.102-22.213-50.544c-0.253-2.884,0.157-13.085,14.45-30.518
		c1.103-1.345,1.332-3.206,0.587-4.778c-0.744-1.573-2.328-2.575-4.067-2.575h-31.472c0.593-1.549,0.932-3.222,0.932-4.977v-10.13
		c0-3.659-1.424-6.983-3.733-9.477c2.309-2.494,3.733-5.818,3.733-9.477v-10.13c0-3.659-1.424-6.983-3.733-9.477
		c2.309-2.494,3.733-5.818,3.733-9.477v-10.13c0-3.659-1.424-6.983-3.733-9.477c2.309-2.494,3.733-5.818,3.733-9.477v-10.13
		c0-3.659-1.424-6.983-3.733-9.477c2.309-2.494,3.733-5.818,3.733-9.477v-10.13c0-3.659-1.424-6.983-3.733-9.477
		c2.309-2.494,3.733-5.818,3.733-9.477v-10.13c0-2.307-0.571-4.48-1.566-6.399c16.413-3.859,28.329-15.154,28.329-28.455
		c0-2.485-2.015-4.5-4.5-4.5h-72.481c-2.485,0-4.5,2.015-4.5,4.5c0,13.301,11.917,24.596,28.329,28.455
		c-0.994,1.92-1.565,4.092-1.565,6.399v10.13c0,3.659,1.424,6.983,3.733,9.477c-2.309,2.494-3.733,5.818-3.733,9.477v10.13
		c0,3.659,1.424,6.983,3.733,9.477c-2.309,2.494-3.733,5.818-3.733,9.477v10.13c0,3.659,1.424,6.983,3.733,9.477
		c-2.309,2.494-3.733,5.818-3.733,9.477v10.13c0,3.659,1.424,6.983,3.733,9.477c-2.309,2.494-3.733,5.818-3.733,9.477v10.13
		c0,3.659,1.424,6.983,3.733,9.477c-2.309,2.494-3.733,5.818-3.733,9.477v10.13c0,1.755,0.339,3.428,0.932,4.977H163.62
		c-1.74,0-3.323,1.002-4.067,2.575c-0.744,1.572-0.516,3.433,0.587,4.778c14.363,17.52,14.706,27.738,14.446,30.563
		c-9.993,10.482-22.209,35.904-22.209,50.499c0,16.297,7.674,28.252,22.24,34.756c-24.027,7.19-36.684,21.782-36.684,42.453v18.859
		c0,9.468-7.048,17.612-17.073,21.098c-6.112,1.748-12.872,0.082-17.438-4.485c-5.173-5.174-5.173-13.592,0-18.765
		c3.787-3.787,9.952-3.788,13.739,0c2.68,2.679,2.68,7.039,0,9.718c-1.791,1.793-4.709,1.793-6.501,0
		c-1.758-1.757-4.606-1.757-6.364,0c-1.757,1.757-1.757,4.607,0,6.364c5.302,5.302,13.929,5.302,19.23,0
		c6.188-6.188,6.188-16.258,0-22.447c-7.297-7.297-19.17-7.297-26.467,0c-7.345,7.345-8.451,18.577-3.368,27.123
		c-7.067-4.162-11.682-10.949-11.682-18.606v-6.054c5.794-0.938,10.237-5.962,10.237-12.017c0-1.751-0.378-3.413-1.046-4.92
		c10.284-2.749,17.721-8.535,19.442-15.619c14.811-6.465,22.627-18.478,22.627-34.915c0-14.595-12.216-40.017-22.21-50.499
		c-0.26-2.825,0.083-13.043,14.446-30.563c1.103-1.345,1.331-3.206,0.587-4.778c-0.744-1.573-2.328-2.575-4.067-2.575H32.99
		c-1.74,0-3.323,1.002-4.067,2.575c-0.744,1.572-0.516,3.433,0.587,4.778c14.292,17.433,14.702,27.634,14.45,30.518
		c-9.984,10.442-22.213,35.912-22.213,50.544c0,16.439,7.816,28.452,22.626,34.916c1.721,7.083,9.158,12.869,19.441,15.618
		c-0.668,1.506-1.046,3.169-1.046,4.92c0,6.056,4.444,11.08,10.239,12.017v6.053c0,17.593,16.581,31.907,36.962,31.907
		c4.637,0,9.074-0.748,13.167-2.1c1.228-0.339,4.187-1.576,4.438-1.757c11.521-5.409,19.358-15.955,19.358-28.05v-18.859
		c0-17.132,11.003-28.736,32.706-34.524c3.5,3.459,8.64,6.2,14.807,7.848c-0.667,1.506-1.046,3.168-1.046,4.919
		c0,6.721,5.468,12.189,12.189,12.189h5.099c6.721,0,12.189-5.468,12.189-12.189c0-1.751-0.378-3.413-1.046-4.919
		c6.166-1.648,11.307-4.389,14.806-7.848c21.703,5.788,32.706,17.392,32.706,34.524v18.859c0,12.095,7.837,22.641,19.358,28.05
		c0.251,0.181,3.213,1.418,4.441,1.758c4.092,1.351,8.527,2.099,13.163,2.099c20.381,0,36.962-14.314,36.962-31.907v-6.053
		c5.795-0.938,10.239-5.962,10.239-12.017c0-1.751-0.379-3.413-1.046-4.92c10.283-2.749,17.72-8.535,19.441-15.618
		c14.81-6.464,22.626-18.477,22.626-34.916c0-14.632-12.229-40.103-22.213-50.544C372.062,257.415,372.471,247.215,386.764,229.782z
		 M104.047,231.429h8.923c-8.537,12.292-10.675,21.195-10.938,26.585H94.83C95.789,242.243,101.618,234.149,104.047,231.429z
		 M93.105,231.429c-3.218,5.55-6.609,14.202-7.286,26.585H69.358c-0.677-12.383-4.068-21.036-7.286-26.585H93.105z M42.045,231.429
		h9.066c2.379,2.722,8.257,10.955,9.231,26.585h-7.359C52.72,252.623,50.582,243.72,42.045,231.429z M30.747,310.844
		c0-11.755,10.908-34.716,19.249-43.83h54.984c8.357,9.125,19.288,32.09,19.288,43.83c0,13.397-6.085,22.318-18.596,27.249H49.34
		C36.831,333.163,30.747,324.241,30.747,310.844z M55.237,347.093h44.541c-3.804,3.825-12.106,7.016-22.271,7.016
		C67.343,354.109,59.041,350.918,55.237,347.093z M80.056,369.485h-5.099c-1.758,0-3.188-1.43-3.188-3.188
		c0-1.758,1.43-3.188,3.188-3.188h5.099c1.758,0,3.188,1.43,3.188,3.188C83.245,368.055,81.815,369.485,80.056,369.485z
		 M234.515,208.884h9.085c-8.537,12.292-10.675,21.195-10.939,26.585h-7.363C226.257,219.699,232.086,211.605,234.515,208.884z
		 M177.173,9h61.928c-3.226,9.24-16.098,16.377-30.964,16.377C193.271,25.377,180.399,18.24,177.173,9z M208.137,170.8
		c-2.745,0-4.978-2.233-4.978-4.977v-10.13c0-2.744,2.233-4.977,4.978-4.977c2.744,0,4.977,2.233,4.977,4.977v10.13
		C213.114,168.567,210.882,170.8,208.137,170.8z M213.114,184.777v10.13c0,2.744-2.232,4.977-4.977,4.977
		c-2.745,0-4.978-2.233-4.978-4.977v-10.13c0-2.744,2.233-4.977,4.978-4.977C210.882,179.8,213.114,182.033,213.114,184.777z
		 M208.137,141.715c-2.745,0-4.978-2.233-4.978-4.977v-10.13c0-2.744,2.233-4.977,4.978-4.977c2.744,0,4.977,2.233,4.977,4.977
		v10.13C213.114,139.482,210.882,141.715,208.137,141.715z M208.137,112.631c-2.745,0-4.978-2.233-4.978-4.977v-10.13
		c0-2.744,2.233-4.977,4.978-4.977c2.744,0,4.977,2.233,4.977,4.977v10.13C213.114,110.398,210.882,112.631,208.137,112.631z
		 M208.137,83.546c-2.745,0-4.978-2.233-4.978-4.977v-10.13c0-2.744,2.233-4.977,4.978-4.977c2.744,0,4.977,2.233,4.977,4.977v10.13
		C213.114,81.313,210.882,83.546,208.137,83.546z M208.137,54.462c-2.745,0-4.978-2.233-4.978-4.977v-10.13
		c0-2.744,2.233-4.977,4.978-4.977c2.744,0,4.977,2.233,4.977,4.977v10.13C213.114,52.229,210.882,54.462,208.137,54.462z
		 M223.573,208.884c-3.218,5.55-6.609,14.202-7.286,26.585h-16.46c-0.677-12.383-4.068-21.036-7.286-26.585H223.573z
		 M172.675,208.884h8.905c2.379,2.722,8.257,10.955,9.231,26.585h-7.198C183.35,230.079,181.212,221.176,172.675,208.884z
		 M210.687,346.941h-5.099c-1.758,0-3.189-1.43-3.189-3.189c0-1.758,1.43-3.188,3.189-3.188h5.099c1.758,0,3.189,1.43,3.189,3.188
		C213.876,345.511,212.446,346.941,210.687,346.941z M208.137,331.564c-10.164,0-18.466-3.191-22.271-7.016h44.541
		C226.604,328.373,218.302,331.564,208.137,331.564z M236.304,315.548h-56.332c-12.511-4.931-18.596-13.852-18.596-27.249
		c0-11.74,10.93-34.705,19.288-43.83h54.984c8.341,9.113,19.249,32.074,19.249,43.83
		C254.897,301.697,248.813,310.618,236.304,315.548z M365.145,231.429h9.085c-8.537,12.292-10.675,21.195-10.939,26.585h-7.363
		C356.886,242.243,362.716,234.149,365.145,231.429z M354.202,231.429c-3.218,5.55-6.609,14.202-7.286,26.585h-16.46
		c-0.677-12.383-4.068-21.036-7.286-26.585H354.202z M303.304,231.429h8.905c2.379,2.722,8.257,10.955,9.231,26.585h-7.198
		C313.98,252.623,311.842,243.72,303.304,231.429z M341.317,369.485h-5.099c-1.758,0-3.189-1.43-3.189-3.188
		c0-1.758,1.43-3.188,3.189-3.188h5.099c1.758,0,3.189,1.43,3.189,3.188C344.506,368.055,343.075,369.485,341.317,369.485z
		 M338.767,354.109c-10.164,0-18.466-3.191-22.27-7.016h44.541C357.234,350.918,348.931,354.109,338.767,354.109z M366.934,338.093
		h-56.332c-12.511-4.931-18.596-13.853-18.596-27.249c0-11.74,10.93-34.705,19.288-43.83h54.984
		c8.341,9.113,19.249,32.074,19.249,43.83C385.527,324.241,379.443,333.163,366.934,338.093z"/>
</g>
<g>
</g>
<g>
</g>
<g>
</g>
<g>
</g>
<g>
</g>
<g>
</g>
<g>
</g>
<g>
</g>
<g>
</g>
<g>
</g>
<g>
</g>
<g>
</g>
<g>
</g>
<g>
</g>
<g>
</g>
</svg>
