<?xml version="1.0" encoding="iso-8859-1"?>
<!-- Generator: Adobe Illustrator 18.0.0, SVG Export Plug-In . SVG Version: 6.00 Build 0)  -->
<!DOCTYPE svg PUBLIC "-//W3C//DTD SVG 1.1//EN" "http://www.w3.org/Graphics/SVG/1.1/DTD/svg11.dtd">
<svg version="1.1" id="Capa_1" xmlns="http://www.w3.org/2000/svg" xmlns:xlink="http://www.w3.org/1999/xlink" x="0px" y="0px"
	 viewBox="0 0 58 58" style="enable-background:new 0 0 58 58;" xml:space="preserve">
<path style="fill:#426D5F;" d="M41,58H17v0c0-2.209,1.791-4,4-4h16C39.209,54,41,55.791,41,58L41,58z"/>
<path style="fill:#DC691D;" d="M48,33H10l0.908-2.205C14.93,21.026,17,10.564,17,0v0h24v0.001c0,10.567,2.071,21.031,6.095,30.802
	L48,33z"/>
<path style="fill:#ED8A19;" d="M33,0.001L25,0c0,10.564-3,33-3,33h14C36,33,33,10.567,33,0.001z"/>
<path style="fill:#25AE88;" d="M32,47h-6c0,3.869-1.789,7-4,7h14C33.789,54,32,50.869,32,47z"/>
<path style="fill:#3CD6A6;" d="M33,47h-8c-1.1,0-2-0.9-2-2v0c0-1.1,0.9-2,2-2h8c1.1,0,2,0.9,2,2v0C35,46.1,34.1,47,33,47z"/>
<polygon style="fill:#25AE88;" points="26,43 24,38 28,33 30,33 34,38 32,43 "/>
<g>
</g>
<g>
</g>
<g>
</g>
<g>
</g>
<g>
</g>
<g>
</g>
<g>
</g>
<g>
</g>
<g>
</g>
<g>
</g>
<g>
</g>
<g>
</g>
<g>
</g>
<g>
</g>
<g>
</g>
</svg>
