<?xml version="1.0" encoding="iso-8859-1"?>
<!-- Generator: Adobe Illustrator 19.0.0, SVG Export Plug-In . SVG Version: 6.00 Build 0)  -->
<svg version="1.1" id="Layer_1" xmlns="http://www.w3.org/2000/svg" xmlns:xlink="http://www.w3.org/1999/xlink" x="0px" y="0px"
	 viewBox="0 0 512.001 512.001" style="enable-background:new 0 0 512.001 512.001;" xml:space="preserve">
<path style="fill:#009AD2;" d="M257.631,388.511c10.552,0,19.185,8.634,19.185,19.185s-8.634,19.186-19.185,19.186
	c-10.648,0-19.185-8.634-19.185-19.186S246.983,388.511,257.631,388.511z"/>
<path style="fill:#FFD311;" d="M188.85,278.193h134.299c0,37.124-30.026,67.15-67.15,67.15S188.85,315.317,188.85,278.193z"/>
<polygon style="fill:#E7ECED;" points="443.061,230.229 443.061,278.193 323.15,278.193 188.85,278.193 68.94,278.193 
	68.94,230.229 102.515,230.229 404.69,230.229 "/>
<rect x="102.52" y="86.338" style="fill:#C3C7C9;" width="302.178" height="143.897"/>
<rect x="102.52" y="187.061" style="fill:#A1A5A7;" width="302.178" height="43.168"/>
<path d="M451.437,221.853h-38.371V77.96H264.376V0h-16.752v77.96H94.139v143.893H60.564v64.716h120.387
	c4.182,37.717,36.237,67.15,75.05,67.15s70.869-29.434,75.05-67.15h120.387V221.853z M110.891,195.436h217.055v-16.752H110.891
	V94.712h285.422v127.141H110.891V195.436z M256.001,336.967c-29.565,0-54.088-21.945-58.167-50.398h116.334
	C310.088,315.022,285.564,336.967,256.001,336.967z M434.685,269.816H77.316v-31.213h357.37V269.816z"/>
<rect x="347.129" y="178.685" style="fill:#FFFFFF;" width="19.186" height="16.752"/>
<rect x="366.315" y="106.742" width="19.186" height="16.752"/>
<polygon style="fill:#FFFFFF;" points="122.917,148.689 139.669,148.689 139.669,123.49 164.868,123.49 164.868,106.738 
	122.917,106.738 "/>
<path d="M257.631,495.248c-38.197,0-50.839-31.626-51.345-32.936l-15.685,5.882c0.671,1.789,17.003,43.807,67.03,43.807
	c40.128,0,60.391-28.837,65.499-44.087l-15.884-5.321C307.137,462.92,295.864,495.248,257.631,495.248z"/>
<path d="M257.631,473.63c28.057,0,36.38-23.885,36.721-24.901l-15.856-5.403c-0.497,1.387-5.317,13.552-20.865,13.552
	c-15.862,0-21.265-12.412-21.8-13.751l-15.685,5.882C220.524,450.014,229.7,473.63,257.631,473.63z"/>
<path d="M257.631,435.258c15.197,0,27.562-12.364,27.562-27.562c0-15.197-12.364-27.561-27.562-27.561
	c-15.196,0-27.561,12.364-27.561,27.561C230.07,422.893,242.434,435.258,257.631,435.258z M257.631,396.887
	c5.961,0,10.81,4.849,10.81,10.809c0,5.96-4.849,10.81-10.81,10.81c-5.96,0-10.809-4.849-10.809-10.81
	C246.822,401.736,251.671,396.887,257.631,396.887z"/>
<rect x="179.254" y="106.742" width="33.582" height="16.752"/>
<g>
</g>
<g>
</g>
<g>
</g>
<g>
</g>
<g>
</g>
<g>
</g>
<g>
</g>
<g>
</g>
<g>
</g>
<g>
</g>
<g>
</g>
<g>
</g>
<g>
</g>
<g>
</g>
<g>
</g>
</svg>
