<?xml version="1.0" encoding="iso-8859-1"?>
<!-- Generator: Adobe Illustrator 19.0.0, SVG Export Plug-In . SVG Version: 6.00 Build 0)  -->
<svg version="1.1" id="Layer_1" xmlns="http://www.w3.org/2000/svg" xmlns:xlink="http://www.w3.org/1999/xlink" x="0px" y="0px"
	 viewBox="0 0 512 512" style="enable-background:new 0 0 512 512;" xml:space="preserve">
<path style="fill:#4EB9FF;" d="M335.246,351.055c0,82.49-66.872,149.362-149.363,149.362S36.521,433.545,36.521,351.055
	C36.522,256,185.885,11.584,185.885,11.584S335.246,256,335.246,351.055z"/>
<path style="fill:#174461;" d="M263.278,276.68c-2.558-6.626-5.342-13.523-8.35-20.678l-138.087-0.003
	c-3.049,7.253-5.868,14.239-8.454,20.947c-17.816,46.22-19.739,67.223-19.739,74.108c0,53.616,43.62,97.236,97.235,97.236
	s97.235-43.62,97.235-97.236C283.12,344.15,281.186,323.08,263.278,276.68z"/>
<g>
	<path style="fill:#01121C;" d="M191.677,0c-4.036,0-7.78,2.1-9.884,5.544C175.624,15.637,30.73,253.859,30.73,351.055
		C30.73,439.8,102.931,512,191.677,512s160.945-72.2,160.945-160.945c0-97.195-144.894-335.418-151.062-345.511
		C199.456,2.1,195.713,0,191.677,0z M191.677,488.833c-75.971,0-137.778-61.807-137.778-137.778
		c0-76.77,104.692-260.664,137.779-316.859c33.087,56.189,137.778,240.064,137.778,316.859
		C329.455,427.025,267.649,488.833,191.677,488.833z"/>
	<path style="fill:#01121C;" d="M111.954,251.511c-3.082,7.334-5.97,14.489-8.584,21.269
		c-17.848,46.306-20.514,68.917-20.514,78.275c0,60.002,48.816,108.819,108.819,108.819s108.819-48.816,108.819-108.819
		c0-9.383-2.679-32.064-20.619-78.546l0,0c-2.594-6.721-5.447-13.785-8.477-20.995c-1.808-4.299-6.015-7.095-10.679-7.095
		l-138.086-0.002C117.971,244.416,113.761,247.213,111.954,251.511z M130.369,267.584l122.616,0.002
		c1.856,4.534,3.622,8.974,5.279,13.266l0,0c17.689,45.834,19.064,65.323,19.064,70.203c0,47.228-38.423,85.651-85.651,85.651
		s-85.651-38.423-85.651-85.651c0-4.866,1.368-24.291,18.964-69.941C126.67,276.75,128.471,272.221,130.369,267.584z"/>
	<path style="fill:#01121C;" d="M469.686,0h-72.55c-6.397,0-11.584,5.186-11.584,11.584s5.187,11.584,11.584,11.584h60.966v58.304
		h-36.64c-6.397,0-11.584,5.186-11.584,11.584c0,6.398,5.187,11.584,11.584,11.584h36.64v58.304h-36.64
		c-6.397,0-11.584,5.186-11.584,11.584c0,6.398,5.187,11.584,11.584,11.584h36.64v58.305h-60.966
		c-6.397,0-11.584,5.186-11.584,11.584c0,6.398,5.187,11.584,11.584,11.584h60.966v58.304h-36.64
		c-6.397,0-11.584,5.186-11.584,11.584c0,6.398,5.187,11.584,11.584,11.584h36.64v58.304h-36.64
		c-6.397,0-11.584,5.186-11.584,11.584c0,6.398,5.187,11.584,11.584,11.584h36.64v58.305h-60.966
		c-6.397,0-11.584,5.186-11.584,11.584c0,6.398,5.187,11.584,11.584,11.584h72.55c6.397,0,11.584-5.186,11.584-11.584V11.584
		C481.27,5.186,476.082,0,469.686,0z"/>
</g>
<g>
</g>
<g>
</g>
<g>
</g>
<g>
</g>
<g>
</g>
<g>
</g>
<g>
</g>
<g>
</g>
<g>
</g>
<g>
</g>
<g>
</g>
<g>
</g>
<g>
</g>
<g>
</g>
<g>
</g>
</svg>
