<?xml version="1.0" encoding="iso-8859-1"?>
<!-- Generator: Adobe Illustrator 19.1.0, SVG Export Plug-In . SVG Version: 6.00 Build 0)  -->
<svg version="1.1" id="Capa_1" xmlns="http://www.w3.org/2000/svg" xmlns:xlink="http://www.w3.org/1999/xlink" x="0px" y="0px"
	 viewBox="0 0 217.228 217.228" style="enable-background:new 0 0 217.228 217.228;" xml:space="preserve">
<g>
	<g id="group-48svg">
		<path id="path-1_103_" style="fill:#0CB04A;" d="M69.157,167.266H49.124c-3.863,0-6.994,1.668-6.994,3.726
			s3.131,3.725,6.994,3.725h0.932c3.863,0,6.994,1.669,6.994,3.726c0,2.057-3.131,3.725-6.994,3.725H6.993
			c-3.863,0-6.993,1.668-6.993,3.725c0,2.058,3.13,3.725,6.993,3.725h51.752h105.778c3.863,0,6.994-1.667,6.994-3.725
			c0-2.057-3.131-3.725-6.994-3.725h-11.951c-3.862,0-6.993-1.668-6.993-3.725c0-2.057,3.131-3.726,6.993-3.726h46.94
			c3.863,0,6.994-1.667,6.994-3.725s-3.131-3.726-6.994-3.726h-3.503H69.157z"/>
		<path id="path-2_103_" style="fill:#0CB04A;" d="M193.397,190.617c-3.238,0-5.863-1.789-5.863-3.993
			c0-2.205,2.625-3.993,5.863-3.993h17.967c3.239,0,5.864,1.788,5.864,3.993c0,2.204-2.625,3.993-5.864,3.993H193.397z"/>
		<path id="path-3_103_" style="fill:#4C4C4C;" d="M169.812,99.145h8.06V74.967h-8.06V99.145z"/>
		<path id="path-4_103_" style="fill:#142A3B;" d="M134.156,178.6L134.156,178.6c-2.564,0-4.643-2.078-4.643-4.642v-20.788
			c0-2.564,2.079-4.642,4.643-4.642l0,0c2.564,0,4.642,2.078,4.642,4.642v20.788C138.798,176.522,136.72,178.6,134.156,178.6z"/>
		<path id="path-5_102_" style="fill:#142A3B;" d="M63.816,178.6L63.816,178.6c-2.564,0-4.642-2.078-4.642-4.642v-20.788
			c0-2.564,2.078-4.642,4.642-4.642l0,0c2.564,0,4.643,2.078,4.643,4.642v20.788C68.459,176.522,66.38,178.6,63.816,178.6z"/>
		<path id="path-6_99_" style="fill:#2476FF;" d="M86.164,155.242h8.486h8.486V70.386c4.25-33.338-23.055-42.982-46.449-42.982
			l-15.831,0.558c-17.261,0-31.066,24.723-31.066,42.424v80.613c0,2.347,1.897,4.244,4.243,4.244h23.53H86.164z"/>
		<path id="path-7_96_" style="opacity:0.35;enable-background:new    ;" d="M56.687,27.404L44.05,27.849
			c20.985,2.2,41.728,13.169,37.985,42.537v84.857h4.129h8.486h8.486V70.386C107.386,37.048,80.081,27.404,56.687,27.404z"/>
		<path id="path-8_75_" style="fill:#142A3B;" d="M151.678,26.611L51.127,27.263c26.666,0,51.356,9.083,51.356,35.75l-0.959,92.23
			l19.93,0.319h8.059h49.73h18.778c2.228,0,4.03-1.802,4.03-4.029V74.968C202.051,48.758,178.982,26.611,151.678,26.611z"/>
		<path id="path-9_66_" style="fill:#EDEDED;" d="M86.164,138.271H35.248c-2.346,0-4.244-1.898-4.244-4.243
			c0-2.344,1.898-4.243,4.244-4.243h50.916c2.346,0,4.243,1.899,4.243,4.243C90.407,136.372,88.51,138.271,86.164,138.271z"/>
		<path id="path-10_60_" style="opacity:0.35;enable-background:new    ;" d="M192.965,110.209c0,2.228-1.802,4.03-4.029,4.03
			h-16.12c-2.228,0-4.03-1.802-4.03-4.03V82.001h-40.298c-2.228,0-4.031-1.802-4.031-4.029c0-2.228,1.803-4.031,4.031-4.031h44.328
			h4.03h12.09c2.227,0,4.029,1.803,4.029,4.031V110.209z"/>
		<path id="path-11_50_" style="fill:#FF3A2F;" d="M185.932,103.176c0,2.227-1.802,4.029-4.03,4.029h-16.12
			c-2.227,0-4.03-1.802-4.03-4.029V74.967h-40.298c-2.228,0-4.03-1.801-4.03-4.029c0-2.227,1.802-4.029,4.03-4.029h44.328h4.03
			h12.09c2.228,0,4.03,1.802,4.03,4.029V103.176z"/>
	</g>
</g>
<g>
</g>
<g>
</g>
<g>
</g>
<g>
</g>
<g>
</g>
<g>
</g>
<g>
</g>
<g>
</g>
<g>
</g>
<g>
</g>
<g>
</g>
<g>
</g>
<g>
</g>
<g>
</g>
<g>
</g>
</svg>
