<?xml version="1.0" encoding="iso-8859-1"?>
<!-- Generator: Adobe Illustrator 19.0.0, SVG Export Plug-In . SVG Version: 6.00 Build 0)  -->
<svg version="1.1" id="Layer_1" xmlns="http://www.w3.org/2000/svg" xmlns:xlink="http://www.w3.org/1999/xlink" x="0px" y="0px"
	 viewBox="0 0 508 508" style="enable-background:new 0 0 508 508;" xml:space="preserve">
<circle style="fill:#FFD05B;" cx="254" cy="254" r="254"/>
<g>
	<path style="fill:#2B3B4E;" d="M348,390H213.6c-4.8,0-9.2-4-9.2-9.2v-43.2h4.8v43.2c0,2.4,2,4,4,4h134.4c2.4,0,4-2,4-4v-88.4h4.8
		v88.8C357.2,386,353.2,390,348,390z"/>
	<path style="fill:#2B3B4E;" d="M379.6,416.8H192c-4.8,0-9.2-4-9.2-9.2v-75.2h4.8V408c0,2.4,2,4,4,4h187.2c2.4,0,4-2,4-4v-85.6h4.8
		v85.2C388.4,412.8,384.4,416.8,379.6,416.8z"/>
</g>
<rect x="201.6" y="338.4" style="fill:#FF7058;" width="10.4" height="15.6"/>
<rect x="180.4" y="338.4" style="fill:#84DBFF;" width="10.4" height="15.6"/>
<g>
	<path style="fill:#FFFFFF;" d="M386,186.4L386,186.4c-1.2,0-2-0.8-2-2v-47.6c0-1.2,0.8-2,2-2l0,0c1.2,0,2,0.8,2,2v47.6
		C388,185.6,387.2,186.4,386,186.4z"/>
	<path style="fill:#FFFFFF;" d="M354.8,162L354.8,162c-1.2,0-2-0.8-2-2v-47.6c0-1.2,0.8-2,2-2l0,0c1.2,0,2,0.8,2,2V160
		C356.8,161.2,356,162,354.8,162z"/>
</g>
<path style="fill:#324A5E;" d="M283.6,345.6H124.4c-9.2,0-16.4-7.6-16.4-16.4V107.6c0-9.2,7.6-16.4,16.4-16.4h159.2
	c9.2,0,16.4,7.6,16.4,16.4v221.6C300,338.4,292.8,345.6,283.6,345.6z"/>
<rect x="126.4" y="121.6" style="fill:#84DBFF;" width="154.8" height="84"/>
<polygon style="fill:#54C0EB;" points="242.8,121.6 207.6,205.6 281.2,205.6 281.2,121.6 "/>
<path style="fill:#E6E9EE;" d="M233.6,303.2L233.6,303.2c-16.4,16.4-42.8,16.4-59.2,0l0,0c-16.4-16.4-16.4-42.8,0-59.2l0,0
	c16.4-16.4,42.8-16.4,59.2,0l0,0C250,260.4,250,287.2,233.6,303.2z"/>
<g>
	<path style="fill:#CED5E0;" d="M170,273.6c0-6.4,2-12.8,5.6-18.4l47.2,47.2c-13.2,8.4-30.8,7.2-42.4-4.4
		C173.2,291.2,170,282.4,170,273.6z"/>
	<path style="fill:#CED5E0;" d="M228,249.6c6.8,6.8,10,15.2,10,24c0,6.4-2,12.8-5.6,18.4l-46.8-46.8c5.6-3.6,12-5.6,18.4-5.6
		C212.8,239.6,221.2,243.2,228,249.6z"/>
</g>
<path style="fill:#FF7058;" d="M354.8,302.8L354.8,302.8c-4.4,0-8-3.6-8-8v-142h16v142C362.8,299.2,359.2,302.8,354.8,302.8z"/>
<rect x="340.8" y="166.8" style="fill:#F1543F;" width="28.4" height="8"/>
<path style="fill:#FFFFFF;" d="M386,330.4L386,330.4c-4.4,0-8-3.6-8-8v-142h16v142C394,326.8,390.4,330.4,386,330.4z"/>
<rect x="372" y="194.4" style="fill:#E6E9EE;" width="28.4" height="8"/>
<g>
</g>
<g>
</g>
<g>
</g>
<g>
</g>
<g>
</g>
<g>
</g>
<g>
</g>
<g>
</g>
<g>
</g>
<g>
</g>
<g>
</g>
<g>
</g>
<g>
</g>
<g>
</g>
<g>
</g>
</svg>
