<?xml version="1.0" encoding="iso-8859-1"?>
<!-- Generator: Adobe Illustrator 19.0.0, SVG Export Plug-In . SVG Version: 6.00 Build 0)  -->
<svg version="1.1" id="Capa_1" xmlns="http://www.w3.org/2000/svg" xmlns:xlink="http://www.w3.org/1999/xlink" x="0px" y="0px"
	 viewBox="0 0 390 390" style="enable-background:new 0 0 390 390;" xml:space="preserve">
<g id="XMLID_908_">
	<g id="XMLID_909_">
		<rect id="XMLID_910_" x="90" y="145" style="fill:#006DF0;" width="90" height="140"/>
		<rect id="XMLID_911_" y="145" style="fill:#0052B4;" width="90" height="140"/>
		<rect id="XMLID_912_" x="75" y="285" style="fill:#003778;" width="30" height="50"/>
		<rect id="XMLID_913_" x="40" y="315" style="fill:#003778;" width="100" height="30"/>
		<rect id="XMLID_914_" x="30" y="175" style="fill:#FFDA44;" width="120" height="80"/>
		<rect id="XMLID_915_" x="300" y="145" style="fill:#006DF0;" width="90" height="140"/>
		<rect id="XMLID_916_" x="210" y="145" style="fill:#0052B4;" width="90" height="140"/>
		<rect id="XMLID_917_" x="285" y="285" style="fill:#003778;" width="30" height="50"/>
		<rect id="XMLID_918_" x="250" y="315" style="fill:#003778;" width="100" height="30"/>
		<rect id="XMLID_919_" x="240" y="175" style="fill:#FFDA44;" width="120" height="80"/>
	</g>
	<g id="XMLID_920_">
		<path id="XMLID_921_" style="fill:#78B9EB;" d="M115,125c0-44.183,35.817-80,80-80c44.183,0,80,35.817,80,80"/>
		<path id="XMLID_922_" style="fill:#FFFFFF;" d="M145,125c0-27.614,22.386-50,50-50c27.614,0,50,22.386,50,50"/>
		<path id="XMLID_923_" style="fill:#006DF0;" d="M175,125c0-11.046,8.954-20,20-20c11.046,0,20,8.954,20,20"/>
	</g>
</g>
<g>
</g>
<g>
</g>
<g>
</g>
<g>
</g>
<g>
</g>
<g>
</g>
<g>
</g>
<g>
</g>
<g>
</g>
<g>
</g>
<g>
</g>
<g>
</g>
<g>
</g>
<g>
</g>
<g>
</g>
</svg>
