<?xml version="1.0" encoding="iso-8859-1"?>
<!-- Generator: Adobe Illustrator 19.1.0, SVG Export Plug-In . SVG Version: 6.00 Build 0)  -->
<svg version="1.1" id="Capa_1" xmlns="http://www.w3.org/2000/svg" xmlns:xlink="http://www.w3.org/1999/xlink" x="0px" y="0px"
	 viewBox="0 0 451.894 451.894" style="enable-background:new 0 0 451.894 451.894;" xml:space="preserve">
<g>
	<path style="fill:#D5C7C1;" d="M221.448,22.745h-4.737c-0.929,11.677-4.663,44.401-18.35,69.102h23.086V22.745z"/>
	<polygon style="fill:#CCB683;" points="317.81,201.674 319.201,196.918 132.693,196.918 134.084,201.674 	"/>
	<path style="fill:#CCB683;" d="M157.585,356.762h136.723v-37.444H157.585V356.762z M225.947,325.23
		c7.063,0,12.809,5.746,12.809,12.809c0,7.063-5.746,12.81-12.809,12.81s-12.809-5.747-12.809-12.81
		C213.138,330.977,218.884,325.23,225.947,325.23z"/>
	<path style="fill:#BB844C;" d="M225.947,341.849c2.1,0,3.809-1.709,3.809-3.81c0-2.1-1.709-3.809-3.809-3.809
		c-2.1,0-3.809,1.708-3.809,3.809C222.138,340.14,223.847,341.849,225.947,341.849z"/>
	<polygon style="fill:#CCB683;" points="136.717,396.379 315.177,396.379 313.786,391.623 138.108,391.623 	"/>
	<path style="fill:#C6CDC9;" d="M225.948,187.918c5.326,0,11.436-6.121,16.345-16.374c4.941-10.321,8.011-23.462,8.011-34.295
		c0-16.975-7.056-23.899-24.355-23.899c-17.3,0-24.356,6.924-24.356,23.899c0,10.833,3.069,23.974,8.011,34.295
		C214.511,181.797,220.621,187.918,225.948,187.918z"/>
	<path style="fill:#CCB683;" d="M275.592,91.848c-9.525-12.034-26.367-37.269-30.119-69.102h-1.241
		c1.078,12.373,5.269,46.462,19.773,69.102H275.592z"/>
	<path style="fill:#CCB683;" d="M206.421,22.745c-3.751,31.833-20.593,57.068-30.119,69.102h11.586
		c14.526-22.668,18.704-56.736,19.776-69.102H206.421z"/>
	<path style="fill:#D5C7C1;" d="M235.184,22.745h-4.736v69.102h23.085C239.847,67.147,236.113,34.422,235.184,22.745z"/>
	<path style="fill:#BB844C;" d="M225.948,9c-1.668,0-3.471,1.864-4.438,4.745h8.875C229.418,10.864,227.615,9,225.948,9z"/>
	<polygon style="fill:#BB844C;" points="317.81,405.379 134.084,405.379 132.693,410.135 319.201,410.135 	"/>
	<path style="fill:#CCB683;" d="M157.585,287.735h136.723v-37.444H157.585V287.735z M225.947,256.204
		c7.063,0,12.809,5.746,12.809,12.809c0,7.063-5.746,12.81-12.809,12.81s-12.809-5.747-12.809-12.81
		C213.138,261.95,218.884,256.204,225.947,256.204z"/>
	<path style="fill:#BB844C;" d="M139.391,224.43v158.193h173.111V224.43H139.391z M303.308,361.262c0,2.485-2.015,4.5-4.5,4.5
		H153.085c-2.485,0-4.5-2.015-4.5-4.5v-46.444c0-2.485,2.015-4.5,4.5-4.5h145.723c2.485,0,4.5,2.015,4.5,4.5V361.262z
		 M303.308,292.235c0,2.485-2.015,4.5-4.5,4.5H153.085c-2.485,0-4.5-2.015-4.5-4.5v-46.444c0-2.485,2.015-4.5,4.5-4.5h145.723
		c2.485,0,4.5,2.015,4.5,4.5V292.235z"/>
	<path style="fill:#BB844C;" d="M225.947,272.822c2.1,0,3.809-1.709,3.809-3.81c0-2.1-1.709-3.809-3.809-3.809
		c-2.1,0-3.809,1.708-3.809,3.809C222.138,271.113,223.847,272.822,225.947,272.822z"/>
	<path style="fill:#BB844C;" d="M149.719,419.135H136.94c-3.172,0-5.752,2.58-5.752,5.75c0,2.138,3.076,5.119,5.155,6.46
		c1.285,0.829,2.075,2.262,2.075,3.79v7.758h9.821v-7.758c0-1.54,0.788-2.974,2.088-3.799c2.065-1.333,5.142-4.314,5.142-6.452
		C155.469,421.714,152.89,419.135,149.719,419.135z"/>
	<polygon style="fill:#BB844C;" points="136.717,210.674 138.108,215.43 313.786,215.43 315.177,210.674 	"/>
	<path style="fill:#BB844C;" d="M314.956,419.135h-12.779c-3.172,0-5.752,2.58-5.752,5.75c0,2.138,3.076,5.119,5.155,6.46
		c1.285,0.829,2.075,2.262,2.075,3.79v7.758h9.821v-7.758c0-1.54,0.788-2.974,2.088-3.799c2.065-1.333,5.142-4.314,5.142-6.452
		C320.706,421.714,318.126,419.135,314.956,419.135z"/>
	<path style="fill:#7C5F53;" d="M298.808,241.291H153.085c-2.485,0-4.5,2.015-4.5,4.5v46.444c0,2.485,2.015,4.5,4.5,4.5h145.723
		c2.485,0,4.5-2.015,4.5-4.5v-46.444C303.308,243.306,301.293,241.291,298.808,241.291z M294.308,287.735H157.585v-37.444h136.723
		V287.735z"/>
	<path style="fill:#7C5F53;" d="M225.947,281.822c7.063,0,12.809-5.747,12.809-12.81c0-7.062-5.746-12.809-12.809-12.809
		s-12.809,5.746-12.809,12.809C213.138,276.076,218.884,281.822,225.947,281.822z M225.947,265.204c2.1,0,3.809,1.708,3.809,3.809
		c0,2.101-1.709,3.81-3.809,3.81c-2.1,0-3.809-1.709-3.809-3.81C222.138,266.913,223.847,265.204,225.947,265.204z"/>
	<path style="fill:#7C5F53;" d="M298.808,310.317H153.085c-2.485,0-4.5,2.015-4.5,4.5v46.444c0,2.485,2.015,4.5,4.5,4.5h145.723
		c2.485,0,4.5-2.015,4.5-4.5v-46.444C303.308,312.332,301.293,310.317,298.808,310.317z M294.308,356.762H157.585v-37.444h136.723
		V356.762z"/>
	<path style="fill:#7C5F53;" d="M225.947,350.849c7.063,0,12.809-5.747,12.809-12.81c0-7.062-5.746-12.809-12.809-12.809
		s-12.809,5.746-12.809,12.809C213.138,345.102,218.884,350.849,225.947,350.849z M225.947,334.23c2.1,0,3.809,1.708,3.809,3.809
		c0,2.101-1.709,3.81-3.809,3.81c-2.1,0-3.809-1.709-3.809-3.81C222.138,335.939,223.847,334.23,225.947,334.23z"/>
	<path style="fill:#7C5F53;" d="M328.807,417.333c0.85-1.134,1.116-2.602,0.718-3.962l-8.022-27.423V221.104l8.022-27.423
		c0.398-1.36,0.132-2.828-0.718-3.962c-0.85-1.134-2.184-1.801-3.601-1.801H242.52c10.475-12.192,16.783-34.312,16.783-50.669
		c0-20.601-9.455-31.345-28.855-32.737v-3.664h32.376v29.283c0,2.485,2.015,4.5,4.5,4.5c2.485,0,4.5-2.015,4.5-4.5v-29.283h13.565
		c1.809,0,3.44-1.084,4.144-2.75c0.704-1.666,0.34-3.593-0.921-4.89c-0.311-0.32-31.153-32.484-34.577-75.321
		c-0.187-2.339-2.14-4.142-4.486-4.142h-9.891C238.141,5.764,232.669,0,225.948,0c-6.722,0-12.194,5.764-13.712,13.745h-9.891
		c-2.346,0-4.299,1.803-4.486,4.142c-3.424,42.837-34.267,75.001-34.575,75.318c-1.264,1.295-1.629,3.222-0.926,4.89
		c0.703,1.668,2.337,2.752,4.147,2.752h54.943v3.664c-19.401,1.392-28.857,12.136-28.857,32.737
		c0,16.357,6.309,38.477,16.784,50.669h-82.687c-1.417,0-2.752,0.667-3.601,1.801c-0.85,1.134-1.116,2.602-0.718,3.962l8.022,27.423
		v164.844l-8.022,27.423c-0.398,1.36-0.132,2.828,0.718,3.962c0.222,0.296,0.478,0.558,0.758,0.787
		c-1.052,2.029-1.657,4.326-1.657,6.765c0,5.769,4.452,10.276,7.231,12.527v9.981c0,2.485,2.015,4.5,4.5,4.5h18.821
		c2.485,0,4.5-2.015,4.5-4.5v-9.981c2.778-2.252,7.23-6.759,7.23-12.527c0-2.039-0.416-3.982-1.168-5.75h125.291
		c-0.751,1.768-1.168,3.711-1.168,5.75c0,5.769,4.452,10.276,7.231,12.527v9.981c0,2.485,2.015,4.5,4.5,4.5h18.821
		c2.485,0,4.5-2.015,4.5-4.5v-9.981c2.778-2.252,7.23-6.759,7.23-12.527c0-2.439-0.604-4.736-1.657-6.765
		C328.329,417.892,328.585,417.629,328.807,417.333z M245.474,22.745c3.752,31.833,20.593,57.068,30.119,69.102h-11.586
		c-14.505-22.641-18.695-56.729-19.773-69.102H245.474z M230.448,22.745h4.736c0.929,11.677,4.663,44.402,18.35,69.102h-23.085
		V22.745z M225.948,9c1.667,0,3.471,1.864,4.437,4.745h-8.875C222.477,10.864,224.28,9,225.948,9z M176.302,91.848
		c9.526-12.034,26.368-37.269,30.119-69.102h1.244c-1.072,12.366-5.25,46.434-19.776,69.102H176.302z M198.361,91.848
		c13.687-24.701,17.421-57.425,18.35-69.102h4.737v69.102H198.361z M201.591,137.249c0-16.975,7.056-23.899,24.356-23.899
		c17.299,0,24.356,6.924,24.356,23.899c0,10.833-3.069,23.974-8.011,34.295c-4.908,10.252-11.018,16.374-16.345,16.374
		c-5.327,0-11.437-6.121-16.345-16.374C204.661,161.223,201.591,148.082,201.591,137.249z M319.201,196.918l-1.391,4.756H134.084
		l-1.391-4.756H319.201z M313.786,391.623l1.391,4.756h-178.46l1.391-4.756H313.786z M139.391,382.623V224.43h173.111v158.193
		H139.391z M313.786,215.43H138.108l-1.391-4.756h178.46L313.786,215.43z M150.328,431.336c-1.3,0.826-2.088,2.259-2.088,3.799
		v7.758h-9.821v-7.758c0-1.529-0.791-2.962-2.075-3.79c-2.079-1.341-5.155-4.322-5.155-6.46c0-3.17,2.58-5.75,5.752-5.75h12.779
		c3.17,0,5.75,2.58,5.75,5.75C155.469,427.023,152.393,430.004,150.328,431.336z M132.693,410.135l1.391-4.756H317.81l1.391,4.756
		H132.693z M315.564,431.336c-1.3,0.826-2.088,2.259-2.088,3.799v7.758h-9.821v-7.758c0-1.529-0.791-2.962-2.075-3.79
		c-2.079-1.341-5.155-4.322-5.155-6.46c0-3.17,2.58-5.75,5.752-5.75h12.779c3.17,0,5.75,2.58,5.75,5.75
		C320.706,427.023,317.629,430.004,315.564,431.336z"/>
</g>
<g>
</g>
<g>
</g>
<g>
</g>
<g>
</g>
<g>
</g>
<g>
</g>
<g>
</g>
<g>
</g>
<g>
</g>
<g>
</g>
<g>
</g>
<g>
</g>
<g>
</g>
<g>
</g>
<g>
</g>
</svg>
