<?xml version="1.0" encoding="iso-8859-1"?>
<!-- Generator: Adobe Illustrator 19.1.0, SVG Export Plug-In . SVG Version: 6.00 Build 0)  -->
<svg version="1.1" id="Capa_1" xmlns="http://www.w3.org/2000/svg" xmlns:xlink="http://www.w3.org/1999/xlink" x="0px" y="0px"
	 viewBox="0 0 445.011 445.011" style="enable-background:new 0 0 445.011 445.011;" xml:space="preserve">
<g>
	<path style="fill:#8EB1C4;" d="M178.959,165.831c0.549-0.029,1.125-0.045,1.727-0.045c15.286,0,41.454,9.874,79.538,56.697
		c1.52-0.041,8.598-1.472,18.183-22.772l-3.314-24.863c-1.982-4.03-16.335-29.661-62.143-33.562
		C209.418,141.826,186.777,146.028,178.959,165.831z"/>
	<path style="fill:#FEE361;" d="M226.718,134.087c23.64,4.487,38.173,14.737,46.626,23.431
		c-4.354-10.836-14.816-16.985-14.919-17.043C243.638,132.169,234.206,131.749,226.718,134.087z"/>
	<path style="fill:#929D79;" d="M261.87,243.847l7.263,13.308c5.294-0.185,9.509-0.006,12.547,0.253l-2.241-40.563
		c-4.645,7.169-8.989,11.027-12.776,12.956c-0.385,0.647-0.756,1.275-1.101,1.865c-1.205,2.059-2.298,3.884-3.514,5.452
		c0.107,0.647,0.177,1.308,0.177,1.984c0,1.466-0.273,2.864-0.75,4.167C261.615,243.452,261.756,243.638,261.87,243.847z"/>
	<path style="fill:#FFFFFF;" d="M250.043,235.92c-1.753,0-3.18,1.428-3.18,3.182c0,1.754,1.427,3.181,3.18,3.181
		c1.754,0,3.182-1.427,3.182-3.181C253.225,237.348,251.797,235.92,250.043,235.92z"/>
	<path style="fill:#D5C7C1;" d="M257.125,258.096c0.726-0.087,1.437-0.166,2.138-0.24l-4.189-7.674c-1.536,0.7-3.236,1.1-5.031,1.1
		c-1.542,0-3.013-0.3-4.372-0.825c-6.96,13.283-22.752,17.333-29.007,18.934c-0.551,0.141-3.409,0.944-4.22,1.169l2.111,4.794
		C221.857,269.901,236.992,260.506,257.125,258.096z"/>
	<path style="fill:#D5C7C1;" d="M192.409,254.4c-0.345,0.005-0.686,0.007-1.023,0.007c-4.689,0-8.669-0.46-11.922-1.085
		c0.047,0.199,0.1,0.397,0.119,0.603c0.033,0.311,0.963,8.311,7.689,9.993c8.414,2.1,26.513-3.081,27.162-3.247
		c5.52-1.412,20.182-5.163,24.346-16.835c0.006-0.018,0.018-0.032,0.023-0.05c-0.604-1.443-0.939-3.025-0.939-4.685
		c0-6.717,5.464-12.182,12.18-12.182c0.816,0,1.611,0.089,2.382,0.243c-37.274-45.509-60.896-52.377-71.739-52.377
		c-2.265,0-3.892,0.318-4.874,0.592c-1.084,2.213-2.462,5.511-3.438,9.082c6.01,2.189,12.797,7.355,11.568,17.191
		c-1.055,8.448-3.762,19.308-5.243,24.893l7.737,3.733c2.238,1.08,3.177,3.77,2.097,6.009c-0.776,1.607-2.383,2.545-4.056,2.545
		c-0.656,0-1.322-0.144-1.953-0.448l-11.107-5.36c-0.039-0.019-0.07-0.045-0.108-0.065c0.787,3.033,1.838,6.252,3.21,9.645
		c2.408,0.979,8.429,2.941,17.763,2.798h0.065c2.456,0,4.463,1.973,4.498,4.436C196.88,252.321,194.894,254.365,192.409,254.4z
		 M196.666,208.066c-0.66,2.396-3.13,3.773-5.525,3.111c-2.396-0.66-3.794-3.168-3.134-5.564c0.202-0.731,2.163-7.207,8.809-9.196
		c6.067-1.814,13.428,1.024,21.88,8.44c1.868,1.64,2.054,4.482,0.415,6.351c-0.89,1.014-2.134,1.532-3.385,1.532
		c-1.054,0-2.112-0.368-2.966-1.117c-8.062-7.074-11.998-6.972-13.316-6.598C197.451,205.589,196.674,208.041,196.666,208.066z"/>
	<path style="fill:#C9B64C;" d="M237.601,316.778c-25.665,1.927-43.124,24.218-44.184,25.603
		c-6.519,9.66-22.153,34.999-25.379,49.159h138.484c-0.822-10.66-4.336-37.436-19.153-52.158
		C271.016,323.131,254.253,315.529,237.601,316.778z"/>
	<path style="fill:#FEE361;" d="M268.359,128.014c-0.197-0.083-14.77-10.196-26.075-3.806c6.382,0.978,13.477,3.572,21.078,8.74
		c2.436,1.431,24.269,15.052,20.682,40.928c0,0,3.461,26.065,3.468,26.144c0.002,0.037,7.326,132.362,7.326,132.362
		c7.496,0.935,12.645-1.164,15.172-2.598l-1.054-7.634c-0.005-0.037-0.005-0.073-0.009-0.11c-0.002-0.017-0.008-0.033-0.01-0.051
		l-12.506-123.305c-0.001-0.009-0.004-0.019-0.005-0.027c-0.065-0.677-0.218-2.165-0.218-2.165s0-0.001,0-0.002
		C290.216,138.714,268.579,128.115,268.359,128.014z"/>
	<path style="fill:#D5C7C1;" d="M169.751,225.155c1.342-5.01,4.22-16.294,5.26-24.62c0.438-3.508-1.615-5.581-3.821-6.784
		c0.098,1.492,0.383,2.905,0.914,4.172c0.503,1.199,0.462,2.558-0.112,3.726C171.744,202.169,167.8,210.773,169.751,225.155z"/>
	<path style="fill:#BB844C;" d="M355.991,57.313c5.936-0.286,11.06-2.042,13.722-4.705c2.28-2.28,3.536-5.31,3.536-8.531
		c0-3.221-1.255-6.25-3.534-8.528c-1.653-1.653-3.849-2.562-6.186-2.562c0,0,0,0-0.001,0c-2.337,0-4.533,0.909-6.185,2.562
		c-1.154,1.153-1.789,2.684-1.79,4.313c0,1.628,0.634,3.159,1.786,4.31c1.758,1.757,1.76,4.606,0.003,6.364
		c-1.757,1.759-4.605,1.76-6.364,0.003c-2.854-2.852-4.426-6.645-4.425-10.679c0.001-2.434,0.59-4.772,1.673-6.874
		c0,0-36.892-0.001-36.956-0.004c-0.629-0.027-11.604-0.559-21.963-4.547c3.361,3.348,6.681,7.116,9.916,11.278
		C314.373,59.203,355.991,57.313,355.991,57.313z"/>
	<path style="fill:#BB844C;" d="M89.019,57.313c0,0,41.619,1.889,56.77-17.601c3.236-4.164,6.558-7.933,9.92-11.28
		c-10.36,3.99-21.338,4.522-21.967,4.549c-0.064,0.003-36.945,0.004-36.945,0.004c1.079,2.102,1.66,4.442,1.66,6.874
		c0.001,4.033-1.569,7.826-4.421,10.678c-1.757,1.757-4.607,1.756-6.364-0.001c-1.757-1.758-1.757-4.607,0.001-6.364
		c1.151-1.151,1.785-2.682,1.785-4.311c0-1.629-0.635-3.16-1.788-4.312c-1.652-1.653-3.849-2.563-6.187-2.562
		c-2.338,0-4.534,0.909-6.185,2.562c-2.281,2.279-3.536,5.308-3.535,8.529c0.001,3.222,1.256,6.252,3.535,8.531
		C77.959,55.271,83.084,57.027,89.019,57.313z"/>
	<path style="fill:#BB844C;" d="M382.249,44.078c0,4.906-1.67,9.558-4.737,13.307h7.692c2.485,0,4.5,2.015,4.5,4.5V420.37
		c0,2.485-2.015,4.5-4.5,4.5H59.807c-2.485,0-4.5-2.015-4.5-4.5V61.885c0-2.485,2.015-4.5,4.5-4.5h7.692
		c-3.067-3.749-4.736-8.399-4.737-13.307c0-3.986,1.119-7.792,3.177-11.093H45.752v403.025h353.507V32.985h-20.189
		C381.129,36.285,382.25,40.091,382.249,44.078z"/>
	<path style="fill:#CCB683;" d="M98.724,66.385c-1.803,0-34.417,0-34.417,0V415.87h316.397V66.385c0,0-32.614,0.01-34.416,0.01
		c-10.211,0-39.12-1.797-54.17-21.158c-12.98-16.698-27.407-26.492-38.657-26.233c-5.607,0.136-10.334,2.887-14.047,8.175
		c-5.432,7.735-3.861,16.434,4.31,23.865c5.085,4.626,9.484,3.666,11.903,1.229c1.427-1.437,2.839-4.345,0.881-6.466
		c-1.684-1.827-1.57-4.674,0.256-6.359c1.827-1.685,4.673-1.569,6.359,0.256c4.851,5.259,4.374,13.388-1.109,18.91
		c-5.335,5.372-15.228,7.382-24.345-0.911c-11.552-10.505-13.705-24.183-5.62-35.695c4.366-6.219,10.03-10.124,16.566-11.476
		c-7.853-1.125-16.554-1.512-26.11-1.528c-9.556,0.017-18.257,0.403-26.109,1.528c6.536,1.352,12.2,5.258,16.565,11.477
		c8.083,11.511,5.931,25.188-5.618,35.694c-9.115,8.29-19.008,6.286-24.344,0.912c-5.484-5.521-5.961-13.651-1.111-18.91
		c1.686-1.828,4.533-1.941,6.358-0.257c1.827,1.685,1.942,4.532,0.257,6.358c-1.957,2.122-0.545,5.03,0.882,6.467
		c2.421,2.438,6.818,3.395,11.902-1.229c8.169-7.432,9.74-16.13,4.308-23.865c-3.712-5.288-8.437-8.038-14.044-8.175
		c-11.229-0.249-25.678,9.533-38.658,26.233C137.845,64.596,108.936,66.385,98.724,66.385z M359.721,85.98
		c2.485,0,4.5,2.015,4.5,4.5v305.56c0,2.485-2.015,4.5-4.5,4.5H85.117c-2.485,0-4.5-2.015-4.5-4.5V90.48c0-2.485,2.015-4.5,4.5-4.5
		H359.721z"/>
	<path style="fill:#C6CDC9;" d="M282.42,270.788l-0.237-4.29c-4.246-0.44-12.441-0.846-23.988,0.533
		c-24.73,2.961-41.521,18.119-42.265,18.803c-0.12,0.113-7.043,5.558-10.826,13.964C218.261,288.908,243.736,273.065,282.42,270.788
		z"/>
	<path style="fill:#FEE361;" d="M332.159,313.422c-4.262-24.548-14.775-56.986-23.251-80.9l8.622,85.007
		C324.961,318.016,329.879,315.173,332.159,313.422z"/>
	<path style="fill:#C9B64C;" d="M300.666,341.555c10.008,15.086,13.387,34.496,14.523,45.608c0.668-21.078-2.764-39.174-4.75-47.688
		C307.826,340.476,304.564,341.321,300.666,341.555z"/>
	<path style="fill:#929D79;" d="M185.123,338.593c-0.893-12.789,5.694-23.409,8.331-27.107c0.087-14.949,9.206-25.602,13.919-30.111
		l-3.855-8.754c-3.168,0.561-6.623,0.967-10.089,0.967c-2.827,0-5.657-0.268-8.34-0.939c-11.096-2.775-13.758-13.488-14.327-16.872
		c-15.503-29.033-9.931-50.011-7.626-56.227c-3.543-11.599,3.402-25.927,5.208-29.352c5.976-29.398,36.031-36.482,42.625-37.689
		c2.449-1.961,8.534-6.197,17.21-7.971c4.136-5.188,18.782-19.697,44.112-4.618c3.749,2.049,26.594,15.157,32.869,75.661
		c0,0.001,0.119,1.13,0.163,1.58c3,7.539,29.24,74.229,36.121,117.229c0.213,1.329-0.181,2.684-1.072,3.692
		c-0.355,0.402-7.901,8.699-21.721,8.499l0.649,4.703c0.159,1.149-0.14,2.298-0.8,3.224c2.001,7.73,7.003,30.228,5.498,57.031
		h31.221V94.98H89.617v296.56h69.284C161.982,374.291,180.296,345.86,185.123,338.593z"/>
	<path style="fill:#C9B64C;" d="M201.483,315.777c-0.006,0.007-0.014,0.012-0.019,0.02c-0.006,0.007-0.009,0.016-0.015,0.022
		c-0.051,0.063-3.675,4.584-5.834,11.136c8.729-7.914,23.066-17.782,41.312-19.151c16.475-1.24,32.765,4.708,48.517,17.688
		l-2.526-45.701C228.417,283.048,201.753,315.441,201.483,315.777z"/>
	<path style="fill:#7C5F53;" d="M403.759,23.985h-92.181c-1.349-0.074-18.51-1.165-27.316-8.559C269.283,2.851,244.606,0,222.505,0
		c-22.102,0-46.773,2.851-61.752,15.427c-8.814,7.398-25.992,8.485-27.318,8.559H41.469c0,0-0.143,0-0.217,0
		c-2.485,0-4.5,2.015-4.5,4.5v412.025c0,2.485,2.015,4.5,4.5,4.5h362.507c2.485,0,4.5-2.015,4.5-4.5l-0.061-412.632
		C407.899,25.684,406.036,23.985,403.759,23.985z M311.271,32.981c0.065,0.003,36.956,0.004,36.956,0.004
		c-1.083,2.102-1.672,4.44-1.673,6.874c-0.001,4.034,1.57,7.827,4.425,10.679c1.759,1.757,4.607,1.756,6.364-0.003
		c1.757-1.759,1.755-4.607-0.003-6.364c-1.152-1.15-1.786-2.682-1.786-4.31c0.001-1.629,0.636-3.16,1.79-4.313
		c1.651-1.652,3.848-2.562,6.185-2.562c0.001,0,0.001,0,0.001,0c2.337,0,4.532,0.909,6.186,2.562
		c2.279,2.278,3.534,5.308,3.534,8.528c0,3.222-1.256,6.251-3.536,8.531c-2.662,2.663-7.786,4.419-13.722,4.705
		c0,0-41.618,1.89-56.767-17.601c-3.235-4.162-6.555-7.931-9.916-11.278C299.666,32.423,310.642,32.954,311.271,32.981z
		 M191.552,19.003c5.607,0.137,10.332,2.887,14.044,8.175c5.432,7.735,3.861,16.434-4.308,23.865
		c-5.083,4.623-9.481,3.667-11.902,1.229c-1.427-1.437-2.839-4.345-0.882-6.467c1.685-1.826,1.57-4.674-0.257-6.358
		c-1.826-1.685-4.673-1.571-6.358,0.257c-4.851,5.259-4.373,13.389,1.111,18.91c5.336,5.374,15.229,7.378,24.344-0.912
		c11.549-10.506,13.702-24.184,5.618-35.694c-4.365-6.219-10.029-10.125-16.565-11.477c7.852-1.125,16.553-1.512,26.109-1.528
		c9.556,0.017,18.257,0.403,26.11,1.528c-6.536,1.352-12.2,5.257-16.566,11.476c-8.085,11.513-5.932,25.19,5.62,35.695
		c9.116,8.293,19.01,6.283,24.345,0.911c5.483-5.522,5.96-13.651,1.109-18.91c-1.687-1.825-4.532-1.941-6.359-0.256
		c-1.826,1.686-1.94,4.532-0.256,6.359c1.958,2.121,0.546,5.029-0.881,6.466c-2.419,2.438-6.818,3.397-11.903-1.229
		c-8.171-7.432-9.741-16.13-4.31-23.865c3.713-5.288,8.439-8.039,14.047-8.175c11.25-0.259,25.677,9.535,38.657,26.233
		c15.05,19.361,43.959,21.158,54.17,21.158c1.802,0,34.416-0.01,34.416-0.01V415.87H64.307V66.385c0,0,32.614,0,34.417,0
		c10.213,0,39.121-1.789,54.17-21.149C165.874,28.536,180.324,18.754,191.552,19.003z M75.297,35.548
		c1.651-1.652,3.848-2.562,6.185-2.562c2.338-0.001,4.535,0.909,6.187,2.562c1.152,1.152,1.788,2.684,1.788,4.312
		c0,1.629-0.633,3.159-1.785,4.311c-1.757,1.758-1.758,4.606-0.001,6.364c1.756,1.757,4.606,1.758,6.364,0.001
		c2.853-2.852,4.423-6.645,4.421-10.678c-0.001-2.432-0.582-4.772-1.66-6.874c0,0,36.881-0.001,36.945-0.004
		c0.629-0.027,11.607-0.559,21.967-4.549c-3.363,3.348-6.685,7.116-9.92,11.28c-15.15,19.489-56.77,17.601-56.77,17.601
		c-5.935-0.286-11.06-2.042-13.722-4.705c-2.279-2.279-3.535-5.31-3.535-8.531C71.761,40.855,73.016,37.827,75.297,35.548z
		 M399.259,436.011H45.752V32.985h20.187c-2.058,3.301-3.177,7.106-3.177,11.093c0,4.907,1.67,9.558,4.737,13.307h-7.692
		c-2.485,0-4.5,2.015-4.5,4.5V420.37c0,2.485,2.015,4.5,4.5,4.5h325.397c2.485,0,4.5-2.015,4.5-4.5V61.885
		c0-2.485-2.015-4.5-4.5-4.5h-7.692c3.067-3.749,4.737-8.4,4.737-13.307c0.001-3.987-1.12-7.793-3.18-11.093h20.189V436.011z"/>
	<path style="fill:#7C5F53;" d="M199.444,205.025c1.319-0.374,5.254-0.477,13.316,6.598c0.854,0.749,1.912,1.117,2.966,1.117
		c1.251,0,2.495-0.519,3.385-1.532c1.639-1.868,1.453-4.711-0.415-6.351c-8.452-7.416-15.812-10.254-21.88-8.44
		c-6.646,1.989-8.607,8.465-8.809,9.196c-0.66,2.396,0.738,4.904,3.134,5.564c2.396,0.662,4.865-0.715,5.525-3.111
		C196.674,208.041,197.451,205.589,199.444,205.025z"/>
	<path style="fill:#7C5F53;" d="M80.617,90.48v305.56c0,2.485,2.015,4.5,4.5,4.5h274.604c2.485,0,4.5-2.015,4.5-4.5V90.48
		c0-2.485-2.015-4.5-4.5-4.5H85.117C82.632,85.98,80.617,87.995,80.617,90.48z M168.038,391.54
		c3.226-14.16,18.86-39.499,25.379-49.159c1.059-1.385,18.518-23.676,44.184-25.603c16.652-1.249,33.415,6.353,49.769,22.604
		c14.817,14.723,18.331,41.498,19.153,52.158H168.038z M192.347,245.4h-0.065c-9.334,0.144-15.355-1.819-17.763-2.798
		c-1.372-3.393-2.423-6.611-3.21-9.645c0.038,0.02,0.069,0.046,0.108,0.065l11.107,5.36c0.631,0.305,1.297,0.448,1.953,0.448
		c1.673,0,3.28-0.938,4.056-2.545c1.08-2.238,0.141-4.929-2.097-6.009l-7.737-3.733c1.48-5.585,4.188-16.444,5.243-24.893
		c1.23-9.836-5.558-15.002-11.568-17.191c0.976-3.571,2.354-6.869,3.438-9.082c0.982-0.273,2.609-0.592,4.874-0.592
		c10.843,0,34.465,6.868,71.739,52.377c-0.771-0.154-1.565-0.243-2.382-0.243c-6.716,0-12.18,5.465-12.18,12.182
		c0,1.659,0.336,3.241,0.939,4.685c-0.006,0.018-0.018,0.032-0.023,0.05c-4.164,11.672-18.826,15.423-24.346,16.835
		c-0.649,0.166-18.748,5.347-27.162,3.247c-6.726-1.682-7.656-9.682-7.689-9.993c-0.019-0.205-0.072-0.403-0.119-0.603
		c3.253,0.625,7.233,1.085,11.922,1.085c0.337,0,0.679-0.002,1.023-0.007c2.485-0.035,4.471-2.079,4.436-4.564
		C196.81,247.373,194.802,245.4,192.347,245.4z M172.103,197.923c-0.531-1.267-0.816-2.68-0.914-4.172
		c2.206,1.203,4.26,3.276,3.821,6.784c-1.04,8.326-3.917,19.61-5.26,24.62c-1.951-14.382,1.993-22.986,2.241-23.507
		C172.566,200.48,172.606,199.122,172.103,197.923z M296.427,198.658c0.001,0.009,0.004,0.019,0.005,0.027l12.506,123.305
		c0.002,0.018,0.008,0.033,0.01,0.051c0.004,0.037,0.004,0.073,0.009,0.11l1.054,7.634c-2.526,1.434-7.676,3.532-15.172,2.598
		c0,0-7.324-132.325-7.326-132.362c-0.007-0.079-3.468-26.144-3.468-26.144c3.587-25.876-18.245-39.497-20.682-40.928
		c-7.602-5.168-14.696-7.763-21.078-8.74c11.305-6.391,25.878,3.723,26.075,3.806c0.22,0.102,21.856,10.7,27.85,68.477
		c0,0.001,0,0.002,0,0.002S296.362,197.982,296.427,198.658z M262.048,237.117c1.216-1.568,2.309-3.394,3.514-5.452
		c0.345-0.59,0.716-1.218,1.101-1.865c3.787-1.929,8.132-5.787,12.776-12.956l2.241,40.563c-3.038-0.259-7.253-0.438-12.547-0.253
		l-7.263-13.308c-0.114-0.209-0.255-0.395-0.396-0.578c0.477-1.303,0.75-2.701,0.75-4.167
		C262.225,238.425,262.155,237.765,262.048,237.117z M258.425,140.475c0.104,0.058,10.565,6.207,14.919,17.043
		c-8.453-8.693-22.986-18.943-46.626-23.431C234.206,131.749,243.638,132.169,258.425,140.475z M275.093,174.848l3.314,24.863
		c-9.585,21.301-16.662,22.731-18.183,22.772c-38.084-46.823-64.252-56.697-79.538-56.697c-0.602,0-1.178,0.016-1.727,0.045
		c7.818-19.803,30.46-24.005,33.991-24.545C258.758,145.186,273.11,170.817,275.093,174.848z M253.225,239.102
		c0,1.754-1.428,3.181-3.182,3.181c-1.753,0-3.18-1.427-3.18-3.181c0-1.754,1.427-3.182,3.18-3.182
		C251.797,235.92,253.225,237.348,253.225,239.102z M216.664,269.391c6.254-1.6,22.047-5.65,29.007-18.934
		c1.359,0.525,2.83,0.825,4.372,0.825c1.795,0,3.495-0.4,5.031-1.1l4.189,7.674c-0.701,0.074-1.412,0.153-2.138,0.24
		c-20.133,2.41-35.268,11.806-42.57,17.258l-2.111-4.794C213.255,270.335,216.113,269.531,216.664,269.391z M215.929,285.834
		c0.744-0.684,17.535-15.842,42.265-18.803c11.547-1.379,19.742-0.973,23.988-0.533l0.237,4.29
		c-38.684,2.276-64.159,18.12-77.316,29.01C208.886,291.392,215.81,285.947,215.929,285.834z M282.917,279.79l2.526,45.701
		c-15.752-12.98-32.042-18.928-48.517-17.688c-18.246,1.369-32.583,11.237-41.312,19.151c2.159-6.552,5.783-11.072,5.834-11.136
		c0.006-0.007,0.009-0.016,0.015-0.022c0.006-0.008,0.014-0.013,0.019-0.02C201.753,315.441,228.417,283.048,282.917,279.79z
		 M315.19,387.163c-1.137-11.112-4.516-30.522-14.523-45.608c3.897-0.233,7.16-1.079,9.773-2.079
		C312.426,347.989,315.857,366.085,315.19,387.163z M308.908,232.521c8.476,23.914,18.989,56.352,23.251,80.9
		c-2.28,1.751-7.198,4.594-14.629,4.106L308.908,232.521z M89.617,94.98h265.604v296.56H324c1.505-26.804-3.497-49.301-5.498-57.031
		c0.66-0.926,0.959-2.074,0.8-3.224l-0.649-4.703c13.819,0.2,21.365-8.097,21.721-8.499c0.892-1.009,1.285-2.363,1.072-3.692
		c-6.881-43-33.121-109.69-36.121-117.229c-0.044-0.45-0.163-1.579-0.163-1.58c-6.275-60.504-29.12-73.612-32.869-75.661
		c-25.33-15.079-39.977-0.569-44.112,4.618c-8.676,1.773-14.761,6.01-17.21,7.971c-6.595,1.208-36.649,8.291-42.625,37.689
		c-1.806,3.425-8.751,17.753-5.208,29.352c-2.305,6.216-7.878,27.193,7.626,56.227c0.569,3.384,3.231,14.098,14.327,16.872
		c2.683,0.671,5.513,0.939,8.34,0.939c3.466,0,6.921-0.406,10.089-0.967l3.855,8.754c-4.713,4.51-13.831,15.162-13.919,30.111
		c-2.637,3.697-9.224,14.317-8.331,27.107c-4.827,7.268-23.141,35.698-26.222,52.947H89.617V94.98z"/>
</g>
<g>
</g>
<g>
</g>
<g>
</g>
<g>
</g>
<g>
</g>
<g>
</g>
<g>
</g>
<g>
</g>
<g>
</g>
<g>
</g>
<g>
</g>
<g>
</g>
<g>
</g>
<g>
</g>
<g>
</g>
</svg>
