<?xml version="1.0" encoding="iso-8859-1"?>
<!-- Generator: Adobe Illustrator 19.0.0, SVG Export Plug-In . SVG Version: 6.00 Build 0)  -->
<svg version="1.1" id="Layer_1" xmlns="http://www.w3.org/2000/svg" xmlns:xlink="http://www.w3.org/1999/xlink" x="0px" y="0px"
	 viewBox="0 0 299.637 299.637" style="enable-background:new 0 0 299.637 299.637;" xml:space="preserve">
<g>
	<path style="fill:#3CAED6;" d="M149.818,0c0,0,112.364,125.22,112.364,187.273c0,62.062-50.311,112.364-112.364,112.364
		S37.455,249.335,37.455,187.273C37.455,125.22,149.818,0,149.818,0z"/>
	<path style="fill:#63BFDE;" d="M196.581,149.818c-10.366,0-18.783,8.409-18.783,18.783c0,10.375,8.409,18.802,18.783,18.802
		c10.374,0,18.783-8.427,18.783-18.802C215.365,158.227,206.956,149.818,196.581,149.818z"/>
	<path style="fill:#369DC0;" d="M159.182,290.273c-62.053,0-112.364-50.301-112.364-112.364c0-51.472,77.25-146.326,103.618-177.216
		L149.818,0c0,0-112.364,125.22-112.364,187.273c0,62.062,50.311,112.364,112.364,112.364c33.409,0,63.336-14.663,83.908-37.82
		C213.884,279.467,187.826,290.273,159.182,290.273z"/>
</g>
<g>
</g>
<g>
</g>
<g>
</g>
<g>
</g>
<g>
</g>
<g>
</g>
<g>
</g>
<g>
</g>
<g>
</g>
<g>
</g>
<g>
</g>
<g>
</g>
<g>
</g>
<g>
</g>
<g>
</g>
</svg>
