<?xml version="1.0" encoding="iso-8859-1"?>
<!-- Generator: Adobe Illustrator 19.0.0, SVG Export Plug-In . SVG Version: 6.00 Build 0)  -->
<svg version="1.1" id="Layer_1" xmlns="http://www.w3.org/2000/svg" xmlns:xlink="http://www.w3.org/1999/xlink" x="0px" y="0px"
	 viewBox="0 0 299.637 299.637" style="enable-background:new 0 0 299.637 299.637;" xml:space="preserve">
<g>
	<path style="fill:#26A6D1;" d="M154.5,229.409c-7.491,0-14.045,6.555-14.045,14.045v9.364c0,7.491,6.555,14.045,14.045,14.045
		s14.045-6.555,14.045-14.045v-9.364C168.545,235.964,161.991,229.409,154.5,229.409z M210.682,229.409
		c-7.491,0-14.045,6.555-14.045,14.045v9.364c0,7.491,6.555,14.045,14.045,14.045c7.491,0,14.045-6.555,14.045-14.045v-9.364
		C224.727,235.964,218.173,229.409,210.682,229.409z M98.318,229.409c-7.491,0-14.045,6.555-14.045,14.045v9.364
		c0,7.491,6.555,14.045,14.045,14.045c7.491,0,14.045-6.555,14.045-14.045v-9.364C112.364,235.964,105.809,229.409,98.318,229.409z"
		/>
	<path style="fill:#E4E7E7;" d="M251.882,89.891c-6.555-31.836-34.645-57.118-69.291-57.118c-24.345,0-45.882,12.173-58.055,30.9
		c-3.745-1.873-7.491-2.809-12.173-2.809c-15.918,0-28.091,12.173-28.091,28.091l0,0H79.59c-28.091,0-51.5,23.409-51.5,51.5
		c0,1.873,0,3.745,0,4.682C12.173,147.009,0,161.055,0,177.909c0,17.791,14.982,32.773,32.773,32.773h206
		c33.709,0,60.864-27.155,60.864-60.864C299.636,120.791,279.036,96.445,251.882,89.891z"/>
</g>
<g>
</g>
<g>
</g>
<g>
</g>
<g>
</g>
<g>
</g>
<g>
</g>
<g>
</g>
<g>
</g>
<g>
</g>
<g>
</g>
<g>
</g>
<g>
</g>
<g>
</g>
<g>
</g>
<g>
</g>
</svg>
