<?xml version="1.0" encoding="iso-8859-1"?>
<!-- Generator: Adobe Illustrator 19.0.0, SVG Export Plug-In . SVG Version: 6.00 Build 0)  -->
<svg version="1.1" id="Layer_1" xmlns="http://www.w3.org/2000/svg" xmlns:xlink="http://www.w3.org/1999/xlink" x="0px" y="0px"
	 viewBox="0 0 512 512" style="enable-background:new 0 0 512 512;" xml:space="preserve">
<circle style="fill:#FCD063;" cx="256" cy="256" r="256"/>
<g>
	<path style="fill:#F7B84E;" d="M420.256,59.744C457.504,104.208,480,161.456,480,224c0,141.376-114.624,256-256,256
		c-62.544,0-119.792-22.496-164.256-59.744C106.704,476.32,177.152,512,256,512c141.376,0,256-114.624,256-256
		C512,177.152,476.32,106.704,420.256,59.744z"/>
	<circle style="fill:#F7B84E;" cx="408" cy="296" r="24"/>
	<circle style="fill:#F7B84E;" cx="104" cy="296" r="24"/>
</g>
<path style="fill:#C98E3F;" d="M343.28,320H168.72c-4.816,0-8.72,3.584-8.72,8c0,48.528,43.056,88,96,88s96-39.472,96-88
	C352,323.584,348.096,320,343.28,320z"/>
<path style="fill:#AB7934;" d="M351.36,336c0.288-2.656,0.64-5.28,0.64-8c0-4.416-3.904-8-8.72-8H168.72c-4.816,0-8.72,3.584-8.72,8
	c0,2.72,0.352,5.344,0.64,8H351.36z"/>
<path style="fill:#35495C;" d="M496,160h-34.944c-6.64-18.592-24.224-32-45.056-32h-96c-16.704,0-31.408,8.592-40,21.568
	c-7.472-3.632-15.584-5.568-24-5.568s-16.528,1.936-24,5.568C223.408,136.592,208.704,128,192,128H96
	c-20.832,0-38.416,13.408-45.056,32H16c-8.832,0-16,7.168-16,16s7.168,16,16,16h32v32c0,26.464,21.536,48,48,48h96
	c26.464,0,48-21.536,48-48v-41.424c9.6-8.208,22.4-8.208,32,0V224c0,26.464,21.536,48,48,48h96c26.464,0,48-21.536,48-48v-32h32
	c8.848,0,16-7.168,16-16S504.848,160,496,160z"/>
<g>
	<path style="fill:#576D7E;" d="M81.152,269.408L144,128h-16L68.064,262.864C72,265.712,76.432,267.856,81.152,269.408z"/>
	<path style="fill:#576D7E;" d="M305.152,269.408L368,128h-16l-59.936,134.864C296,265.712,300.432,267.856,305.152,269.408z"/>
	<polygon style="fill:#576D7E;" points="352,272 320,272 384,128 416,128 	"/>
	<polygon style="fill:#576D7E;" points="128,272 96,272 160,128 192,128 	"/>
</g>
<g>
</g>
<g>
</g>
<g>
</g>
<g>
</g>
<g>
</g>
<g>
</g>
<g>
</g>
<g>
</g>
<g>
</g>
<g>
</g>
<g>
</g>
<g>
</g>
<g>
</g>
<g>
</g>
<g>
</g>
</svg>
