<?xml version="1.0" encoding="iso-8859-1"?>
<!-- Generator: Adobe Illustrator 19.0.0, SVG Export Plug-In . SVG Version: 6.00 Build 0)  -->
<svg version="1.1" id="Layer_1" xmlns="http://www.w3.org/2000/svg" xmlns:xlink="http://www.w3.org/1999/xlink" x="0px" y="0px"
	 viewBox="0 0 512 512" style="enable-background:new 0 0 512 512;" xml:space="preserve">
<g>
	<path style="fill:#F95428;" d="M18.642,136.647l-2.917-4.017C3.02,115.128,6.91,90.641,24.411,77.936l0,0
		c17.501-12.705,41.99-8.816,54.694,8.686l2.917,4.017L18.642,136.647z"/>
	<path style="fill:#F95428;" d="M493.358,136.647l2.917-4.017c12.705-17.501,8.816-41.99-8.686-54.694l0,0
		c-17.501-12.705-41.99-8.816-54.694,8.686l-2.917,4.017L493.358,136.647z"/>
	<rect x="160.233" y="410.113" style="fill:#F95428;" width="191.527" height="31.438"/>
</g>
<polyline style="fill:#2BA5F7;" points="209.021,410.109 438.46,122.758 458.316,140.407 328.153,410.109 "/>
<polyline style="fill:#F7B239;" points="302.98,410.109 73.54,122.758 53.685,140.407 183.848,410.109 "/>
<polygon style="fill:#9AD14B;" points="209.021,410.109 302.976,410.109 255.999,351.274 "/>
<g>
	<circle style="fill:#FFFFFF;" cx="48.624" cy="90.839" r="8.273"/>
	<circle style="fill:#FFFFFF;" cx="481.029" cy="97.458" r="8.273"/>
</g>
<g>
	<path style="fill:#333333;" d="M461.912,132.957c-4.118-1.988-9.06-0.259-11.047,3.855L322.959,401.836h-16l-40.373-50.563
		l178.34-223.353c2.85-3.571,2.268-8.776-1.304-11.628c-3.57-2.851-8.776-2.268-11.628,1.303L255.999,338.014L81.392,119.34
		c-2.85-3.57-8.056-4.154-11.628-1.303c-3.571,2.85-4.154,8.057-1.303,11.628l176.95,221.611l-40.371,50.562h-15.999L61.135,136.811
		c-1.987-4.116-6.933-5.842-11.046-3.855c-4.114,1.986-5.841,6.932-3.855,11.046l124.435,257.833h-10.434
		c-4.569,0-8.273,3.704-8.273,8.273v23.165H77.302c-4.569,0-8.273,3.704-8.273,8.273s3.704,8.273,8.273,8.273h357.396
		c4.57,0,8.273-3.704,8.273-8.273s-3.703-8.273-8.273-8.273h-74.661v-23.165c0-4.569-3.703-8.273-8.273-8.273h-10.433
		l124.435-257.833C467.753,139.889,466.026,134.943,461.912,132.957z M255.999,364.533l29.785,37.303h-59.57L255.999,364.533z
		 M343.492,433.274H168.508v-14.892h174.984V433.274z"/>
	<path style="fill:#333333;" d="M90.192,91.936c0.344-2.166-0.186-4.383-1.476-6.157L85.8,81.761
		c-7.444-10.253-18.432-16.994-30.946-18.982c-12.51-1.988-25.05,1.017-35.303,8.461C-1.615,86.605-6.334,116.324,9.03,137.488
		l2.917,4.017c1.618,2.229,4.142,3.414,6.702,3.414c1.684,0,3.385-0.513,4.852-1.579l63.38-46.008
		C88.658,96.045,89.848,94.103,90.192,91.936z M20.619,124.988c-7.754-13.501-4.226-31.01,8.653-40.358
		c5.469-3.97,11.813-5.88,18.104-5.88c8.523,0,16.945,3.509,22.949,10.157L20.619,124.988z"/>
	<path style="fill:#333333;" d="M492.449,71.241c-10.253-7.444-22.794-10.448-35.304-8.459
		c-12.513,1.987-23.503,8.729-30.946,18.982l-2.917,4.017c-1.289,1.775-1.819,3.991-1.476,6.157c0.345,2.166,1.535,4.109,3.31,5.397
		l63.379,46.008c1.468,1.066,3.168,1.578,4.854,1.578c2.558,0,5.083-1.184,6.701-3.414l2.917-4.017
		C518.334,116.325,513.615,86.606,492.449,71.241z M491.383,124.989l-49.708-36.084c4.711-5.229,11.018-8.665,18.066-9.784
		c8.152-1.293,16.311,0.663,22.988,5.51c6.677,4.847,11.066,12.003,12.36,20.151C496.207,111.83,494.895,118.891,491.383,124.989z"
		/>
</g>
<g>
</g>
<g>
</g>
<g>
</g>
<g>
</g>
<g>
</g>
<g>
</g>
<g>
</g>
<g>
</g>
<g>
</g>
<g>
</g>
<g>
</g>
<g>
</g>
<g>
</g>
<g>
</g>
<g>
</g>
</svg>
