<?xml version="1.0" encoding="UTF-8" standalone="no"?>
<!-- Created with Inkscape (http://www.inkscape.org/) -->

<svg
   xmlns:dc="http://purl.org/dc/elements/1.1/"
   xmlns:cc="http://creativecommons.org/ns#"
   xmlns:rdf="http://www.w3.org/1999/02/22-rdf-syntax-ns#"
   xmlns:svg="http://www.w3.org/2000/svg"
   xmlns="http://www.w3.org/2000/svg"
   xmlns:sodipodi="http://sodipodi.sourceforge.net/DTD/sodipodi-0.dtd"
   xmlns:inkscape="http://www.inkscape.org/namespaces/inkscape"
   width="501.69138"
   height="283.53214"
   viewBox="0 0 501.69138 283.53214"
   id="svg5081"
   version="1.1"
   inkscape:version="0.91 r13725"
   sodipodi:docname="sprinkler.svg">
  <defs
     id="defs5083" />
  <sodipodi:namedview
     id="base"
     pagecolor="#ffffff"
     bordercolor="#666666"
     borderopacity="1.0"
     inkscape:pageopacity="0.0"
     inkscape:pageshadow="2"
     inkscape:zoom="0.35"
     inkscape:cx="-61.419425"
     inkscape:cy="-229.66249"
     inkscape:document-units="px"
     inkscape:current-layer="layer1"
     showgrid="false"
     inkscape:window-width="1244"
     inkscape:window-height="779"
     inkscape:window-x="36"
     inkscape:window-y="21"
     inkscape:window-maximized="1"
     units="px"
     fit-margin-top="0"
     fit-margin-left="0"
     fit-margin-right="0"
     fit-margin-bottom="0" />
  <metadata
     id="metadata5086">
    <rdf:RDF>
      <cc:Work
         rdf:about="">
        <dc:format>image/svg+xml</dc:format>
        <dc:type
           rdf:resource="http://purl.org/dc/dcmitype/StillImage" />
        <dc:title></dc:title>
      </cc:Work>
    </rdf:RDF>
  </metadata>
  <g
     inkscape:label="Layer 1"
     inkscape:groupmode="layer"
     id="layer1"
     transform="translate(-23.440036,-19.167541)">
    <g
       id="g5010"
       transform="matrix(0.125,0,0,-0.125,-1158.9436,1045.1062)">
      <path
         inkscape:connector-curvature="0"
         id="path18"
         style="fill:#f4f4f4;fill-opacity:1;fill-rule:nonzero;stroke:none"
         d="m 9459.54,6392.3 c 0.24,-2.68 0.68,-5.29 1.08,-7.9 0.33,-2.2 0.6,-4.42 1.05,-6.57 0.55,-2.59 1.32,-5.09 2.04,-7.61 0.59,-2.05 1.09,-4.14 1.79,-6.14 0.88,-2.5 1.99,-4.89 3.05,-7.31 0.83,-1.9 1.55,-3.85 2.5,-5.7 1.23,-2.43 2.72,-4.74 4.14,-7.08 1.05,-1.72 1.97,-3.48 3.12,-5.15 1.66,-2.4 3.59,-4.68 5.46,-6.98 1.2,-1.47 2.26,-3.01 3.55,-4.44 2.24,-2.49 4.78,-4.83 7.28,-7.18 1.19,-1.12 2.24,-2.31 3.49,-3.4 3.89,-3.38 8.06,-6.62 12.54,-9.7 102.91,-70.75 224.12,-129.71 359.02,-178.2 462.55,-166.25 1085.95,-209.37 1684.15,-182.12 25,1.14 49.8,2.4 74.7,3.77 42.8,2.38 85.4,5.1 127.8,8.16 25.2,1.81 50.3,3.75 75.4,5.8 2,0.17 4.1,0.34 6.1,0.51 24.8,2.04 49.4,4.2 74,6.47 2.3,0.21 4.5,0.42 6.8,0.63 24.3,2.26 48.5,4.63 72.6,7.1 15.7,1.61 31.4,3.27 47,4.97 23.6,2.56 47,5.22 70.3,7.97 16,1.88 31.8,3.81 47.7,5.78 22.4,2.78 44.6,5.66 66.7,8.6 3.4,0.46 6.8,0.92 10.2,1.38 34.4,4.64 68.3,9.47 101.9,14.48 28.5,4.27 56.8,8.67 84.7,13.19 20.1,3.26 40.1,6.59 59.8,9.97 4.1,0.71 8.2,1.41 12.3,2.11 31.1,5.4 61.8,10.95 92,16.65 4.3,0.82 8.6,1.64 12.9,2.46 18.4,3.5 36.5,7.04 54.4,10.64 480.9,96.55 815.6,228.26 821.1,343.32 l 0,0.15 c 0.3,5.88 0.4,11.85 0.4,17.87 0,1.91 -0.1,3.85 -0.1,5.77 -0.1,4.25 -0.2,8.52 -0.4,12.83 -0.1,2.18 -0.2,4.38 -0.3,6.58 -0.3,4.25 -0.6,8.52 -1,12.81 -0.2,2.1 -0.4,4.19 -0.6,6.3 -0.6,4.92 -1.2,9.87 -1.9,14.85 -0.2,1.46 -0.4,2.9 -0.6,4.37 -2,13.31 -4.7,26.83 -8,40.52 -0.3,1.16 -0.6,2.32 -0.9,3.49 -1.5,5.71 -3,11.45 -4.7,17.22 -0.4,1.45 -0.8,2.91 -1.3,4.36 -1.7,5.78 -3.5,11.58 -5.5,17.41 -0.4,1.16 -0.8,2.31 -1.2,3.48 -4.3,12.5 -9.2,25.11 -14.6,37.8 -4,9.25 -8.2,18.53 -12.7,27.86 l -0.2,0.37 c -3.5,7.16 -7.3,14.34 -11.2,21.54 l -0.9,1.83 c -3.9,7.06 -7.9,14.14 -12.1,21.23 l -0.5,0.86 c -13.6,22.68 -28.9,45.45 -46.3,68.16 l 0,0.02 c -216,282.51 -737.6,556.64 -1758.8,545.3 -283.8,-3.16 -546.4,-35.84 -783.3,-87.74 -130.5,28.2 -301.6,22.7 -301.6,22.7 0,0 53.8,-31.25 124.1,-66.36 -65.5,-17.94 -128.7,-37.3 -189.5,-57.87 -1.2,5.55 -3.4,10.92 -6.8,15.99 -6.9,10.37 -23.1,17.87 -44.9,22.78 l -12.8,63.81 -86.6,43.3 65,50.51 c 0,0 28.8,64.95 -7.3,115.47 -36,50.51 -238.6,69 -259.7,-57.73 -15.7,-93.78 21.3,-191.29 43.1,-238.29 -22,-9.94 -35.9,-22.05 -35.9,-35.94 0,-42.86 12.6,-73.14 62.6,-84.63 0.5,-1.91 1,-3.94 1.6,-6.07 -81.5,-36.96 -156.6,-75.74 -225.02,-115.4 l 0.08,0.12 c -1.13,-0.66 -2.21,-1.33 -3.34,-1.99 -11.23,-6.53 -22.33,-13.09 -33.18,-19.67 -1.18,-0.71 -2.3,-1.43 -3.47,-2.14 -10.58,-6.44 -21.03,-12.89 -31.25,-19.36 -3.4,-2.16 -6.65,-4.31 -10.01,-6.47 -7.9,-5.06 -15.79,-10.13 -23.47,-15.2 -3.85,-2.55 -7.54,-5.1 -11.34,-7.65 -6.96,-4.68 -13.95,-9.36 -20.73,-14.05 -4.06,-2.81 -7.97,-5.62 -11.96,-8.44 -6.31,-4.43 -12.64,-8.87 -18.77,-13.31 -4.07,-2.94 -7.98,-5.88 -11.97,-8.82 -5.84,-4.31 -11.7,-8.61 -17.37,-12.91 -4.03,-3.06 -7.9,-6.1 -11.84,-9.15 -5.41,-4.19 -10.85,-8.38 -16.1,-12.56 -3.93,-3.12 -7.7,-6.23 -11.54,-9.34 -5.05,-4.11 -10.11,-8.21 -15,-12.3 -3.79,-3.17 -7.45,-6.33 -11.15,-9.49 -4.7,-4.02 -9.41,-8.04 -13.96,-12.04 -3.62,-3.19 -7.11,-6.36 -10.64,-9.54 -4.4,-3.97 -8.8,-7.94 -13.06,-11.89 -3.43,-3.2 -6.75,-6.37 -10.09,-9.55 -4.09,-3.9 -8.17,-7.8 -12.11,-11.67 -3.26,-3.21 -6.41,-6.4 -9.58,-9.6 -3.78,-3.83 -7.54,-7.64 -11.17,-11.44 -3.06,-3.2 -6.02,-6.39 -8.97,-9.56 -3.5,-3.76 -6.96,-7.52 -10.3,-11.25 -2.86,-3.19 -5.62,-6.36 -8.37,-9.52 -3.2,-3.69 -6.35,-7.37 -9.41,-11.03 -2.63,-3.15 -5.18,-6.28 -7.7,-9.41 -2.93,-3.63 -5.79,-7.25 -8.57,-10.85 -2.4,-3.11 -4.73,-6.21 -7.03,-9.29 -2.64,-3.56 -5.21,-7.1 -7.71,-10.63 -2.17,-3.07 -4.29,-6.12 -6.35,-9.17 -2.35,-3.47 -4.63,-6.93 -6.84,-10.37 -1.94,-3.02 -3.83,-6.04 -5.66,-9.03 -2.07,-3.4 -4.05,-6.77 -5.98,-10.13 -1.7,-2.97 -3.36,-5.92 -4.95,-8.85 -1.79,-3.32 -3.48,-6.61 -5.12,-9.88 -1.45,-2.9 -2.88,-5.79 -4.22,-8.66 -1.51,-3.23 -2.91,-6.43 -4.27,-9.62 -1.2,-2.82 -2.39,-5.63 -3.48,-8.42 -1.22,-3.15 -2.32,-6.26 -3.4,-9.36 -0.95,-2.74 -1.9,-5.48 -2.73,-8.18 -0.95,-3.06 -1.75,-6.07 -2.53,-9.07 -0.7,-2.65 -1.41,-5.31 -1.99,-7.91 -0.65,-2.97 -1.15,-5.88 -1.65,-8.79 -0.44,-2.55 -0.9,-5.11 -1.22,-7.62 -0.36,-2.87 -0.55,-5.68 -0.76,-8.5 -0.18,-2.44 -0.4,-4.89 -0.46,-7.29 -0.06,-2.77 0.05,-5.48 0.15,-8.19 0.08,-2.33 0.1,-4.67 0.3,-6.95" />
      <path
         inkscape:connector-curvature="0"
         id="path60"
         style="fill:#f4f4f4;fill-opacity:1;fill-rule:nonzero;stroke:none"
         d="m 10994.6,7768.29 c -72.2,86.6 -505.1,-368.03 -505.1,-368.03 0,0 577.3,281.44 505.1,368.03" />
      <path
         inkscape:connector-curvature="0"
         id="path62"
         style="fill:#f4f4f4;fill-opacity:1;fill-rule:nonzero;stroke:none"
         d="m 10612.1,7797.16 c -93.8,7.22 -180.4,-295.87 -180.4,-295.87 0,0 274.3,288.65 180.4,295.87" />
      <path
         inkscape:connector-curvature="0"
         id="path64"
         style="fill:#f4f4f4;fill-opacity:1;fill-rule:nonzero;stroke:none"
         d="m 10503.9,7349.75 c 0,0 627.8,-36.08 577.3,43.29 -50.5,79.38 -577.3,-43.29 -577.3,-43.29" />
      <path
         inkscape:connector-curvature="0"
         id="path66"
         style="fill:#f4f4f4;fill-opacity:1;fill-rule:nonzero;stroke:none"
         d="m 11442,7739.43 c -64.9,115.46 -534,-216.49 -534,-216.49 0,0 599,101.03 534,216.49" />
      <path
         inkscape:connector-curvature="0"
         id="path68"
         style="fill:#f4f4f4;fill-opacity:1;fill-rule:nonzero;stroke:none"
         d="m 11030.7,8078.6 c -93.8,50.51 -267,-259.79 -267,-259.79 0,0 360.8,209.27 267,259.79" />
      <path
         inkscape:connector-curvature="0"
         id="path224"
         style="fill:#6ec72e;fill-opacity:1;fill-rule:nonzero;stroke:none"
         d="m 13468.3,6621.29 c 0.7,-4.98 1.3,-9.93 1.9,-14.84 -0.6,4.91 -1.2,9.86 -1.9,14.84" />
      <path
         inkscape:connector-curvature="0"
         id="path226"
         style="fill:#6ec72e;fill-opacity:1;fill-rule:nonzero;stroke:none"
         d="m 13472.1,6580.75 c 0.2,-4.31 0.3,-8.58 0.4,-12.83 -0.1,4.25 -0.2,8.52 -0.4,12.83" />
      <path
         inkscape:connector-curvature="0"
         id="path228"
         style="fill:#6ec72e;fill-opacity:1;fill-rule:nonzero;stroke:none"
         d="m 13470.8,6600.15 c 0.4,-4.3 0.7,-8.57 1,-12.81 -0.3,4.24 -0.6,8.51 -1,12.81" />
      <path
         inkscape:connector-curvature="0"
         id="path230"
         style="fill:#6ec72e;fill-opacity:1;fill-rule:nonzero;stroke:none"
         d="m 9483.77,6455.22 c -1.87,2.3 -3.8,4.57 -5.46,6.97 1.66,-2.4 3.59,-4.67 5.46,-6.97" />
      <path
         inkscape:connector-curvature="0"
         id="path232"
         style="fill:#6ec72e;fill-opacity:1;fill-rule:nonzero;stroke:none"
         d="m 13407.4,6799.71 c 3.9,-7.19 7.7,-14.38 11.2,-21.54 -3.5,7.17 -7.3,14.35 -11.2,21.54" />
      <path
         inkscape:connector-curvature="0"
         id="path234"
         style="fill:#6ec72e;fill-opacity:1;fill-rule:nonzero;stroke:none"
         d="m 13418.8,6777.81 c 10.8,-22.12 19.9,-44.05 27.3,-65.67 -7.4,21.62 -16.5,43.55 -27.3,65.67" />
      <path
         inkscape:connector-curvature="0"
         id="path236"
         style="fill:#6ec72e;fill-opacity:1;fill-rule:nonzero;stroke:none"
         d="m 13472.6,6562.15 c 0,-6.01 -0.1,-11.98 -0.4,-17.87 0.3,5.89 0.4,11.86 0.4,17.87" />
      <path
         inkscape:connector-curvature="0"
         id="path238"
         style="fill:#6ec72e;fill-opacity:1;fill-rule:nonzero;stroke:none"
         d="m 13454.1,6686.9 c 1.7,-5.77 3.2,-11.52 4.7,-17.23 -1.5,5.71 -3,11.46 -4.7,17.23" />
      <path
         inkscape:connector-curvature="0"
         id="path240"
         style="fill:#6ec72e;fill-opacity:1;fill-rule:nonzero;stroke:none"
         d="m 13459.7,6666.19 c 3.3,-13.7 6,-27.22 8,-40.53 -2,13.31 -4.7,26.83 -8,40.53" />
      <path
         inkscape:connector-curvature="0"
         id="path242"
         style="fill:#6ec72e;fill-opacity:1;fill-rule:nonzero;stroke:none"
         d="m 13447.3,6708.67 c 2,-5.83 3.8,-11.64 5.5,-17.42 -1.7,5.78 -3.5,11.59 -5.5,17.42" />
      <path
         inkscape:connector-curvature="0"
         id="path244"
         style="fill:#6ec72e;fill-opacity:1;fill-rule:nonzero;stroke:none"
         d="m 11911.8,6094.88 c -24.6,-2.27 -49.2,-4.42 -74,-6.47 24.8,2.05 49.5,4.2 74,6.47" />
      <path
         inkscape:connector-curvature="0"
         id="path246"
         style="fill:#6ec72e;fill-opacity:1;fill-rule:nonzero;stroke:none"
         d="m 13394.4,6822.77 c 4.2,-7.09 8.2,-14.17 12.1,-21.23 -3.9,7.06 -7.9,14.14 -12.1,21.23" />
      <path
         inkscape:connector-curvature="0"
         id="path248"
         style="fill:#6ec72e;fill-opacity:1;fill-rule:nonzero;stroke:none"
         d="m 11991.2,6102.61 c -24.1,-2.47 -48.3,-4.84 -72.6,-7.1 24.3,2.26 48.5,4.63 72.6,7.1" />
      <path
         inkscape:connector-curvature="0"
         id="path250"
         style="fill:#6ec72e;fill-opacity:1;fill-rule:nonzero;stroke:none"
         d="m 9494.6,6443.59 c -2.5,2.35 -5.04,4.7 -7.28,7.18 2.24,-2.48 4.78,-4.83 7.28,-7.18" />
      <path
         inkscape:connector-curvature="0"
         id="path252"
         style="fill:#6ec72e;fill-opacity:1;fill-rule:nonzero;stroke:none"
         d="m 12108.5,6115.55 c -23.3,-2.75 -46.7,-5.41 -70.3,-7.97 23.6,2.56 47,5.22 70.3,7.97" />
      <path
         inkscape:connector-curvature="0"
         id="path254"
         style="fill:#6ec72e;fill-opacity:1;fill-rule:nonzero;stroke:none"
         d="m 12335,6145.8 c -33.6,-5.02 -67.5,-9.85 -101.9,-14.49 34.4,4.64 68.3,9.47 101.9,14.49" />
      <path
         inkscape:connector-curvature="0"
         id="path256"
         style="fill:#6ec72e;fill-opacity:1;fill-rule:nonzero;stroke:none"
         d="m 12222.9,6129.94 c -22.1,-2.95 -44.3,-5.82 -66.7,-8.61 22.4,2.79 44.6,5.66 66.7,8.61" />
      <path
         inkscape:connector-curvature="0"
         id="path258"
         style="fill:#6ec72e;fill-opacity:1;fill-rule:nonzero;stroke:none"
         d="m 12583.8,6187.71 c -30.2,-5.69 -60.9,-11.24 -92,-16.64 31.1,5.4 61.8,10.95 92,16.64" />
      <path
         inkscape:connector-curvature="0"
         id="path260"
         style="fill:#6ec72e;fill-opacity:1;fill-rule:nonzero;stroke:none"
         d="m 12479.5,6168.96 c -19.7,-3.39 -39.7,-6.71 -59.8,-9.98 20.1,3.27 40.1,6.59 59.8,9.98" />
      <path
         inkscape:connector-curvature="0"
         id="path262"
         style="fill:#6ec72e;fill-opacity:1;fill-rule:nonzero;stroke:none"
         d="m 12651.1,6200.81 c -17.9,-3.59 -36,-7.14 -54.4,-10.63 18.4,3.49 36.5,7.04 54.4,10.63" />
      <path
         inkscape:connector-curvature="0"
         id="path264"
         style="fill:#6ec72e;fill-opacity:1;fill-rule:nonzero;stroke:none"
         d="m 11831.7,6087.9 c -25.1,-2.05 -50.2,-3.98 -75.4,-5.8 25.2,1.82 50.3,3.75 75.4,5.8" />
      <path
         inkscape:connector-curvature="0"
         id="path266"
         style="fill:#6ec72e;fill-opacity:1;fill-rule:nonzero;stroke:none"
         d="m 9485.8,6624.21 c 1.64,3.28 3.33,6.56 5.12,9.88 -1.79,-3.32 -3.48,-6.6 -5.12,-9.88" />
      <path
         inkscape:connector-curvature="0"
         id="path268"
         style="fill:#6ec72e;fill-opacity:1;fill-rule:nonzero;stroke:none"
         d="m 9507.51,6662.1 c 2.21,3.44 4.49,6.9 6.84,10.38 -2.35,-3.48 -4.63,-6.94 -6.84,-10.38" />
      <path
         inkscape:connector-curvature="0"
         id="path270"
         style="fill:#6ec72e;fill-opacity:1;fill-rule:nonzero;stroke:none"
         d="m 9495.87,6642.94 c 1.93,3.36 3.91,6.73 5.98,10.13 -2.07,-3.4 -4.05,-6.77 -5.98,-10.13" />
      <path
         inkscape:connector-curvature="0"
         id="path272"
         style="fill:#6ec72e;fill-opacity:1;fill-rule:nonzero;stroke:none"
         d="m 9520.7,6681.65 c 2.5,3.52 5.07,7.07 7.71,10.62 -2.64,-3.56 -5.21,-7.1 -7.71,-10.62" />
      <path
         inkscape:connector-curvature="0"
         id="path274"
         style="fill:#6ec72e;fill-opacity:1;fill-rule:nonzero;stroke:none"
         d="m 9551.71,6721.83 c 3.06,3.66 6.21,7.34 9.41,11.02 -3.2,-3.69 -6.35,-7.36 -9.41,-11.02" />
      <path
         inkscape:connector-curvature="0"
         id="path276"
         style="fill:#6ec72e;fill-opacity:1;fill-rule:nonzero;stroke:none"
         d="m 9535.44,6701.56 c 2.78,3.6 5.64,7.22 8.57,10.85 -2.93,-3.63 -5.79,-7.25 -8.57,-10.85" />
      <path
         inkscape:connector-curvature="0"
         id="path278"
         style="fill:#6ec72e;fill-opacity:1;fill-rule:nonzero;stroke:none"
         d="m 9465.17,6570.9 c 0.78,3.01 1.58,6.02 2.53,9.08 -0.95,-3.06 -1.75,-6.07 -2.53,-9.08" />
      <path
         inkscape:connector-curvature="0"
         id="path280"
         style="fill:#6ec72e;fill-opacity:1;fill-rule:nonzero;stroke:none"
         d="m 9459.55,6538.09 c 0.21,2.81 0.4,5.62 0.76,8.5 -0.36,-2.88 -0.55,-5.69 -0.76,-8.5" />
      <path
         inkscape:connector-curvature="0"
         id="path282"
         style="fill:#6ec72e;fill-opacity:1;fill-rule:nonzero;stroke:none"
         d="m 9461.53,6554.2 c 0.5,2.91 1,5.82 1.65,8.79 -0.65,-2.97 -1.15,-5.88 -1.65,-8.79" />
      <path
         inkscape:connector-curvature="0"
         id="path284"
         style="fill:#6ec72e;fill-opacity:1;fill-rule:nonzero;stroke:none"
         d="m 13347.6,6891.79 c 17.4,-22.71 32.7,-45.48 46.3,-68.16 -13.6,22.69 -28.9,45.45 -46.3,68.16" />
      <path
         inkscape:connector-curvature="0"
         id="path286"
         style="fill:#6ec72e;fill-opacity:1;fill-rule:nonzero;stroke:none"
         d="m 9569.49,6742.37 c 3.34,3.74 6.8,7.49 10.3,11.25 -3.5,-3.76 -6.96,-7.51 -10.3,-11.25" />
      <path
         inkscape:connector-curvature="0"
         id="path288"
         style="fill:#6ec72e;fill-opacity:1;fill-rule:nonzero;stroke:none"
         d="m 9477.31,6605.93 c 1.36,3.19 2.76,6.39 4.27,9.63 -1.51,-3.24 -2.91,-6.44 -4.27,-9.63" />
      <path
         inkscape:connector-curvature="0"
         id="path290"
         style="fill:#6ec72e;fill-opacity:1;fill-rule:nonzero;stroke:none"
         d="m 9470.43,6588.15 c 1.08,3.1 2.18,6.21 3.4,9.36 -1.22,-3.15 -2.32,-6.26 -3.4,-9.36" />
      <path
         inkscape:connector-curvature="0"
         id="path292"
         style="fill:#6ec72e;fill-opacity:1;fill-rule:nonzero;stroke:none"
         d="m 9764.34,6913.49 c 6.13,4.43 12.46,8.87 18.77,13.31 -6.31,-4.44 -12.64,-8.88 -18.77,-13.31" />
      <path
         inkscape:connector-curvature="0"
         id="path294"
         style="fill:#6ec72e;fill-opacity:1;fill-rule:nonzero;stroke:none"
         d="m 9795.07,6935.24 c 6.78,4.68 13.77,9.36 20.73,14.04 -6.96,-4.68 -13.95,-9.36 -20.73,-14.04" />
      <path
         inkscape:connector-curvature="0"
         id="path296"
         style="fill:#6ec72e;fill-opacity:1;fill-rule:nonzero;stroke:none"
         d="m 9735,6891.75 c 5.67,4.3 11.53,8.6 17.37,12.91 -5.84,-4.31 -11.7,-8.61 -17.37,-12.91" />
      <path
         inkscape:connector-curvature="0"
         id="path298"
         style="fill:#6ec72e;fill-opacity:1;fill-rule:nonzero;stroke:none"
         d="m 9588.76,6763.18 c 3.63,3.8 7.39,7.62 11.17,11.44 -3.78,-3.82 -7.54,-7.64 -11.17,-11.44" />
      <path
         inkscape:connector-curvature="0"
         id="path300"
         style="fill:#6ec72e;fill-opacity:1;fill-rule:nonzero;stroke:none"
         d="m 9860.62,6978.6 c 10.22,6.47 20.67,12.92 31.25,19.36 -10.58,-6.44 -21.03,-12.89 -31.25,-19.36" />
      <path
         inkscape:connector-curvature="0"
         id="path302"
         style="fill:#6ec72e;fill-opacity:1;fill-rule:nonzero;stroke:none"
         d="m 9827.14,6956.93 c 7.68,5.08 15.57,10.14 23.47,15.2 -7.9,-5.06 -15.79,-10.12 -23.47,-15.2" />
      <path
         inkscape:connector-curvature="0"
         id="path304"
         style="fill:#6ec72e;fill-opacity:1;fill-rule:nonzero;stroke:none"
         d="m 9707.06,6870.05 c 5.25,4.18 10.69,8.36 16.1,12.55 -5.41,-4.19 -10.85,-8.37 -16.1,-12.55" />
      <path
         inkscape:connector-curvature="0"
         id="path306"
         style="fill:#6ec72e;fill-opacity:1;fill-rule:nonzero;stroke:none"
         d="m 9631.71,6805.44 c 4.26,3.95 8.66,7.92 13.06,11.89 -4.4,-3.97 -8.8,-7.94 -13.06,-11.89" />
      <path
         inkscape:connector-curvature="0"
         id="path308"
         style="fill:#6ec72e;fill-opacity:1;fill-rule:nonzero;stroke:none"
         d="m 9609.51,6784.22 c 3.94,3.88 8.02,7.77 12.11,11.67 -4.09,-3.9 -8.17,-7.79 -12.11,-11.67" />
      <path
         inkscape:connector-curvature="0"
         id="path310"
         style="fill:#6ec72e;fill-opacity:1;fill-rule:nonzero;stroke:none"
         d="m 9680.52,6848.41 c 4.89,4.09 9.95,8.19 15,12.29 -5.05,-4.1 -10.11,-8.2 -15,-12.29" />
      <path
         inkscape:connector-curvature="0"
         id="path312"
         style="fill:#6ec72e;fill-opacity:1;fill-rule:nonzero;stroke:none"
         d="m 9655.41,6826.87 c 4.55,4.01 9.26,8.03 13.96,12.04 -4.7,-4.01 -9.41,-8.03 -13.96,-12.04" />
      <path
         inkscape:connector-curvature="0"
         id="path314"
         style="fill:#6ec72e;fill-opacity:1;fill-rule:nonzero;stroke:none"
         d="m 11535.8,7285.48 c 7.3,-79.38 -440.2,101.03 -440.2,101.03 0,0 433,-21.65 440.2,-101.03 z M 9844.91,6750.03 c 86.59,-124.84 216.49,-38.25 443.79,-92.37 227.3,-54.12 205.7,-64.95 422.2,-162.37 216.5,-97.42 1342.2,259.79 1537,129.9 194.9,-129.9 584.6,249.68 779.4,124.84 164.2,-105.22 251.5,16.63 320.3,141.78 -216,282.51 -737.6,556.65 -1758.8,545.3 -283.8,-3.15 -546.4,-35.84 -783.3,-87.74 80.6,-17.41 145.8,-47.65 145.8,-99.97 0,-89.56 -190.8,-9.79 -323.3,56.32 -65.5,-17.95 -128.7,-37.31 -189.5,-57.87 4,-18.98 -5,-40.03 -28,-58.61 10.4,-25.38 29.2,-74.98 36.3,-117.77 -21,18.28 -47.5,22.78 -47.5,22.78 l -54.2,-61.34 c -7.2,43.3 -36,50.51 -36,50.51 0,0 0,-82.99 -43.3,-68.55 -43.3,14.43 -36.1,54.12 -36.1,54.12 -17.4,-8.67 -28.8,-26.02 -36.5,-43.71 -15.4,36.17 -28.8,83.13 -36.4,111.77 -96.2,-43.64 -183.65,-89.79 -261.46,-136.95 11.95,7.25 24.12,14.47 36.52,21.66 -69.07,-89.88 -134.05,-203.83 -86.95,-271.73" />
      <path
         inkscape:connector-curvature="0"
         id="path316"
         style="fill:#6ec72e;fill-opacity:1;fill-rule:nonzero;stroke:none"
         d="m 9459.24,6522.6 c -0.1,2.71 -0.21,5.42 -0.15,8.19 -0.07,-2.77 0.05,-5.48 0.15,-8.19" />
      <path
         inkscape:connector-curvature="0"
         id="path318"
         style="fill:#6ec72e;fill-opacity:1;fill-rule:nonzero;stroke:none"
         d="m 9460.62,6507.75 c -0.4,2.62 -0.84,5.22 -1.08,7.9 0.24,-2.68 0.68,-5.28 1.08,-7.9" />
      <path
         inkscape:connector-curvature="0"
         id="path320"
         style="fill:#6ec72e;fill-opacity:1;fill-rule:nonzero;stroke:none"
         d="m 9475.19,6467.34 c -1.42,2.34 -2.91,4.65 -4.14,7.08 1.23,-2.43 2.72,-4.74 4.14,-7.08" />
      <path
         inkscape:connector-curvature="0"
         id="path322"
         style="fill:#6ec72e;fill-opacity:1;fill-rule:nonzero;stroke:none"
         d="m 9510.63,6430.49 c -4.48,3.08 -8.65,6.32 -12.54,9.7 3.89,-3.38 8.06,-6.62 12.54,-9.7 470.41,-323.41 1323.47,-400.58 2117.87,-356.54 -794.4,-44.04 -1647.46,33.13 -2117.87,356.54" />
      <path
         inkscape:connector-curvature="0"
         id="path324"
         style="fill:#6ec72e;fill-opacity:1;fill-rule:nonzero;stroke:none"
         d="m 9463.71,6493.58 c -0.72,2.52 -1.49,5.01 -2.04,7.61 0.55,-2.6 1.32,-5.09 2.04,-7.61" />
      <path
         inkscape:connector-curvature="0"
         id="path326"
         style="fill:#6ec72e;fill-opacity:1;fill-rule:nonzero;stroke:none"
         d="m 9468.55,6480.12 c -1.06,2.42 -2.17,4.81 -3.05,7.31 0.88,-2.5 1.99,-4.89 3.05,-7.31" />
      <path
         inkscape:connector-curvature="0"
         id="path328"
         style="fill:#40b93c;fill-opacity:1;fill-rule:nonzero;stroke:none"
         d="m 9459.54,6515.65 c 0.24,-2.68 0.68,-5.28 1.08,-7.9 0.33,-2.19 0.6,-4.42 1.05,-6.56 0.55,-2.6 1.32,-5.09 2.04,-7.61 0.59,-2.06 1.09,-4.14 1.79,-6.15 0.88,-2.5 1.99,-4.89 3.05,-7.31 0.83,-1.9 1.55,-3.85 2.5,-5.7 1.23,-2.43 2.72,-4.74 4.14,-7.08 1.05,-1.72 1.97,-3.48 3.12,-5.15 1.66,-2.4 3.59,-4.67 5.46,-6.97 1.2,-1.48 2.26,-3.02 3.55,-4.45 2.24,-2.48 4.78,-4.83 7.28,-7.18 1.19,-1.12 2.24,-2.31 3.49,-3.4 3.89,-3.38 8.06,-6.62 12.54,-9.7 470.41,-323.41 1323.47,-400.58 2117.87,-356.54 42.8,2.37 85.4,5.09 127.8,8.15 25.2,1.82 50.3,3.75 75.4,5.8 2,0.17 4.1,0.34 6.1,0.51 24.8,2.05 49.4,4.2 74,6.47 2.3,0.21 4.5,0.42 6.8,0.63 24.3,2.26 48.5,4.63 72.6,7.1 15.7,1.62 31.4,3.27 47,4.97 23.6,2.56 47,5.22 70.3,7.97 16,1.89 31.8,3.81 47.7,5.78 22.4,2.79 44.6,5.66 66.7,8.61 3.4,0.45 6.8,0.91 10.2,1.37 34.4,4.64 68.3,9.47 101.9,14.49 28.5,4.26 56.8,8.66 84.7,13.18 20.1,3.27 40.1,6.59 59.8,9.98 4.1,0.7 8.2,1.4 12.3,2.11 31.1,5.4 61.8,10.95 92,16.64 4.3,0.82 8.6,1.64 12.9,2.47 18.4,3.49 36.5,7.04 54.4,10.63 480.9,96.56 815.6,228.26 821.1,343.33 l 0,0.14 c 0.3,5.89 0.4,11.86 0.4,17.87 0,1.91 -0.1,3.85 -0.1,5.77 -0.1,4.25 -0.2,8.52 -0.4,12.83 -0.1,2.19 -0.2,4.39 -0.3,6.59 -0.3,4.24 -0.6,8.51 -1,12.81 -0.2,2.09 -0.4,4.19 -0.6,6.3 -0.6,4.91 -1.2,9.86 -1.9,14.84 -0.2,1.46 -0.4,2.91 -0.6,4.37 -2,13.31 -4.7,26.83 -8,40.53 -0.3,1.15 -0.6,2.32 -0.9,3.48 -1.5,5.71 -3,11.46 -4.7,17.23 -0.4,1.45 -0.8,2.9 -1.3,4.35 -1.7,5.78 -3.5,11.59 -5.5,17.42 -0.4,1.15 -0.8,2.31 -1.2,3.47 -7.4,21.62 -16.5,43.55 -27.3,65.67 l -0.2,0.36 c -3.5,7.16 -7.3,14.35 -11.2,21.54 l -0.9,1.83 c -3.9,7.06 -7.9,14.14 -12.1,21.23 l -0.5,0.86 c -13.6,22.68 -28.9,45.45 -46.3,68.16 l 0,0.02 c -68.8,-125.15 -156.1,-247 -320.3,-141.78 -194.8,124.84 -584.5,-254.74 -779.4,-124.84 -194.8,129.89 -1320.5,-227.32 -1537,-129.9 -216.5,97.42 -194.9,108.25 -422.2,162.37 -227.3,54.12 -357.2,-32.47 -443.79,92.37 -47.1,67.9 17.88,181.85 86.95,271.73 -12.4,-7.19 -24.57,-14.41 -36.52,-21.66 -1.18,-0.71 -2.3,-1.43 -3.47,-2.14 -10.58,-6.44 -21.03,-12.89 -31.25,-19.36 -3.4,-2.15 -6.65,-4.31 -10.01,-6.47 -7.9,-5.06 -15.79,-10.12 -23.47,-15.2 -3.85,-2.55 -7.54,-5.1 -11.34,-7.65 -6.96,-4.68 -13.95,-9.36 -20.73,-14.04 -4.06,-2.82 -7.97,-5.63 -11.96,-8.44 -6.31,-4.44 -12.64,-8.88 -18.77,-13.31 -4.07,-2.95 -7.98,-5.89 -11.97,-8.83 -5.84,-4.31 -11.7,-8.61 -17.37,-12.91 -4.03,-3.05 -7.9,-6.1 -11.84,-9.15 -5.41,-4.19 -10.85,-8.37 -16.1,-12.55 -3.93,-3.12 -7.7,-6.24 -11.54,-9.35 -5.05,-4.1 -10.11,-8.2 -15,-12.29 -3.79,-3.18 -7.45,-6.33 -11.15,-9.5 -4.7,-4.01 -9.41,-8.03 -13.96,-12.04 -3.62,-3.19 -7.11,-6.36 -10.64,-9.54 -4.4,-3.97 -8.8,-7.94 -13.06,-11.89 -3.43,-3.19 -6.75,-6.37 -10.09,-9.55 -4.09,-3.9 -8.17,-7.79 -12.11,-11.67 -3.26,-3.21 -6.41,-6.4 -9.58,-9.6 -3.78,-3.82 -7.54,-7.64 -11.17,-11.44 -3.06,-3.2 -6.02,-6.38 -8.97,-9.56 -3.5,-3.76 -6.96,-7.51 -10.3,-11.25 -2.86,-3.19 -5.62,-6.35 -8.37,-9.52 -3.2,-3.68 -6.35,-7.36 -9.41,-11.02 -2.63,-3.16 -5.18,-6.29 -7.7,-9.42 -2.93,-3.63 -5.79,-7.25 -8.57,-10.85 -2.4,-3.11 -4.73,-6.2 -7.03,-9.29 -2.64,-3.55 -5.21,-7.1 -7.71,-10.62 -2.17,-3.07 -4.29,-6.13 -6.35,-9.17 -2.35,-3.48 -4.63,-6.94 -6.84,-10.38 -1.94,-3.02 -3.83,-6.03 -5.66,-9.03 -2.07,-3.4 -4.05,-6.77 -5.98,-10.13 -1.7,-2.96 -3.36,-5.92 -4.95,-8.85 -1.79,-3.32 -3.48,-6.6 -5.12,-9.88 -1.45,-2.9 -2.88,-5.79 -4.22,-8.65 -1.51,-3.24 -2.91,-6.44 -4.27,-9.63 -1.2,-2.82 -2.39,-5.63 -3.48,-8.42 -1.22,-3.15 -2.32,-6.26 -3.4,-9.36 -0.95,-2.73 -1.9,-5.47 -2.73,-8.17 -0.95,-3.06 -1.75,-6.07 -2.53,-9.08 -0.7,-2.65 -1.41,-5.3 -1.99,-7.91 -0.65,-2.97 -1.15,-5.88 -1.65,-8.79 -0.44,-2.55 -0.9,-5.1 -1.22,-7.61 -0.36,-2.88 -0.55,-5.69 -0.76,-8.5 -0.18,-2.45 -0.4,-4.9 -0.46,-7.3 -0.06,-2.77 0.05,-5.48 0.15,-8.19 0.08,-2.33 0.1,-4.67 0.3,-6.95" />
      <path
         inkscape:connector-curvature="0"
         id="path752"
         style="fill:#6a5e50;fill-opacity:1;fill-rule:nonzero;stroke:none"
         d="m 10386.8,7286.61 -12.8,63.81 -86.6,43.3 65,50.52 c 0,0 28.8,64.94 -7.3,115.46 -36,50.51 -238.6,69 -259.7,-57.73 -15.7,-93.78 21.3,-191.29 43.1,-238.28 61.9,27.86 188.6,38.61 258.3,22.92" />
      <path
         inkscape:connector-curvature="0"
         id="path754"
         style="fill:#6a5e50;fill-opacity:1;fill-rule:nonzero;stroke:none"
         d="m 10229.7,7068.99 c 0,0 -7.2,-39.69 36.1,-54.12 43.3,-14.44 43.3,68.55 43.3,68.55 0,0 28.8,-7.21 36,-50.51 l 54.2,61.34 c 0,0 26.5,-4.5 47.5,-22.78 -7.1,42.79 -25.9,92.39 -36.3,117.77 -27.5,-22.37 -75.1,-41.13 -144.7,-48.09 -49.1,-4.9 -84.8,-3.96 -110.6,1.96 0.5,-1.91 1,-3.94 1.6,-6.06 7.6,-28.64 21,-75.6 36.4,-111.77 7.7,17.69 19.1,35.04 36.5,43.71" />
      <path
         inkscape:connector-curvature="0"
         id="path756"
         style="fill:#52423b;fill-opacity:1;fill-rule:nonzero;stroke:none"
         d="m 10265.8,7141.15 c 69.6,6.96 117.2,25.72 144.7,48.09 23,18.58 32,39.63 28,58.61 -1.2,5.54 -3.4,10.91 -6.8,15.98 -6.9,10.37 -23.1,17.87 -44.9,22.78 -69.7,15.69 -196.4,4.94 -258.3,-22.92 -22,-9.95 -35.9,-22.06 -35.9,-35.94 0,-42.87 12.6,-73.14 62.6,-84.64 25.8,-5.92 61.5,-6.86 110.6,-1.96" />
      <path
         inkscape:connector-curvature="0"
         id="path758"
         style="fill:#61ccf5;fill-opacity:1;fill-rule:nonzero;stroke:none"
         d="m 10994.6,7891.65 c -72.2,86.59 -505.1,-368.03 -505.1,-368.03 0,0 577.3,281.43 505.1,368.03" />
      <path
         inkscape:connector-curvature="0"
         id="path760"
         style="fill:#61ccf5;fill-opacity:1;fill-rule:nonzero;stroke:none"
         d="m 10612.1,7920.51 c -93.8,7.22 -180.4,-295.87 -180.4,-295.87 0,0 274.3,288.66 180.4,295.87" />
      <path
         inkscape:connector-curvature="0"
         id="path762"
         style="fill:#61ccf5;fill-opacity:1;fill-rule:nonzero;stroke:none"
         d="m 10503.9,7473.1 c 0,0 627.8,-36.08 577.3,43.3 -50.5,79.38 -577.3,-43.3 -577.3,-43.3" />
      <path
         inkscape:connector-curvature="0"
         id="path764"
         style="fill:#61ccf5;fill-opacity:1;fill-rule:nonzero;stroke:none"
         d="m 10951.3,7249.4 c 0,52.32 -65.2,82.56 -145.8,99.97 -130.5,28.21 -301.6,22.7 -301.6,22.7 0,0 53.8,-31.25 124.1,-66.35 132.5,-66.11 323.3,-145.88 323.3,-56.32" />
      <path
         inkscape:connector-curvature="0"
         id="path766"
         style="fill:#61ccf5;fill-opacity:1;fill-rule:nonzero;stroke:none"
         d="m 11442,7862.78 c -64.9,115.46 -534,-216.49 -534,-216.49 0,0 599,101.03 534,216.49" />
      <path
         inkscape:connector-curvature="0"
         id="path768"
         style="fill:#61ccf5;fill-opacity:1;fill-rule:nonzero;stroke:none"
         d="m 11030.7,8201.95 c -93.8,50.51 -267,-259.79 -267,-259.79 0,0 360.8,209.28 267,259.79" />
      <path
         inkscape:connector-curvature="0"
         id="path770"
         style="fill:#61ccf5;fill-opacity:1;fill-rule:nonzero;stroke:none"
         d="m 11535.8,7285.48 c -7.2,79.38 -440.2,101.03 -440.2,101.03 0,0 447.5,-180.41 440.2,-101.03" />
    </g>
  </g>
</svg>
