<?xml version="1.0" encoding="iso-8859-1"?>
<!-- Generator: Adobe Illustrator 19.0.0, SVG Export Plug-In . SVG Version: 6.00 Build 0)  -->
<svg version="1.1" id="Layer_1" xmlns="http://www.w3.org/2000/svg" xmlns:xlink="http://www.w3.org/1999/xlink" x="0px" y="0px"
	 viewBox="0 0 299.637 299.637" style="enable-background:new 0 0 299.637 299.637;" xml:space="preserve">
<g>
	<path style="fill:#E4E7E7;" d="M251.62,90.34c-5.974-32.735-34.552-57.568-69.029-57.568c-24.214,0-45.563,12.257-58.195,30.9
		c-3.652-1.751-7.697-2.809-12.032-2.809c-15.516,0-28.091,12.575-28.091,28.091l0.019,0.234l-4.701-0.234
		c-28.437,0-51.5,23.063-51.5,51.5c0,1.742,0.094,3.436,0.253,5.131C12.36,147.758,0,161.327,0,177.91
		c0,18.109,14.673,32.773,32.773,32.773h206c33.615,0,60.864-27.248,60.864-60.864C299.636,120.614,279.064,96.24,251.62,90.34z"/>
	<path style="fill:#EFC75E;" d="M206,173.622l-46.416-0.197l27.876-56.378h-65.555l-37.632,93.505h47.67l-19.664,56.313L206,173.622
		z"/>
</g>
<g>
</g>
<g>
</g>
<g>
</g>
<g>
</g>
<g>
</g>
<g>
</g>
<g>
</g>
<g>
</g>
<g>
</g>
<g>
</g>
<g>
</g>
<g>
</g>
<g>
</g>
<g>
</g>
<g>
</g>
</svg>
