<?xml version="1.0" encoding="iso-8859-1"?>
<!-- Generator: Adobe Illustrator 19.0.0, SVG Export Plug-In . SVG Version: 6.00 Build 0)  -->
<svg version="1.1" id="Layer_1" xmlns="http://www.w3.org/2000/svg" xmlns:xlink="http://www.w3.org/1999/xlink" x="0px" y="0px"
	 viewBox="0 0 512 512" style="enable-background:new 0 0 512 512;" xml:space="preserve">
<circle style="fill:#FFD630;" cx="256" cy="255.94" r="255.94"/>
<path style="fill:#F5BE18;" d="M508.28,299.138l-59.073-59.073l-13.325,13.325l-79.504-79.504l-55.297,19.876l97.159,97.159
	l-41.306,41.306L210.252,185.546l-52.632-9.216l-86.277,65.957l-1.554,13.658l12.325,3.665l0.333,74.841L259.997,512
	c124.807-1.998,227.852-93.272,248.172-212.751L508.28,299.138z"/>
<path style="fill:#C94545;" d="M445.543,236.401c1.998,0,3.665,1.665,3.665,3.665v20.875c0,1.998-1.665,3.665-3.665,3.665h-9.772
	v54.187c0,12.103-9.883,21.874-21.874,21.874C305.523,341,289.201,354.546,272.655,279.04c-13.436-4.775-19.987-4.775-33.423,0
	c-16.545,75.618-32.867,61.96-141.242,61.626c-11.992,0-21.874-9.883-21.874-21.874v-54.187h-9.772
	c-1.998,0-3.665-1.665-3.665-3.665v-20.875c0-1.998,1.665-3.665,3.665-3.665h1.11l84.056-64.736
	c2.331-1.443,4.997-2.109,8.439-1.332l45.415,11.881c9.216,2.442,8.328,14.99-1.998,15.878
	c-6.662,0.666-18.655-13.436-41.084-15.323c-1.554-0.111-4.553,1.887-4.997,2.22l-51.189,51.189h128.25
	c2.776,0,5.108,0.999,6.995,3.109c3.443,3.665,8.661,5.996,14.546,5.996c5.885,0,11.215-2.331,14.546-5.996
	c1.887-1.998,4.22-3.109,6.995-3.109h128.25L354.49,184.99c-0.555-0.222-3.554-2.331-4.997-2.22
	c-22.318,1.776-34.422,15.878-41.084,15.323c-10.216-0.999-11.215-13.547-1.998-15.878l45.415-11.881
	c3.443-0.888,6.107-0.222,8.439,1.332l84.056,64.736h1.11L445.543,236.401L445.543,236.401z M77.227,244.619
	c2.887,0,5.108,2.331,5.108,5.108c0,2.887-2.331,5.108-5.108,5.108c-2.887,0-5.108-2.331-5.108-5.108
	C72.12,246.839,74.452,244.619,77.227,244.619z M434.772,244.619c2.887,0,5.108,2.331,5.108,5.108c0,2.887-2.331,5.108-5.108,5.108
	c-2.887,0-5.108-2.331-5.108-5.108C429.665,246.839,431.996,244.619,434.772,244.619z"/>
<path style="fill:#00CC96;" d="M99.768,252.724h116.036c5.663,0,11.548,4.775,10.216,10.105l-10.549,41.195
	c-5.33,20.986-22.207,23.541-42.75,23.319l-72.841-0.777c-5.552-0.111-10.216-4.553-10.216-10.105v-53.632
	c0-5.552,4.553-10.105,10.216-10.105L99.768,252.724L99.768,252.724z M412.121,252.724H296.085c-5.663,0-11.548,4.775-10.216,10.105
	l10.549,41.195c5.33,20.986,22.207,23.541,42.75,23.319l72.841-0.777c5.552-0.111,10.216-4.553,10.216-10.105v-53.632
	c0-5.552-4.553-10.105-10.216-10.105L412.121,252.724L412.121,252.724z"/>
<path style="fill:#07B587;" d="M217.358,252.835c5.108,0.777,9.883,5.108,8.661,9.994l-10.549,41.195
	c-5.33,20.986-22.207,23.541-42.75,23.319l-72.841-0.777c-0.666,0-1.332-0.111-1.998-0.222l119.588-73.507h-0.11V252.835z
	 M418.228,254.723l-109.373,67.289c7.884,4.664,18.544,5.441,30.314,5.33l72.841-0.777c5.552-0.111,10.216-4.553,10.216-10.105
	v-53.632c0-3.332-1.554-6.218-4.109-8.106H418.228z"/>
<g>
</g>
<g>
</g>
<g>
</g>
<g>
</g>
<g>
</g>
<g>
</g>
<g>
</g>
<g>
</g>
<g>
</g>
<g>
</g>
<g>
</g>
<g>
</g>
<g>
</g>
<g>
</g>
<g>
</g>
</svg>
