<?xml version="1.0" encoding="iso-8859-1"?>
<!-- Generator: Adobe Illustrator 19.0.0, SVG Export Plug-In . SVG Version: 6.00 Build 0)  -->
<svg version="1.1" id="Layer_1" xmlns="http://www.w3.org/2000/svg" xmlns:xlink="http://www.w3.org/1999/xlink" x="0px" y="0px"
	 viewBox="0 0 504 504" style="enable-background:new 0 0 504 504;" xml:space="preserve">
<circle style="fill:#FFD05B;" cx="252" cy="252" r="252"/>
<g>
	<path style="fill:#FF7058;" d="M323.3,175.1c-48-3.4-97.4-3.3-145.4,0.2c-11.3,0.8-19.9,11.1-19.2,22.9l0.3,3.9l13.6-0.9l-0.3-3.9
		c-0.3-4.4,2.7-8.2,6.6-8.4c47.3-3.5,96-3.6,143.4-0.2c3.9,0.3,6.8,4.1,6.6,8.4l-0.2,3.9l13.6,0.9l0.2-3.9
		C343.3,186.1,334.6,175.9,323.3,175.1z"/>
	<path style="fill:#FF7058;" d="M250.9,216.4c-10.3,0-20,4.2-27.4,11.9c-8.3,8.5-12.8,20.5-12.4,32.9l0.1,3.9l13.6-0.4l-0.1-3.9
		c-0.3-8.7,2.9-17.1,8.6-23c4.8-5,11.1-7.7,17.6-7.7s12.8,2.7,17.6,7.7c5.7,5.9,8.8,14.2,8.6,23l-0.1,3.9l13.6,0.4l0.1-3.9
		c0.4-12.4-4.2-24.4-12.5-32.9C270.9,220.6,261.2,216.4,250.9,216.4z"/>
</g>
<path style="fill:#2B3B4E;" d="M407.6,266.8c6.9,1.5,13.8,3.1,20.6,4.7c1.3-12.2,2.6-24.4,3.9-36.6c-7-1.6-13.9-3.2-20.9-4.8
	C410,242.4,408.8,254.6,407.6,266.8z"/>
<path style="fill:#324A5E;" d="M413.9,265.6c-5.1,38.3-24.4,65.8-63.3,61.1c-38.2-4.9-86-63.8-86.5-89.5
	c0.2-49.6,54.4-55.2,98.1-49.7C406,192.9,418.9,227.7,413.9,265.6z"/>
<path style="fill:#E6E9EE;" d="M349.8,311.9c-31.3-4-70.7-54-71-72.3c0.3-16.8,8.1-27.9,24.9-34c13-4.7,31.2-6.1,55.3-3.4
	c16.1,1.9,27.8,8.9,34.4,20.5c6,10.4,7.9,24.5,5.9,40.8s-7.2,29.2-14.8,37.4C376,310.1,364.5,313.7,349.8,311.9z"/>
<path style="fill:#2B3B4E;" d="M93.6,266.8c-6.9,1.5-13.8,3.1-20.6,4.7c-1.3-12.2-2.6-24.4-3.9-36.6c7-1.6,13.9-3.2,20.9-4.8
	C91.2,242.4,92.4,254.6,93.6,266.8z"/>
<path style="fill:#324A5E;" d="M87.4,265.6c5.1,38.3,24.4,65.8,63.3,61.1c38.2-4.9,86-63.8,86.5-89.5c-0.2-49.6-54.4-55.2-98.1-49.7
	C95.3,192.9,82.3,227.7,87.4,265.6z"/>
<path style="fill:#E6E9EE;" d="M151.4,311.9c31.3-4,70.7-54,71-72.3c-0.3-16.8-8.1-27.9-24.9-34c-13-4.7-31.2-6.1-55.3-3.4
	c-16.1,1.9-27.8,8.9-34.4,20.5c-6,10.4-7.9,24.5-5.9,40.8s7.2,29.2,14.8,37.4C125.2,310.1,136.8,313.7,151.4,311.9z"/>
<g>
</g>
<g>
</g>
<g>
</g>
<g>
</g>
<g>
</g>
<g>
</g>
<g>
</g>
<g>
</g>
<g>
</g>
<g>
</g>
<g>
</g>
<g>
</g>
<g>
</g>
<g>
</g>
<g>
</g>
</svg>
