<?xml version="1.0" encoding="iso-8859-1"?>
<!-- Generator: Adobe Illustrator 19.0.0, SVG Export Plug-In . SVG Version: 6.00 Build 0)  -->
<svg version="1.1" id="Layer_1" xmlns="http://www.w3.org/2000/svg" xmlns:xlink="http://www.w3.org/1999/xlink" x="0px" y="0px"
	 viewBox="0 0 504 504" style="enable-background:new 0 0 504 504;" xml:space="preserve">
<circle style="fill:#FD8469;" cx="252" cy="252" r="252"/>
<g>
	<path style="fill:#2B3B4E;" d="M396.7,298.9h-29.2V324h29.2c2.3,0,4.2-1.5,4.2-3.4v-18.2C400.9,300.4,399,298.9,396.7,298.9z"/>
	<path style="fill:#2B3B4E;" d="M107.3,298.9h29.2V324h-29.2c-2.3,0-4.2-1.5-4.2-3.4v-18.2C103.1,300.4,105,298.9,107.3,298.9z"/>
	<path style="fill:#2B3B4E;" d="M324.4,303.5c-47.6,10.6-97.1,10.6-144.7,0c0.5-2.2,1-4.4,1.5-6.7c46.7,10.4,95.1,10.4,141.7,0
		C323.4,299,323.9,301.2,324.4,303.5z"/>
</g>
<g>
	<path style="fill:#324A5E;" d="M404,348.4c0,31.3-27.2,56.7-60.8,56.7S265,371,265,339.6s44.6-48,78.2-48
		C376.8,291.7,404,317,404,348.4z"/>
	<path style="fill:#324A5E;" d="M100,348.4c0,31.3,27.2,56.7,60.8,56.7S239,371,239,339.6s-44.6-48-78.2-48
		C127.2,291.7,100,317,100,348.4z"/>
</g>
<g>
	<path style="fill:#54C0EB;" d="M343.2,392.3c-28.1,0-65.4-30-65.4-52.7c0-21.8,38.1-35.2,65.4-35.2c26.5,0,48,19.7,48,44
		C391.2,372.6,369.7,392.3,343.2,392.3z"/>
	<path style="fill:#54C0EB;" d="M160.8,392.3c28.1,0,65.4-30,65.4-52.7c0-21.8-38.1-35.2-65.4-35.2c-26.5,0-48,19.7-48,44
		C112.8,372.6,134.3,392.3,160.8,392.3z"/>
</g>
<g>
	<path style="fill:#324A5E;" d="M229.3,361.9c2.4,0,4.3-1.7,5-4c2.3-7.6,9.3-13.2,17.6-13.2c8.4,0,15.4,5.6,17.6,13.2
		c0.7,2.3,2.6,4,5,4h0.6c3.4,0,5.9-3.2,5-6.5c-3.4-12.4-14.8-21.6-28.3-21.6c-13.5,0-24.9,9.1-28.3,21.6c-0.9,3.3,1.6,6.5,5,6.5
		H229.3z"/>
	<ellipse style="fill:#324A5E;" cx="252" cy="211.5" rx="150.2" ry="50.7"/>
</g>
<path style="fill:#E6E9EE;" d="M349.7,196.9c0,3.1-0.1,6.1-0.3,9.1c-0.2,2.7-2,5-4.5,5.8c-26.7,8.2-58.6,13-92.9,13
	s-66.2-4.7-92.9-13c-2.6-0.8-4.4-3.1-4.5-5.8c-0.2-3-0.3-6-0.3-9.1C154.3,127.4,198,71,252,71S349.7,127.4,349.7,196.9z"/>
<path style="fill:#FFD05B;" d="M349.7,196.9c0,3-0.1,6.1-0.3,9c-0.2,2.7-2,5-4.5,5.8c-26.7,8.2-58.6,13-92.9,13s-66.2-4.7-92.9-13
	c-2.6-0.8-4.4-3.1-4.5-5.8c-0.2-3-0.3-6-0.3-9c0-6.3,0.4-12.5,1.1-18.6c0.8,1.4,2.1,2.6,3.7,3c26.7,8.2,58.6,13,92.9,13
	s66.2-4.8,92.9-13c1.6-0.5,2.9-1.6,3.7-3C349.3,184.4,349.7,190.6,349.7,196.9z"/>
<path id="SVGCleanerId_0" style="fill:#E6E9EE;" d="M344.9,211.7c0.3-0.1,0.6-0.2,0.9-0.3C345.5,211.5,345.2,211.6,344.9,211.7
	c-1.7,0.6-3.4,1.1-5.1,1.5C341.5,212.7,343.2,212.2,344.9,211.7z"/>
<path style="fill:#E6E9EE;" d="M259.4,224.6c10.3-0.2,20.3-0.8,30-1.8c-9.5,1-19.3,1.7-29.3,1.9
	C259.8,224.6,259.7,224.6,259.4,224.6z"/>
<g>
	<path id="SVGCleanerId_0_1_" style="fill:#E6E9EE;" d="M344.9,211.7c0.3-0.1,0.6-0.2,0.9-0.3C345.5,211.5,345.2,211.6,344.9,211.7
		c-1.7,0.6-3.4,1.1-5.1,1.5C341.5,212.7,343.2,212.2,344.9,211.7z"/>
</g>
<g>
</g>
<g>
</g>
<g>
</g>
<g>
</g>
<g>
</g>
<g>
</g>
<g>
</g>
<g>
</g>
<g>
</g>
<g>
</g>
<g>
</g>
<g>
</g>
<g>
</g>
<g>
</g>
<g>
</g>
</svg>
