<?xml version="1.0" encoding="iso-8859-1"?>
<!-- Generator: Adobe Illustrator 19.0.0, SVG Export Plug-In . SVG Version: 6.00 Build 0)  -->
<svg version="1.1" id="Capa_1" xmlns="http://www.w3.org/2000/svg" xmlns:xlink="http://www.w3.org/1999/xlink" x="0px" y="0px"
	 viewBox="0 0 58 58" style="enable-background:new 0 0 58 58;" xml:space="preserve">
<circle style="fill:#48A0DC;" cx="29" cy="29" r="29"/>
<path style="fill:#285680;" d="M0.025,30C0.553,45.552,13.319,58,29,58s28.447-12.448,28.975-28H0.025z"/>
<g>
	<path style="fill:#F0C419;" d="M44,33H14c-0.553,0-1,0.448-1,1s0.447,1,1,1h30c0.553,0,1-0.448,1-1S44.553,33,44,33z"/>
	<path style="fill:#F0C419;" d="M40,38H18c-0.553,0-1,0.448-1,1s0.447,1,1,1h22c0.553,0,1-0.448,1-1S40.553,38,40,38z"/>
	<path style="fill:#F0C419;" d="M36,43H22c-0.553,0-1,0.448-1,1s0.447,1,1,1h14c0.553,0,1-0.448,1-1S36.553,43,36,43z"/>
	<path style="fill:#F0C419;" d="M33,48h-8c-0.553,0-1,0.448-1,1s0.447,1,1,1h8c0.553,0,1-0.448,1-1S33.553,48,33,48z"/>
</g>
<g>
	<path style="fill:#EDE71B;" d="M29,7c-0.553,0-1,0.448-1,1v2c0,0.552,0.447,1,1,1s1-0.448,1-1V8C30,7.448,29.553,7,29,7z"/>
	<path style="fill:#F0C419;" d="M29,12c-0.553,0-1,0.448-1,1v2c0,0.552,0.447,1,1,1s1-0.448,1-1v-2C30,12.448,29.553,12,29,12z"/>
	<path style="fill:#EDE71B;" d="M50,28h-2c-0.553,0-1,0.448-1,1s0.447,1,1,1h2c0.553,0,1-0.448,1-1S50.553,28,50,28z"/>
	<path style="fill:#F0C419;" d="M45,28h-2c-0.553,0-1,0.448-1,1s0.447,1,1,1h2c0.553,0,1-0.448,1-1S45.553,28,45,28z"/>
	<path style="fill:#EDE71B;" d="M10,28H8c-0.553,0-1,0.448-1,1s0.447,1,1,1h2c0.553,0,1-0.448,1-1S10.553,28,10,28z"/>
	<path style="fill:#F0C419;" d="M15,28h-2c-0.553,0-1,0.448-1,1s0.447,1,1,1h2c0.553,0,1-0.448,1-1S15.553,28,15,28z"/>
	<path style="fill:#EDE71B;" d="M42.435,16.565c0.256,0,0.512-0.098,0.707-0.292l1.415-1.414c0.391-0.391,0.391-1.024,0-1.415
		s-1.023-0.39-1.414,0l-1.415,1.414c-0.391,0.391-0.391,1.024,0,1.415C41.923,16.467,42.179,16.565,42.435,16.565z"/>
	<path style="fill:#F0C419;" d="M41.021,16.979c-0.391-0.391-1.023-0.391-1.414,0l-1.414,1.414c-0.391,0.391-0.391,1.023,0,1.414
		c0.195,0.195,0.451,0.293,0.707,0.293s0.512-0.098,0.707-0.293l1.414-1.414C41.411,18.003,41.411,17.37,41.021,16.979z"/>
	<path style="fill:#EDE71B;" d="M14.858,16.272c0.195,0.195,0.451,0.292,0.707,0.292s0.512-0.098,0.707-0.293
		c0.391-0.391,0.391-1.024,0-1.415l-1.415-1.414c-0.391-0.39-1.023-0.39-1.414,0s-0.391,1.024,0,1.415L14.858,16.272z"/>
	<path style="fill:#F0C419;" d="M18.394,16.979c-0.391-0.391-1.023-0.391-1.414,0s-0.391,1.023,0,1.414l1.414,1.414
		c0.195,0.195,0.451,0.293,0.707,0.293s0.512-0.098,0.707-0.293c0.391-0.391,0.391-1.023,0-1.414L18.394,16.979z"/>
	<path style="fill:#EDE71B;" d="M37.596,8.749c-0.507-0.215-1.095,0.021-1.312,0.53l-0.781,1.841
		c-0.216,0.508,0.021,1.095,0.53,1.311c0.128,0.054,0.26,0.08,0.391,0.08c0.389,0,0.759-0.229,0.921-0.61l0.781-1.841
		C38.342,9.552,38.104,8.965,37.596,8.749z"/>
	<path style="fill:#F0C419;" d="M35.643,13.352c-0.508-0.216-1.095,0.021-1.312,0.53l-0.781,1.841
		c-0.216,0.508,0.021,1.095,0.53,1.311c0.128,0.054,0.26,0.08,0.391,0.08c0.389,0,0.759-0.229,0.921-0.61l0.781-1.841
		C36.389,14.154,36.151,13.567,35.643,13.352z"/>
	<path style="fill:#EDE71B;" d="M12.432,21.967c0.216-0.508-0.021-1.095-0.53-1.311l-1.842-0.782
		c-0.508-0.215-1.095,0.021-1.312,0.53c-0.216,0.508,0.021,1.095,0.53,1.311l1.842,0.782c0.128,0.054,0.26,0.08,0.391,0.08
		C11.899,22.577,12.27,22.348,12.432,21.967z"/>
	<path style="fill:#F0C419;" d="M16.504,22.609l-1.842-0.781c-0.509-0.215-1.095,0.021-1.312,0.53
		c-0.216,0.509,0.021,1.096,0.53,1.311l1.842,0.781c0.128,0.054,0.26,0.08,0.391,0.08c0.389,0,0.759-0.229,0.921-0.61
		C17.25,23.412,17.013,22.825,16.504,22.609z"/>
	<path style="fill:#EDE71B;" d="M49.397,20.598c-0.207-0.513-0.79-0.759-1.302-0.553l-1.854,0.75
		c-0.512,0.207-0.759,0.79-0.552,1.302c0.157,0.39,0.531,0.626,0.927,0.626c0.125,0,0.252-0.024,0.375-0.073l1.854-0.75
		C49.357,21.693,49.604,21.11,49.397,20.598z"/>
	<path style="fill:#F0C419;" d="M44.21,23.773c0.512-0.207,0.759-0.79,0.552-1.302c-0.207-0.512-0.79-0.757-1.302-0.553l-1.854,0.75
		c-0.512,0.207-0.759,0.79-0.552,1.302c0.157,0.39,0.531,0.626,0.927,0.626c0.125,0,0.252-0.024,0.375-0.073L44.21,23.773z"/>
	<path style="fill:#EDE71B;" d="M22.81,10.848l-0.75-1.854c-0.207-0.512-0.789-0.758-1.302-0.552
		c-0.512,0.207-0.759,0.79-0.552,1.302l0.75,1.854c0.157,0.389,0.531,0.625,0.927,0.625c0.125,0,0.252-0.024,0.375-0.073
		C22.77,11.943,23.017,11.36,22.81,10.848z"/>
	<path style="fill:#F0C419;" d="M23.933,13.629c-0.207-0.512-0.789-0.758-1.302-0.552c-0.512,0.207-0.759,0.79-0.552,1.302
		l0.75,1.854c0.157,0.389,0.531,0.625,0.927,0.625c0.125,0,0.252-0.024,0.375-0.073c0.512-0.207,0.759-0.79,0.552-1.302
		L23.933,13.629z"/>
	<path style="fill:#F0C419;" d="M29,0c-0.335,0-0.667,0.014-1,0.025V5c0,0.552,0.447,1,1,1s1-0.448,1-1V0.025
		C29.667,0.014,29.335,0,29,0z"/>
	<path style="fill:#F0C419;" d="M48.782,7.804l-3.519,3.519c-0.391,0.391-0.391,1.023,0,1.414c0.195,0.195,0.451,0.293,0.707,0.293
		s0.512-0.098,0.707-0.293l3.519-3.519C49.741,8.73,49.27,8.259,48.782,7.804z"/>
	<path style="fill:#F0C419;" d="M57.975,28H53c-0.553,0-1,0.448-1,1s0.447,1,1,1h4.975C57.986,29.667,58,29.335,58,29
		S57.986,28.333,57.975,28z"/>
	<path style="fill:#F0C419;" d="M7.804,9.218l3.519,3.519c0.195,0.195,0.451,0.293,0.707,0.293s0.512-0.098,0.707-0.293
		c0.391-0.391,0.391-1.023,0-1.414L9.218,7.804C8.73,8.259,8.259,8.73,7.804,9.218z"/>
	<path style="fill:#F0C419;" d="M0.025,30H5c0.553,0,1-0.448,1-1s-0.447-1-1-1H0.025C0.014,28.333,0,28.665,0,29
		S0.014,29.667,0.025,30z"/>
</g>
<path style="fill:#EDE71B;" d="M29,16c-7.732,0-14,6.268-14,14h28C43,22.268,36.732,16,29,16z"/>
<path style="fill:#E57E25;" d="M29,20c-5.523,0-10,4.477-10,10h20C39,24.477,34.523,20,29,20z"/>
<g>
</g>
<g>
</g>
<g>
</g>
<g>
</g>
<g>
</g>
<g>
</g>
<g>
</g>
<g>
</g>
<g>
</g>
<g>
</g>
<g>
</g>
<g>
</g>
<g>
</g>
<g>
</g>
<g>
</g>
</svg>
