<?xml version="1.0" encoding="iso-8859-1"?>
<!-- Generator: Adobe Illustrator 19.1.0, SVG Export Plug-In . SVG Version: 6.00 Build 0)  -->
<svg version="1.1" id="Capa_1" xmlns="http://www.w3.org/2000/svg" xmlns:xlink="http://www.w3.org/1999/xlink" x="0px" y="0px"
	 viewBox="0 0 414.61 414.61" style="enable-background:new 0 0 414.61 414.61;" xml:space="preserve">
<g>
	<polygon style="fill:#BB844C;" points="14.94,340.555 11.226,349.555 403.385,349.555 399.67,340.555 	"/>
	<polygon style="fill:#BB844C;" points="83.908,252.055 89.817,239.055 79.703,239.055 73.794,252.055 	"/>
	<rect x="16.43" y="279.055" style="fill:#BB844C;" width="11.711" height="52.5"/>
	<path style="fill:#BB844C;" d="M90.862,301.496c-2.101,0-3.81,1.709-3.81,3.81c0,2.1,1.709,3.809,3.81,3.809
		c2.1,0,3.809-1.708,3.809-3.809C94.671,303.205,92.962,301.496,90.862,301.496z"/>
	<path style="fill:#999999;" d="M358.306,65.055h-302v165h302V65.055z M158.509,201.954c-1.135,0-2.27-0.426-3.145-1.282
		c-1.777-1.738-1.809-4.587-0.072-6.364l97.579-99.799c1.738-1.777,4.587-1.808,6.364-0.072c1.776,1.738,1.809,4.587,0.071,6.364
		L161.728,200.6C160.846,201.502,159.678,201.954,158.509,201.954z M259.282,140.425l-60.212,60.212
		c-0.879,0.878-2.03,1.318-3.182,1.318c-1.152,0-2.303-0.439-3.182-1.318c-1.757-1.757-1.757-4.607,0-6.364l60.212-60.212
		c1.756-1.757,4.607-1.757,6.363,0C261.04,135.818,261.04,138.667,259.282,140.425z"/>
	<polygon style="fill:#BB844C;" points="330.703,252.055 340.817,252.055 334.908,239.055 324.794,239.055 	"/>
	<path style="fill:#BB844C;" d="M323.749,301.496c-2.102,0-3.811,1.709-3.811,3.81c0,2.1,1.709,3.809,3.811,3.809
		c2.1,0,3.809-1.708,3.809-3.809C327.558,303.205,325.849,301.496,323.749,301.496z"/>
	<polygon style="fill:#BB844C;" points="14.94,270.055 399.67,270.055 403.385,261.055 11.226,261.055 	"/>
	<path style="fill:#CCB683;" d="M270.026,279.055v52.5H377.47v-52.5H270.026z M323.749,318.114c-7.064,0-12.811-5.746-12.811-12.809
		c0-7.063,5.747-12.81,12.811-12.81c7.062,0,12.809,5.747,12.809,12.81C336.558,312.368,330.812,318.114,323.749,318.114z"/>
	<rect x="153.584" y="279.055" style="fill:#BB844C;" width="107.442" height="21.777"/>
	<path style="fill:#CCB683;" d="M37.141,279.055v52.5h107.443v-52.5H37.141z M90.862,318.114c-7.063,0-12.81-5.746-12.81-12.809
		c0-7.063,5.747-12.81,12.81-12.81c7.062,0,12.809,5.747,12.809,12.81C103.671,312.368,97.925,318.114,90.862,318.114z"/>
	<polygon style="fill:#BB844C;" points="153.584,331.555 207.306,331.555 261.026,331.555 261.026,309.832 153.584,309.832 	"/>
	<rect x="386.47" y="279.055" style="fill:#BB844C;" width="11.711" height="52.5"/>
	<path style="fill:#7C5F53;" d="M323.749,292.496c-7.064,0-12.811,5.747-12.811,12.81c0,7.062,5.747,12.809,12.811,12.809
		c7.062,0,12.809-5.746,12.809-12.809C336.558,298.243,330.812,292.496,323.749,292.496z M323.749,309.114
		c-2.102,0-3.811-1.708-3.811-3.809c0-2.101,1.709-3.81,3.811-3.81c2.1,0,3.809,1.709,3.809,3.81
		C327.558,307.406,325.849,309.114,323.749,309.114z"/>
	<path style="fill:#7C5F53;" d="M90.862,292.496c-7.063,0-12.81,5.747-12.81,12.81c0,7.062,5.747,12.809,12.81,12.809
		c7.062,0,12.809-5.746,12.809-12.809C103.671,298.243,97.925,292.496,90.862,292.496z M90.862,309.114
		c-2.101,0-3.81-1.708-3.81-3.809c0-2.101,1.709-3.81,3.81-3.81c2.1,0,3.809,1.709,3.809,3.81
		C94.671,307.406,92.962,309.114,90.862,309.114z"/>
	<path style="fill:#7C5F53;" d="M259.235,94.438c-1.777-1.736-4.626-1.705-6.364,0.072l-97.579,99.799
		c-1.737,1.777-1.705,4.626,0.072,6.364c0.876,0.856,2.011,1.282,3.145,1.282c1.169,0,2.336-0.453,3.218-1.354l97.579-99.799
		C261.044,99.025,261.012,96.176,259.235,94.438z"/>
	<path style="fill:#7C5F53;" d="M252.919,134.06l-60.212,60.212c-1.757,1.757-1.757,4.607,0,6.364
		c0.879,0.878,2.03,1.318,3.182,1.318c1.152,0,2.303-0.439,3.182-1.318l60.212-60.212c1.758-1.757,1.758-4.607,0-6.364
		C257.526,132.304,254.675,132.304,252.919,134.06z"/>
	<path style="fill:#7C5F53;" d="M414.27,258.272c0.573-1.388,0.416-2.971-0.419-4.219c-0.835-1.248-2.238-1.998-3.74-1.998h-59.407
		l-5.909-13h18.012c2.485,0,4.5-2.015,4.5-4.5v-174c0-2.485-2.015-4.5-4.5-4.5h-311c-2.485,0-4.5,2.015-4.5,4.5v174
		c0,2.485,2.015,4.5,4.5,4.5h18.012l-5.909,13H4.5c-1.502,0-2.905,0.75-3.74,1.998c-0.835,1.248-0.992,2.831-0.419,4.219
		l7.089,17.175v59.716L0.34,352.338c-0.573,1.388-0.416,2.971,0.419,4.219c0.836,1.248,2.238,1.998,3.74,1.998h202.806H410.11
		c1.502,0,2.905-0.75,3.74-1.998c0.835-1.249,0.992-2.831,0.419-4.219l-7.089-17.174v-59.718L414.27,258.272z M56.306,230.055v-165
		h302v165H56.306z M340.817,252.055h-10.114l-5.909-13h10.114L340.817,252.055z M320.817,252.055H93.794l5.909-13h215.205
		L320.817,252.055z M89.817,239.055l-5.909,13H73.794l5.909-13H89.817z M11.226,349.555l3.715-9h384.73l3.715,9H11.226z
		 M16.43,331.555v-52.5h11.711v52.5H16.43z M37.141,331.555v-52.5h107.443v52.5H37.141z M261.026,309.832v21.723h-53.721h-53.722
		v-21.723H261.026z M153.584,300.832v-21.777h107.442v21.777H153.584z M270.026,331.555v-52.5H377.47v52.5H270.026z M386.47,331.555
		v-52.5h11.711v52.5H386.47z M399.67,270.055H14.94l-3.715-9h392.159L399.67,270.055z"/>
</g>
<g>
</g>
<g>
</g>
<g>
</g>
<g>
</g>
<g>
</g>
<g>
</g>
<g>
</g>
<g>
</g>
<g>
</g>
<g>
</g>
<g>
</g>
<g>
</g>
<g>
</g>
<g>
</g>
<g>
</g>
</svg>
