<?xml version="1.0" encoding="iso-8859-1"?>
<!-- Generator: Adobe Illustrator 19.0.0, SVG Export Plug-In . SVG Version: 6.00 Build 0)  -->
<svg version="1.1" id="Layer_1" xmlns="http://www.w3.org/2000/svg" xmlns:xlink="http://www.w3.org/1999/xlink" x="0px" y="0px"
	 viewBox="0 0 295.238 295.238" style="enable-background:new 0 0 295.238 295.238;" xml:space="preserve">
<g>
	<g>
		<path style="fill:#F9BA48;" d="M147.756,52.381c-28.486,0-53.976,12.571-71.429,32.39v125.695
			c17.452,19.819,42.943,32.39,71.429,32.39c52.6,0,95.238-42.638,95.238-95.238S200.355,52.381,147.756,52.381z"/>
		<path style="fill:#333333;" d="M52.518,229.248V28.571h-9.524v200.676c-8.195,2.129-14.286,9.519-14.286,18.371
			c0,10.505,8.543,19.048,19.048,19.048s19.048-8.543,19.048-19.048C66.803,238.767,60.713,231.376,52.518,229.248z M47.756,257.143
			c-5.252,0-9.524-4.271-9.524-9.524s4.271-9.524,9.524-9.524s9.524,4.271,9.524,9.524S53.008,257.143,47.756,257.143z"/>
		<polygon style="fill:#333333;" points="129.389,30.881 137.551,35.786 147.756,18.776 157.961,35.786 166.122,30.881 
			147.756,0.271 		"/>
		<polygon style="fill:#333333;" points="147.756,276.462 137.551,259.452 129.389,264.357 147.756,294.967 166.122,264.357 
			157.961,259.452 		"/>
		<path style="fill:#333333;" d="M100.67,45.667l4.624-8.324L79.418,22.976C75.051,9.657,62.518,0,47.756,0
			C29.38,0,14.422,14.957,14.422,33.333v180.348c-9.105,8.943-14.286,21.19-14.286,33.938c0,26.257,21.362,47.619,47.619,47.619
			c20,0,37.124-12.41,44.171-29.919l13.367-7.424l-4.624-8.324l-5.571,3.095c0.176-1.662,0.276-3.343,0.276-5.048
			c0-12.748-5.181-24.995-14.286-33.938V34.79L100.67,45.667z M85.851,247.619c0,21.005-17.09,38.095-38.095,38.095
			s-38.095-17.09-38.095-38.095c0-10.767,4.633-21.095,12.705-28.333l1.581-1.419v-8.343h9.524V200h-9.524v-14.286h9.524v-9.524
			h-9.524v-14.286h9.524v-9.524h-9.524v-14.286h9.524v-9.524h-9.524v-14.286h9.524v-9.524h-9.524V90.476h9.524v-9.524h-9.524V66.667
			h9.524v-9.524h-9.524V42.857h9.524v-9.524h-9.524c0-13.129,10.681-23.81,23.81-23.81s23.81,10.681,23.81,23.81v184.533
			l1.581,1.419C81.218,226.524,85.851,236.852,85.851,247.619z"/>
		<polygon style="fill:#333333;" points="212.174,259.195 194.84,249.571 190.217,257.895 221.432,275.229 222.032,239.529 
			212.508,239.371 		"/>
		<polygon style="fill:#333333;" points="249.708,194.705 259.332,212.038 239.508,212.371 239.665,221.895 275.365,221.295 
			258.032,190.081 		"/>
		<polygon style="fill:#333333;" points="264.494,165.986 295.103,147.619 264.494,129.252 259.589,137.414 276.599,147.619 
			259.589,157.824 		"/>
		<polygon style="fill:#333333;" points="249.708,100.533 258.032,105.157 275.365,73.943 239.665,73.343 239.508,82.867 
			259.332,83.2 		"/>
		<polygon style="fill:#333333;" points="190.217,37.343 194.84,45.667 212.174,36.043 212.508,55.867 222.032,55.71 221.432,20.01 
					"/>
	</g>
</g>
<g>
</g>
<g>
</g>
<g>
</g>
<g>
</g>
<g>
</g>
<g>
</g>
<g>
</g>
<g>
</g>
<g>
</g>
<g>
</g>
<g>
</g>
<g>
</g>
<g>
</g>
<g>
</g>
<g>
</g>
</svg>
