<?xml version="1.0" encoding="iso-8859-1"?>
<!-- Generator: Adobe Illustrator 19.1.0, SVG Export Plug-In . SVG Version: 6.00 Build 0)  -->
<svg version="1.1" id="Capa_1" xmlns="http://www.w3.org/2000/svg" xmlns:xlink="http://www.w3.org/1999/xlink" x="0px" y="0px"
	 viewBox="0 0 63.501 63.501" style="enable-background:new 0 0 63.501 63.501;" xml:space="preserve">
<g>
	<g id="group-29svg">
		<path id="path-1_20_" d="M27.168,63.501L27.168,63.501c-0.335,0-0.674-0.011-1.015-0.033c-4.821-0.316-9.095-2.872-11.725-7.012
			c-2.759-4.344-3.279-9.814-1.391-14.63c1.241-3.167,3.3-5.385,6.275-6.753V2.5c0-1.378,1.121-2.5,2.5-2.5h10
			c1.379,0,2.5,1.122,2.5,2.5v33.09c6.65,3.036,7.447,8.742,7.447,12.848c0,4.039-1.477,7.812-4.157,10.625
			C34.876,61.925,31.17,63.501,27.168,63.501z M22.312,3v33.073c0,0.625-0.387,1.185-0.972,1.404
			c-2.701,1.013-4.452,2.743-5.51,5.444c-1.54,3.929-1.117,8.387,1.131,11.927c2.111,3.323,5.532,5.374,9.387,5.626
			c0.276,0.018,0.549,0.027,0.82,0.027l0,0c3.174,0,6.107-1.246,8.261-3.507c2.147-2.253,3.33-5.292,3.33-8.556
			c0-5.571-1.94-8.697-6.487-10.452c-0.578-0.223-0.96-0.78-0.96-1.4V3H22.312z"/>
		<path id="path-2_20_" d="M12.86,8.126c0-1.1,0.892-1.992,1.992-1.992c1.101,0,1.992,0.892,1.992,1.992
			c0,1.101-0.891,1.992-1.992,1.992C13.752,10.118,12.86,9.227,12.86,8.126z"/>
		<path id="path-3_19_" d="M12.86,14.767c0-1.101,0.892-1.992,1.992-1.992c1.101,0,1.992,0.891,1.992,1.992
			c0,1.1-0.891,1.992-1.992,1.992C13.752,16.759,12.86,15.867,12.86,14.767z"/>
		<path id="path-4_17_" d="M12.86,21.408c0-1.1,0.892-1.993,1.992-1.993c1.101,0,1.992,0.893,1.992,1.993
			c0,1.1-0.891,1.992-1.992,1.992C13.752,23.4,12.86,22.508,12.86,21.408z"/>
		<path id="path-5_15_" d="M12.86,28.049c0-1.101,0.892-1.992,1.992-1.992c1.101,0,1.992,0.891,1.992,1.992
			c0,1.1-0.891,1.992-1.992,1.992C13.752,30.041,12.86,29.149,12.86,28.049z"/>
		<path id="path-6_14_" style="fill:#E56A77;" d="M29.312,40.98V8c0-0.552-0.447-1-1-1h-3c-0.553,0-1,0.448-1,1v32.98
			c-3.84,1.074-5.385,4.077-5.503,7.672c-0.126,3.843,2.128,7.38,5.796,8.534c6.195,1.95,11.047-2.424,11.047-8.08
			C35.652,45.312,33.312,42.099,29.312,40.98z"/>
		<path id="path-7_10_" style="fill:#53ECF4;" d="M51.519,21.993c0.445,3.786-1.403,5.496-5.215,5.496s-5.462-1.721-4.933-5.496
			c0.562-4.02,4.933-8.59,4.933-8.59S51.073,18.184,51.519,21.993z"/>
		<path id="path-8_10_" d="M44.304,26.989c-2.435,0-4.161-0.622-5.275-1.903c-1.078-1.239-1.463-3.023-1.144-5.301
			c0.623-4.448,5.143-9.218,5.335-9.418c0.28-0.292,0.665-0.459,1.069-0.464c0.429,0.003,0.793,0.155,1.077,0.441
			c0.526,0.527,5.15,5.27,5.644,9.474c0.26,2.223-0.168,3.981-1.271,5.222C48.589,26.333,46.759,26.989,44.304,26.989z
			 M44.335,13.654c-1.346,1.666-3.169,4.338-3.479,6.547c-0.193,1.38-0.046,2.361,0.437,2.916c0.503,0.579,1.516,0.872,3.011,0.872
			c1.562,0,2.636-0.318,3.193-0.943c0.511-0.574,0.689-1.542,0.532-2.879C47.785,18.081,45.793,15.353,44.335,13.654z"/>
	</g>
</g>
<g>
</g>
<g>
</g>
<g>
</g>
<g>
</g>
<g>
</g>
<g>
</g>
<g>
</g>
<g>
</g>
<g>
</g>
<g>
</g>
<g>
</g>
<g>
</g>
<g>
</g>
<g>
</g>
<g>
</g>
</svg>
