<?xml version="1.0" encoding="iso-8859-1"?>
<!-- Generator: Adobe Illustrator 19.0.0, SVG Export Plug-In . SVG Version: 6.00 Build 0)  -->
<svg version="1.1" id="Layer_1" xmlns="http://www.w3.org/2000/svg" xmlns:xlink="http://www.w3.org/1999/xlink" x="0px" y="0px"
	 viewBox="0 0 512 512" style="enable-background:new 0 0 512 512;" xml:space="preserve">
<path style="fill:#68B9DA;" d="M260.454,194.937v244.94c0,33.251-22.528,61.796-53.328,69.85
	c-5.373,1.404-10.999,2.186-16.798,2.267c-39.682,0.506-72.001-31.502-72.001-71.058V194.937c0-17.834,6.581-34.125,17.442-46.597
	c8.031-9.227,12.196-21.205,12.196-33.435V41.42c0-22.873,18.547-41.42,41.42-41.42c6.386,0,12.426,1.45,17.834,4.027
	c4.269,2.036,8.134,4.798,11.448,8.111c7.502,7.49,12.138,17.845,12.138,29.281v73.486c0,12.23,4.165,24.208,12.207,33.435
	C253.873,160.812,260.454,177.104,260.454,194.937z"/>
<path style="fill:#80D2EE;" d="M260.454,194.937v244.94c0,33.251-22.528,61.796-53.328,69.85
	c-30.57-7.95-53.132-35.736-53.132-68.791V194.937c0-17.834,6.581-34.125,17.442-46.597c8.031-9.227,12.196-21.205,12.196-33.435
	V41.42c0-16.487,9.642-30.731,23.586-37.393c4.269,2.036,8.134,4.798,11.448,8.111c7.502,7.49,12.138,17.845,12.138,29.281v73.486
	c0,12.23,4.165,24.208,12.207,33.435C253.873,160.812,260.454,177.104,260.454,194.937z"/>
<path style="fill:#999999;" d="M389.865,249.614c-3.956-2.664-9.316-1.618-11.978,2.334l-8.367,12.417
	c-9.463-32.214-39.274-55.81-74.508-55.81c-42.821,0-77.659,34.837-77.659,77.659s34.837,77.659,77.659,77.659
	c22.615,0,44.06-9.831,58.839-26.972c3.111-3.609,2.708-9.058-0.901-12.171c-3.609-3.11-9.058-2.71-12.171,0.902
	c-11.496,13.335-28.177,20.983-45.767,20.983c-33.305,0-60.4-27.095-60.4-60.4s27.095-60.4,60.4-60.4
	c27.787,0,51.236,18.866,58.249,44.457l-15.568-10.49c-3.953-2.664-9.316-1.618-11.977,2.334c-2.662,3.952-1.618,9.315,2.334,11.978
	l31.17,21.001c1.478,0.996,3.155,1.474,4.814,1.474c2.774,0,5.497-1.335,7.164-3.808l21.002-31.17
	C394.862,257.64,393.817,252.277,389.865,249.614z"/>
<path style="fill:#F2F2F2;" d="M202.041,41.788v46.804h-25.312V41.42c0-7.375,6.351-13.3,13.876-12.599
	C197.162,29.443,202.041,35.207,202.041,41.788z"/>
<path style="fill:#FD6568;" d="M202.041,88.592v357.821c0,3.498-1.415,6.662-3.705,8.951c-2.29,2.29-5.454,3.705-8.951,3.705
	c-6.984,0-12.656-5.661-12.656-12.656V88.592H202.041z"/>
<rect x="176.724" y="82.264" style="fill:#E04F56;" width="25.312" height="12.656"/>
<g>
	<path style="fill:#666666;" d="M176.731,198.471h-29.204c-4.767,0-8.629-3.864-8.629-8.629c0-4.766,3.862-8.629,8.629-8.629h29.204
		c4.767,0,8.629,3.864,8.629,8.629C185.36,194.607,181.498,198.471,176.731,198.471z"/>
	<path style="fill:#666666;" d="M176.731,303.171h-29.204c-4.767,0-8.629-3.864-8.629-8.629s3.862-8.629,8.629-8.629h29.204
		c4.767,0,8.629,3.864,8.629,8.629S181.498,303.171,176.731,303.171z"/>
	<path style="fill:#666666;" d="M176.731,250.821h-29.204c-4.767,0-8.629-3.864-8.629-8.629c0-4.766,3.862-8.629,8.629-8.629h29.204
		c4.767,0,8.629,3.864,8.629,8.629C185.36,246.957,181.498,250.821,176.731,250.821z"/>
	<path style="fill:#666666;" d="M176.731,407.871h-29.204c-4.767,0-8.629-3.864-8.629-8.629c0-4.766,3.862-8.629,8.629-8.629h29.204
		c4.767,0,8.629,3.864,8.629,8.629C185.36,404.007,181.498,407.871,176.731,407.871z"/>
	<path style="fill:#666666;" d="M176.731,355.521h-29.204c-4.767,0-8.629-3.864-8.629-8.629s3.862-8.629,8.629-8.629h29.204
		c4.767,0,8.629,3.864,8.629,8.629S181.498,355.521,176.731,355.521z"/>
</g>
<g>
</g>
<g>
</g>
<g>
</g>
<g>
</g>
<g>
</g>
<g>
</g>
<g>
</g>
<g>
</g>
<g>
</g>
<g>
</g>
<g>
</g>
<g>
</g>
<g>
</g>
<g>
</g>
<g>
</g>
</svg>
