<?xml version="1.0" encoding="iso-8859-1"?>
<!-- Generator: Adobe Illustrator 19.0.0, SVG Export Plug-In . SVG Version: 6.00 Build 0)  -->
<svg version="1.1" id="Layer_1" xmlns="http://www.w3.org/2000/svg" xmlns:xlink="http://www.w3.org/1999/xlink" x="0px" y="0px"
	 viewBox="0 0 512 512" style="enable-background:new 0 0 512 512;" xml:space="preserve">
<circle style="fill:#273B7A;" cx="256" cy="256" r="256"/>
<path style="fill:#121149;" d="M294.793,509.078c105.434-16.027,189.723-96.371,211.63-199.756L363.458,166.357l-23.316,60.581
	l-78.458-78.458l-18.941,25.198l-58.746-58.746l-23.333,51.945l49.774,49.774l-89.285,118.786L294.793,509.078z"/>
<circle style="fill:#71E2EF;" cx="268.067" cy="262.534" r="135.447"/>
<path style="fill:#38C6D9;" d="M268.067,127.076c-0.193,0-0.383,0.014-0.574,0.016v270.876c0.193,0,0.383,0.016,0.574,0.016
	c74.809,0,135.452-60.644,135.452-135.452C403.52,187.72,342.876,127.076,268.067,127.076z"/>
<path style="fill:#477F3C;" d="M234.137,278.399c-26.269-8.209-25.176-36.667-4.925-42.141c20.249-5.473,9.85-13.683,19.154-35.573
	c9.304-21.892-4.925-14.229-14.777-34.478c-6.208-12.76-4.591-25.95-2.546-33.964c-49.607,14.072-87.605,55.679-96.44,107.275
	c27.403,28.16,62.704-7.871,68.887,14.803c6.568,24.08-2.189,33.383-2.189,33.383s-14.777,24.628-14.777,39.952
	c0,10.624,32.296,46.233,52.109,67.081c4.046,0.896,8.161,1.607,12.335,2.132c-1.046-10.923,0.531-25.693,14.365-33.092
	c23.533-12.588,27.912-59.106,27.912-59.106l-21.892-15.87C271.351,288.797,260.406,286.608,234.137,278.399z"/>
<g>
	<path style="fill:#2E5E24;" d="M293.243,304.669l-21.892-15.872c0,0-1.253-0.253-3.86-0.884v74.578
		C289.135,348.312,293.243,304.669,293.243,304.669z"/>
	<path style="fill:#2E5E24;" d="M306.307,132.586c-5.006,9.135-18.946,36.442-13.062,47.302c7.115,13.134,4.925-4.379,22.987,0
		c18.06,4.379,31.742,9.85,43.782,8.209c12.04-1.641,22.438,24.628,7.663,31.742c-14.777,7.115,13.134,58.011,13.134,58.011
		l18.313,19.003c2.863-10.964,4.399-22.466,4.399-34.326C403.52,201.004,362.487,149.094,306.307,132.586z"/>
</g>
<path style="fill:#FFC61B;" d="M195.06,238.778V138.516c0-16.943-13.734-30.677-30.677-30.677s-30.679,13.734-30.679,30.677v100.262
	c-18.334,10.611-30.677,30.42-30.677,53.127c0,33.885,27.47,61.356,61.356,61.356s61.356-27.47,61.356-61.356
	C225.739,269.198,213.394,249.387,195.06,238.778z"/>
<path style="fill:#EAA22F;" d="M195.06,238.778V138.516c0-16.943-13.734-30.677-30.677-30.677c-0.109,0-0.215,0.016-0.324,0.017
	v245.396c0.109,0,0.215,0.009,0.324,0.009c33.885,0,61.356-27.47,61.356-61.356C225.739,269.198,213.394,249.389,195.06,238.778z"/>
<path style="fill:#C92F00;" d="M182.51,252.663V138.788c0-10.012-8.116-18.127-18.127-18.127l0,0
	c-10.012,0-18.127,8.116-18.127,18.127v113.874c-16.289,7.537-27.1,24.905-24.79,44.497c2.326,19.711,18.263,35.518,37.99,37.698
	c26.079,2.882,48.154-17.458,48.154-42.955C207.61,274.506,197.327,259.518,182.51,252.663z"/>
<path style="fill:#930000;" d="M182.51,252.663V138.788c0-10.011-8.116-18.127-18.129-18.127c-0.109,0-0.215,0.016-0.324,0.017
	v214.449c24.023,0.176,43.551-19.239,43.551-43.22C207.61,274.506,197.327,259.518,182.51,252.663z"/>
<g>
</g>
<g>
</g>
<g>
</g>
<g>
</g>
<g>
</g>
<g>
</g>
<g>
</g>
<g>
</g>
<g>
</g>
<g>
</g>
<g>
</g>
<g>
</g>
<g>
</g>
<g>
</g>
<g>
</g>
</svg>
