<?xml version="1.0" encoding="iso-8859-1"?>
<!-- Generator: Adobe Illustrator 19.0.0, SVG Export Plug-In . SVG Version: 6.00 Build 0)  -->
<svg version="1.1" id="Layer_1" xmlns="http://www.w3.org/2000/svg" xmlns:xlink="http://www.w3.org/1999/xlink" x="0px" y="0px"
	 viewBox="0 0 353.996 353.996" style="enable-background:new 0 0 353.996 353.996;" xml:space="preserve">
<g id="XMLID_1062_">
	<g id="XMLID_1063_">
		<g id="XMLID_1064_">
			<g id="XMLID_1065_">
				<path id="XMLID_37_" style="fill:#9FCBA5;" d="M184.189,226.421H89.828V47.181C89.828,21.123,110.951,0,137.009,0l0,0
					c26.057,0,47.181,21.123,47.181,47.181L184.189,226.421L184.189,226.421z"/>
				<circle id="XMLID_1066_" style="fill:#9FCBA5;" cx="137.009" cy="259.626" r="94.37"/>
			</g>
			<path id="XMLID_1067_" style="fill:#2B7B57;" d="M137.009,301.565c-23.126,0-41.939-18.813-41.939-41.939
				s18.813-41.939,41.939-41.939s41.939,18.813,41.939,41.939S160.135,301.565,137.009,301.565z"/>
			<path id="XMLID_33_" style="fill:#2B7B57;" d="M137.009,243.898L137.009,243.898c-10.747,0-19.46-8.712-19.46-19.46V53.83
				c0-10.747,8.712-19.46,19.46-19.46l0,0c10.747,0,19.46,8.712,19.46,19.46v170.609
				C156.468,235.186,147.756,243.898,137.009,243.898z"/>
		</g>
		<rect id="XMLID_18_" x="145.78" y="52.709" style="fill:#2B7B57;" width="38.409" height="20.902"/>
		<rect id="XMLID_17_" x="145.78" y="98.532" style="fill:#2B7B57;" width="38.409" height="20.902"/>
		<rect id="XMLID_16_" x="145.78" y="144.355" style="fill:#2B7B57;" width="38.409" height="20.902"/>
	</g>
	<g id="XMLID_1068_">
		<path id="XMLID_9_" style="fill:#49B86E;" d="M248.331,134.526v8.22h-10.576c-7.472,0-11.743,8.523-7.271,14.509l32.254,43.175
			c3.63,4.859,10.913,4.859,14.543,0l32.254-43.175c4.472-5.986,0.2-14.509-7.271-14.509h-10.576v-8.22
			c0-11.972-9.706-21.678-21.678-21.678l0,0C258.036,112.848,248.331,122.554,248.331,134.526z"/>
		<path id="XMLID_6_" style="fill:#49B86E;" d="M291.687,71.438v-8.22h10.576c7.471,0,11.743-8.523,7.271-14.509L277.28,5.534
			c-3.63-4.859-10.913-4.859-14.543,0l-32.254,43.175c-4.472,5.986-0.2,14.509,7.272,14.509h10.576v8.22
			c0,11.972,9.706,21.678,21.678,21.678l0,0C281.981,93.115,291.687,83.41,291.687,71.438z"/>
	</g>
</g>
<g>
</g>
<g>
</g>
<g>
</g>
<g>
</g>
<g>
</g>
<g>
</g>
<g>
</g>
<g>
</g>
<g>
</g>
<g>
</g>
<g>
</g>
<g>
</g>
<g>
</g>
<g>
</g>
<g>
</g>
</svg>
