<?xml version="1.0" encoding="iso-8859-1"?>
<!-- Generator: Adobe Illustrator 19.0.0, SVG Export Plug-In . SVG Version: 6.00 Build 0)  -->
<svg version="1.1" id="Layer_1" xmlns="http://www.w3.org/2000/svg" xmlns:xlink="http://www.w3.org/1999/xlink" x="0px" y="0px"
	 viewBox="0 0 512 512" style="enable-background:new 0 0 512 512;" xml:space="preserve">
<path style="fill:#97D5F7;" d="M441.67,37.248c-36.406-15.885-327.43-7.452-369.617,6.221l-0.415,0.352v451.315
	c0,9.312,7.54,16.865,16.852,16.865h336.328c9.312,0,16.865-7.553,16.865-16.865V37.261L441.67,37.248z"/>
<path style="fill:#7FBFDB;" d="M441.682,37.261v26.365l-0.013,0.013c-10.493,10.028-24.694,16.174-40.327,16.174
	c-5.19,0-10.217-0.679-15.005-1.948c-7.339-1.935-15.256,0.339-19.969,6.296c-12.793,16.148-32.561,26.516-54.766,26.516
	c-23.173,0-43.695-11.298-56.4-28.678c-5.492-7.515-15.482-9.802-23.865-5.756c-4.75,2.287-10.079,3.569-15.709,3.569
	c-6.811,0-13.195-1.885-18.637-5.178c-7.05-4.248-15.897-3.607-22.093,1.81c-12.856,11.247-29.683,18.059-48.106,18.059
	c-21.791,0-41.345-9.526-54.741-24.644c-0.138-0.163-0.276-0.314-0.415-0.478V43.821l0.415-0.352
	c42.187-13.673,333.211-22.105,369.617-6.221L441.682,37.261z"/>
<path style="fill:#F2F2F2;" d="M435.902,0c14.414,0,23.638,15.457,16.701,28.087c-2.903,5.291-6.598,10.079-10.933,14.188
	c-10.493,10.028-24.694,16.174-40.327,16.174c-5.19,0-10.217-0.679-15.005-1.948c-7.339-1.935-15.256,0.339-19.969,6.296
	c-12.793,16.148-32.561,26.516-54.766,26.516c-23.173,0-43.695-11.298-56.4-28.678c-5.492-7.515-15.482-9.802-23.865-5.756
	c-4.75,2.287-10.079,3.569-15.709,3.569c-6.811,0-13.195-1.885-18.637-5.178c-7.05-4.248-15.897-3.607-22.093,1.81
	c-12.856,11.247-29.683,18.059-48.106,18.059c-21.791,0-41.345-9.526-54.741-24.644c-5.919-6.673-10.632-14.439-13.811-22.947
	C53.63,13.17,62.891,0,76.099,0H435.902z"/>
<path style="fill:#E6E6E6;" d="M258.306,356.711c-16.06,0-29.08,13.019-29.08,29.08c0,16.048,13.019,29.067,29.08,29.067
	c16.048,0,29.067-13.019,29.067-29.067C287.374,369.73,274.354,356.711,258.306,356.711z M293.682,338.351
	c15.168,10.983,25.058,28.828,25.058,48.986c0,33.868-27.848,61.213-61.892,60.422c-31.844-0.754-57.908-26.566-58.939-58.411
	c-0.691-20.974,9.337-39.648,25.021-50.996V150.036c0-9.764,3.959-18.612,10.355-25.021c6.409-6.397,15.256-10.355,25.021-10.355
	c19.529,0,35.376,15.834,35.376,35.376V338.351L293.682,338.351z"/>
<g>
	<rect x="322.73" y="153.303" style="fill:#FFFFFF;" width="45.869" height="15.08"/>
	<rect x="322.73" y="314.524" style="fill:#FFFFFF;" width="45.869" height="15.08"/>
	<rect x="322.73" y="207.039" style="fill:#FFFFFF;" width="45.869" height="15.08"/>
	<rect x="322.73" y="260.788" style="fill:#FFFFFF;" width="45.869" height="15.08"/>
</g>
<path style="fill:#F95428;" d="M276.528,351.883V153.303c0-10.064-8.158-18.222-18.222-18.222c-10.064,0-18.222,8.158-18.222,18.222
	V351.88c-12.065,6.51-20.283,19.268-20.283,33.91c0,21.225,17.273,38.492,38.505,38.492c21.225,0,38.492-17.268,38.492-38.492
	C296.799,371.149,288.586,358.394,276.528,351.883z"/>
<g>
	<path style="fill:#FFFFFF;" d="M406.155,459.165l9.996-9.996c3.681-3.681,3.681-9.649,0-13.328c-3.682-3.681-9.649-3.681-13.33,0
		l-9.996,9.996l-9.996-9.996c-3.682-3.681-9.649-3.682-13.33,0c-3.681,3.681-3.681,9.649,0,13.328l9.996,9.996l-9.996,9.997
		c-3.681,3.681-3.681,9.649,0,13.328c1.841,1.84,4.254,2.761,6.665,2.761c2.412,0,4.824-0.92,6.665-2.761l9.996-9.996l9.996,9.996
		c1.841,1.841,4.253,2.761,6.665,2.761c2.412,0,4.824-0.92,6.665-2.761c3.681-3.681,3.681-9.649,0-13.328L406.155,459.165z"/>
	<path style="fill:#FFFFFF;" d="M150.772,435.841c-3.681-3.681-9.649-3.681-13.328,0l-9.996,9.996l-9.996-9.996
		c-3.681-3.681-9.649-3.681-13.328,0c-3.681,3.681-3.681,9.649,0,13.328l9.996,9.996l-9.996,9.997
		c-3.681,3.681-3.681,9.649,0,13.328c1.84,1.84,4.253,2.761,6.664,2.761c2.412,0,4.824-0.92,6.664-2.761l9.996-9.997l9.996,9.997
		c1.84,1.84,4.253,2.761,6.664,2.761c2.412,0,4.824-0.92,6.664-2.761c3.681-3.681,3.681-9.649,0-13.328l-9.996-9.997l9.996-9.996
		C154.452,445.49,154.452,439.522,150.772,435.841z"/>
</g>
<g>
</g>
<g>
</g>
<g>
</g>
<g>
</g>
<g>
</g>
<g>
</g>
<g>
</g>
<g>
</g>
<g>
</g>
<g>
</g>
<g>
</g>
<g>
</g>
<g>
</g>
<g>
</g>
<g>
</g>
</svg>
