<?xml version="1.0" encoding="iso-8859-1"?>
<!-- Generator: Adobe Illustrator 19.0.0, SVG Export Plug-In . SVG Version: 6.00 Build 0)  -->
<svg version="1.1" id="Layer_1" xmlns="http://www.w3.org/2000/svg" xmlns:xlink="http://www.w3.org/1999/xlink" x="0px" y="0px"
	 viewBox="0 0 490 490" style="enable-background:new 0 0 490 490;" xml:space="preserve">
<g>
	<g id="XMLID_30_">
		<g>
			<path style="fill:#E7ECED;" d="M245,225c49.697,0,90,40.303,90,90s-40.303,90-90,90c-49.707,0-90-40.303-90-90
				S195.293,225,245,225z"/>
			<path style="fill:#546A79;" d="M245,190c69.004,0,125,56.001,125,125c0,69.004-55.996,125-125,125s-125-55.996-125-125
				C120,246.001,175.996,190,245,190z M335,315c0-49.697-40.303-90-90-90c-49.707,0-90,40.303-90,90s40.293,90,90,90
				C294.697,405,335,364.697,335,315z"/>
			<path style="fill:#FFFFFF;" d="M480,150v320c0,5.498-4.502,10-10,10H20c-5.498,0-10-4.502-10-10V150H480z M370,315
				c0-68.999-55.996-125-125-125s-125,56.001-125,125c0,69.004,55.996,125,125,125S370,384.004,370,315z"/>
			<polygon style="fill:#AFB6BB;" points="395,40 395,100 355,100 355,40 355,10 395,10 			"/>
			<polygon style="fill:#AFB6BB;" points="265,40 265,100 225,100 225,40 225,10 265,10 			"/>
			<polygon style="fill:#AFB6BB;" points="135,40 135,100 95,100 95,40 95,10 135,10 			"/>
			<path style="fill:#F4661E;" d="M480,50v100H10V50c0-5.498,4.502-10,10-10h75v60h40V40h90v60h40V40h90v60h40V40h75
				C475.498,40,480,44.502,480,50z"/>
		</g>
		<g>
			<path style="fill:#231F20;" d="M470,30h-65V10c0-5.523-4.478-10-10-10h-40c-5.522,0-10,4.477-10,10v20h-70V10
				c0-5.523-4.478-10-10-10h-40c-5.523,0-10,4.477-10,10v20h-70V10c0-5.523-4.477-10-10-10H95c-5.523,0-10,4.477-10,10v20H20
				C8.972,30,0,38.972,0,50v420c0,11.028,8.972,20,20,20h450c11.028,0,20-8.972,20-20V50C490,38.972,481.028,30,470,30z M365,20h20
				v70h-20V20z M235,20h20v70h-20V20z M105,20h20v70h-20V20z M85,50v50c0,5.523,4.477,10,10,10h40c5.523,0,10-4.477,10-10V50h70v50
				c0,5.523,4.477,10,10,10h40c5.522,0,10-4.477,10-10V50h70v50c0,5.523,4.478,10,10,10h40c5.522,0,10-4.477,10-10V50h65v90H20V50
				H85z M20,470V160h25v175h20V160h360v175h20V160h25v310H20z"/>
			<path style="fill:#231F20;" d="M245,180c-74.44,0-135,60.561-135,135s60.56,135,135,135s135-60.56,135-135S319.44,180,245,180z
				 M245,430c-63.411,0-115-51.589-115-115s51.589-115,115-115s115,51.589,115,115S308.411,430,245,430z"/>
			<path style="fill:#231F20;" d="M245,215c-55.14,0-100,44.86-100,100s44.86,100,100,100c55.141,0,100-44.86,100-100
				S300.141,215,245,215z M245,395c-44.112,0-80-35.888-80-80s35.888-80,80-80s80,35.888,80,80S289.112,395,245,395z"/>
			<path style="fill:#231F20;" d="M255,255h-20v60c0,5.523,4.477,10,10,10h60v-20h-50V255z"/>
		</g>
	</g>
</g>
<g>
</g>
<g>
</g>
<g>
</g>
<g>
</g>
<g>
</g>
<g>
</g>
<g>
</g>
<g>
</g>
<g>
</g>
<g>
</g>
<g>
</g>
<g>
</g>
<g>
</g>
<g>
</g>
<g>
</g>
</svg>
