<?xml version="1.0" encoding="iso-8859-1"?>
<!-- Generator: Adobe Illustrator 19.0.0, SVG Export Plug-In . SVG Version: 6.00 Build 0)  -->
<svg version="1.1" id="Layer_1" xmlns="http://www.w3.org/2000/svg" xmlns:xlink="http://www.w3.org/1999/xlink" x="0px" y="0px"
	 viewBox="0 0 512 512" style="enable-background:new 0 0 512 512;" xml:space="preserve">
<path style="fill:#AA6455;" d="M268.387,0c-15.936,0-28.903,12.968-28.903,28.903v61.935H256V28.903
	c0-6.83,5.557-12.387,12.387-12.387c6.83,0,12.387,5.557,12.387,12.387V41.29c0,4.565,3.693,8.258,8.258,8.258
	s8.258-3.693,8.258-8.258V28.903C297.29,12.968,284.323,0,268.387,0z"/>
<rect x="239.484" y="66.065" style="fill:#AFB9D2;" width="16.516" height="33.032"/>
<path style="fill:#5B5D6E;" d="M239.242,454.194h16.999c9.787-71.598,24.533-173.298,24.533-222.968
	c0-57.806-8.258-99.097-8.258-99.097l6.282-31.414c1.022-5.109-2.886-9.877-8.098-9.877h-45.918c-5.211,0-9.119,4.768-8.098,9.877
	l6.283,31.414c0,0-8.258,41.29-8.258,99.097C214.71,280.896,229.455,382.595,239.242,454.194z"/>
<g>
	<path style="fill:#464655;" d="M272.516,140.387h-49.548c-4.565,0-8.258-3.693-8.258-8.258c0-4.565,3.693-8.258,8.258-8.258h49.548
		c4.565,0,8.258,3.693,8.258,8.258C280.774,136.694,277.081,140.387,272.516,140.387z"/>
	<path style="fill:#464655;" d="M247.742,156.903c-4.565,0-8.258,3.693-8.258,8.258V470.71H256V165.161
		C256,160.597,252.307,156.903,247.742,156.903z"/>
</g>
<path style="fill:#C7CFE2;" d="M247.742,512L247.742,512c-4.561,0-8.258-3.698-8.258-8.258v-49.548H256v49.548
	C256,508.302,252.302,512,247.742,512z"/>
<rect x="239.484" y="454.194" style="fill:#AFB9D2;" width="16.516" height="16.516"/>
<g>
</g>
<g>
</g>
<g>
</g>
<g>
</g>
<g>
</g>
<g>
</g>
<g>
</g>
<g>
</g>
<g>
</g>
<g>
</g>
<g>
</g>
<g>
</g>
<g>
</g>
<g>
</g>
<g>
</g>
</svg>
