<?xml version="1.0" encoding="iso-8859-1"?>
<!-- Generator: Adobe Illustrator 19.0.0, SVG Export Plug-In . SVG Version: 6.00 Build 0)  -->
<svg version="1.1" id="Layer_1" xmlns="http://www.w3.org/2000/svg" xmlns:xlink="http://www.w3.org/1999/xlink" x="0px" y="0px"
	 viewBox="0 0 512 512" style="enable-background:new 0 0 512 512;" xml:space="preserve">
<path style="fill:#94D1EA;" d="M344.114,291.17c0,48.664-39.451,88.114-88.114,88.114s-88.114-39.451-88.114-88.114
	S256,121.371,256,121.371S344.114,242.506,344.114,291.17z"/>
<g>
	<path style="fill:#5E282D;" d="M256,111.171c-3.263,0-6.329,1.56-8.248,4.199c-0.223,0.307-22.536,31.051-44.533,67.367
		c-30.213,49.879-45.533,86.362-45.533,108.433c0,54.21,44.103,98.314,98.314,98.314s98.314-44.103,98.314-98.314
		c0-22.072-15.32-58.554-45.533-108.433c-21.997-36.314-44.309-67.06-44.533-67.367C262.329,112.732,259.263,111.171,256,111.171z
		 M333.916,291.17c0,42.962-34.953,77.916-77.916,77.916s-77.916-34.954-77.916-77.916c0-33.455,50.365-112.653,77.916-152.194
		C283.551,178.517,333.916,257.716,333.916,291.17z"/>
	<path style="fill:#5E282D;" d="M501.801,245.801c-5.632,0-10.199,4.567-10.199,10.199c0,2.917-0.055,5.881-0.161,8.806
		c-0.206,5.63,4.19,10.359,9.819,10.565c0.128,0.005,0.254,0.007,0.38,0.007c5.461,0,9.984-4.324,10.185-9.826
		C511.941,262.38,512,259.165,512,256C512,250.368,507.433,245.801,501.801,245.801z"/>
	<path style="fill:#5E282D;" d="M496.208,309.379c-5.44-1.445-11.028,1.797-12.474,7.241
		C456.383,419.646,362.735,491.602,256,491.602c-57.598,0-112.031-20.54-154.962-58.135h32.571c5.632,0,10.199-4.567,10.199-10.199
		c0-5.632-4.567-10.199-10.199-10.199H78.534c-5.632,0-10.199,4.567-10.199,10.199v55.076c0,5.632,4.567,10.199,10.199,10.199
		s10.199-4.567,10.199-10.199v-28.527C135.206,490.046,193.915,512,256,512c115.973,0,217.728-78.191,247.448-190.148
		C504.893,316.409,501.652,310.824,496.208,309.379z"/>
	<path style="fill:#5E282D;" d="M256,20.398c59.647,0,115.901,22.028,159.5,62.215h-32.01c-5.632,0-10.199,4.567-10.199,10.199
		s4.567,10.199,10.199,10.199h55.076c5.632,0,10.199-4.567,10.199-10.199V37.737c0-5.632-4.567-10.199-10.199-10.199
		c-5.632,0-10.199,4.567-10.199,10.199v28.987C381.126,23.611,320.379,0,256,0C187.619,0,123.333,26.628,74.981,74.981
		C26.628,123.333,0,187.619,0,256c0,5.632,4.567,10.199,10.199,10.199S20.398,261.632,20.398,256
		C20.398,126.089,126.089,20.398,256,20.398z"/>
</g>
<g>
</g>
<g>
</g>
<g>
</g>
<g>
</g>
<g>
</g>
<g>
</g>
<g>
</g>
<g>
</g>
<g>
</g>
<g>
</g>
<g>
</g>
<g>
</g>
<g>
</g>
<g>
</g>
<g>
</g>
</svg>
