<?xml version="1.0" encoding="iso-8859-1"?>
<!-- Generator: Adobe Illustrator 19.0.0, SVG Export Plug-In . SVG Version: 6.00 Build 0)  -->
<svg version="1.1" id="Layer_1" xmlns="http://www.w3.org/2000/svg" xmlns:xlink="http://www.w3.org/1999/xlink" x="0px" y="0px"
	 viewBox="0 0 512 512" style="enable-background:new 0 0 512 512;" xml:space="preserve">
<path style="fill:#9DDA74;" d="M462.562,344.51c-4.128,19.297-10.976,38.143-20.531,55.914
	c-9.569,17.771-21.859,34.467-36.856,49.464C363.767,491.296,309.485,512,255.217,512s-108.55-20.704-149.958-62.112
	c-33.604-33.604-53.565-75.663-59.909-119.327c29.344,18.833,53.512,41.169,110.793,41.169c99.061,0,99.061-66.77,198.135-66.77
	C409.926,304.96,434.32,326.035,462.562,344.51z"/>
<path style="fill:#80D2EE;" d="M405.175,149.958c38.634,38.648,59.245,88.483,61.833,139.075
	c-30.246-19.085-54.189-42.403-112.731-42.403c-99.074,0-99.074,66.77-198.135,66.77c-57.52,0-81.648-22.509-111.151-41.395
	c5.893-44.633,25.973-87.753,60.267-122.048L255.217,0L405.175,149.958z"/>
<path style="fill:#90C666;" d="M253.492,511.403c-53.645-0.425-107.143-21.102-148.06-62.032
	c-33.405-33.405-53.326-75.198-59.75-118.597c21.898,14.095,40.983,30.087,73.247,37.201c6.875,29.742,18.368,57.679,34.48,81.396
	C181.094,490.088,217.22,510.766,253.492,511.403z"/>
<path style="fill:#68B9DA;" d="M111.35,307.747c-28.03-7.857-45.841-22.589-66.187-35.635
	c5.149-39.643,21.514-78.091,49.066-110.249c0.133-0.133,0.252-0.265,0.358-0.411c0.504-0.584,1.022-1.168,1.526-1.739
	c0.597-0.677,1.194-1.354,1.805-2.017c0.597-0.677,1.221-1.34,1.832-2.004c1.845-2.004,3.743-3.968,5.68-5.906L255.217,0
	L153.409,149.786C123.892,193.224,109.864,250.837,111.35,307.747z"/>
<g>
</g>
<g>
</g>
<g>
</g>
<g>
</g>
<g>
</g>
<g>
</g>
<g>
</g>
<g>
</g>
<g>
</g>
<g>
</g>
<g>
</g>
<g>
</g>
<g>
</g>
<g>
</g>
<g>
</g>
</svg>
