<?xml version="1.0" encoding="iso-8859-1"?>
<!-- Generator: Adobe Illustrator 19.0.0, SVG Export Plug-In . SVG Version: 6.00 Build 0)  -->
<svg version="1.1" id="Layer_1" xmlns="http://www.w3.org/2000/svg" xmlns:xlink="http://www.w3.org/1999/xlink" x="0px" y="0px"
	 viewBox="0 0 512 512" style="enable-background:new 0 0 512 512;" xml:space="preserve">
<path style="fill:#9DA1A4;" d="M427.707,396.488c-13.737,0-24.976,11.239-24.976,24.976c0,13.737,11.239,24.976,24.976,24.976
	c13.737,0,24.976-11.239,24.976-24.976C452.683,407.727,441.444,396.488,427.707,396.488z M458.927,171.707v181.698
	c25.725,11.863,43.707,37.838,43.707,68.059c0,41.335-33.592,74.927-74.927,74.927s-74.927-33.592-74.927-74.927
	c0-30.221,17.982-56.195,43.707-68.059V171.707H458.927z"/>
<path style="fill:#F25B22;" d="M427.707,396.488c13.737,0,24.976,11.239,24.976,24.976c0,13.737-11.239,24.976-24.976,24.976
	c-13.737,0-24.976-11.239-24.976-24.976C402.732,407.727,413.971,396.488,427.707,396.488z"/>
<path style="fill:#FFD311;" d="M140.488,296.585c13.737,0,24.976,11.239,24.976,24.976c0,13.737-11.239,24.976-24.976,24.976
	s-24.976-11.239-24.976-24.976C115.512,307.824,126.751,296.585,140.488,296.585z"/>
<g>
	<path style="fill:#9DA1A4;" d="M9.366,433.951H271.61v49.951c0,6.868-5.62,12.488-12.488,12.488H21.854
		c-6.868,0-12.488-5.62-12.488-12.488V433.951z"/>
	<path style="fill:#9DA1A4;" d="M21.854,46.829h237.268c6.868,0,12.488,5.62,12.488,12.488v62.439H9.366V59.317
		C9.366,52.449,14.985,46.829,21.854,46.829z"/>
</g>
<path style="fill:#00ABD5;" d="M271.61,121.756v312.195H9.366V121.756H271.61z M165.463,321.561
	c0-13.737-11.239-24.976-24.976-24.976s-24.976,11.239-24.976,24.976c0,13.737,11.239,24.976,24.976,24.976
	S165.463,335.298,165.463,321.561z"/>
<path style="fill:#00BDE2;" d="M9.366,140.488v293.463H271.61v-31.22L9.366,140.488z M140.488,346.537
	c-13.737,0-24.976-11.239-24.976-24.976c0-13.737,11.239-24.976,24.976-24.976s24.976,11.239,24.976,24.976
	C165.463,335.298,154.224,346.537,140.488,346.537z"/>
<path d="M468.293,347.654V162.341h-81.171v185.313c-26.74,14.762-43.707,43.103-43.707,73.809c0,46.48,37.813,84.293,84.293,84.293
	S512,467.943,512,421.463C512,390.756,495.033,362.416,468.293,347.654z M427.707,487.024c-36.151,0-65.561-29.411-65.561-65.561
	c0-25.459,15.019-48.834,38.264-59.553l5.443-2.51V181.073h43.707V359.4l5.443,2.51c23.245,10.72,38.264,34.094,38.264,59.553
	C493.268,457.613,463.858,487.024,427.707,487.024z"/>
<path d="M437.073,388.431V259.122h-18.732v129.309c-14.396,4.089-24.976,17.344-24.976,33.033c0,18.935,15.405,34.341,34.341,34.341
	c18.937,0,34.341-15.406,34.341-34.341C462.049,405.775,451.469,392.519,437.073,388.431z M427.707,437.073
	c-8.608,0-15.61-7.002-15.61-15.61s7.002-15.61,15.61-15.61s15.61,7.002,15.61,15.61S436.315,437.073,427.707,437.073z"/>
<rect x="415.22" y="224.78" style="fill:#FFFFFF;" width="24.976" height="18.732"/>
<path d="M259.122,37.463H21.854C9.804,37.463,0,47.268,0,59.317v424.585c0,12.049,9.804,21.854,21.854,21.854h237.268
	c12.049,0,21.854-9.804,21.854-21.854V59.317C280.976,47.268,271.171,37.463,259.122,37.463z M262.244,483.902
	c0,1.692-1.43,3.122-3.122,3.122H21.854c-1.692,0-3.122-1.43-3.122-3.122v-40.585h243.512V483.902z M262.244,424.585H18.732V131.122
	h243.512V424.585z M262.244,112.39H18.732V59.317c0-1.692,1.43-3.122,3.122-3.122h237.268c1.692,0,3.122,1.43,3.122,3.122V112.39z"
	/>
<rect x="90.537" y="74.927" style="fill:#FFFFFF;" width="99.902" height="18.732"/>
<rect x="121.756" y="455.805" width="37.463" height="18.732"/>
<g>
	<path style="fill:#FFFFFF;" d="M74.436,249.626c0.608-1.778,15.49-43.577,66.052-43.577c50.838,0,67.605,42.116,68.281,43.875
		l17.539-6.579c-0.858-2.288-21.748-56.028-85.82-56.028c-33.532,0-54.529,15.234-66.239,28.015
		c-12.648,13.804-17.381,27.76-17.575,28.347L74.436,249.626z"/>
	<path style="fill:#FFFFFF;" d="M140.488,256c21.984,0,29.415,18.195,29.692,18.899l17.539-6.579
		c-0.476-1.266-12.049-31.052-47.231-31.052c-35.429,0-45.915,30.086-46.343,31.366l17.761,5.952
		C111.968,274.398,118.387,256,140.488,256z"/>
</g>
<path d="M140.488,287.219c-18.937,0-34.341,15.406-34.341,34.341c0,18.935,15.405,34.341,34.341,34.341s34.341-15.406,34.341-34.341
	C174.829,302.626,159.424,287.219,140.488,287.219z M140.488,337.171c-8.608,0-15.61-7.002-15.61-15.61s7.002-15.61,15.61-15.61
	c8.608,0,15.61,7.002,15.61,15.61S149.096,337.171,140.488,337.171z"/>
<rect x="34.341" y="149.854" width="24.976" height="18.732"/>
<rect x="221.659" y="149.854" width="24.976" height="18.732"/>
<rect x="221.659" y="387.122" style="fill:#FFFFFF;" width="24.976" height="18.732"/>
<rect x="221.659" y="349.659" width="24.976" height="18.732"/>
<rect x="184.195" y="387.122" width="24.976" height="18.732"/>
<rect x="34.341" y="387.122" style="fill:#FFFFFF;" width="24.976" height="18.732"/>
<rect x="34.341" y="349.659" width="24.976" height="18.732"/>
<rect x="71.805" y="387.122" width="24.976" height="18.732"/>
<path d="M425.584,24.976c50.839,0,67.605,42.116,68.281,43.875l17.539-6.579c-0.859-2.288-21.749-56.028-85.82-56.028
	c-33.464,0-54.463,15.231-66.187,28.01c-12.659,13.797-17.424,27.745-17.62,28.331l17.749,5.988
	C360.14,66.794,375.127,24.976,425.584,24.976z"/>
<path d="M455.403,93.826l17.539-6.579c-0.476-1.266-12.051-31.052-47.358-31.052c-35.429,0-45.915,30.086-46.343,31.366
	l17.761,5.952c0.061-0.187,6.481-18.586,28.582-18.586C447.689,74.927,455.124,93.123,455.403,93.826z"/>
<rect x="415.22" y="112.39" width="24.976" height="18.732"/>
<g>
</g>
<g>
</g>
<g>
</g>
<g>
</g>
<g>
</g>
<g>
</g>
<g>
</g>
<g>
</g>
<g>
</g>
<g>
</g>
<g>
</g>
<g>
</g>
<g>
</g>
<g>
</g>
<g>
</g>
</svg>
