<?xml version="1.0" encoding="iso-8859-1"?>
<!-- Generator: Adobe Illustrator 19.0.0, SVG Export Plug-In . SVG Version: 6.00 Build 0)  -->
<svg version="1.1" id="Layer_1" xmlns="http://www.w3.org/2000/svg" xmlns:xlink="http://www.w3.org/1999/xlink" x="0px" y="0px"
	 viewBox="0 0 511.969 511.969" style="enable-background:new 0 0 511.969 511.969;" xml:space="preserve">
<polygon style="fill:#EC5564;" points="423.276,49.996 423.276,23.998 361.952,11.999 373.952,91.338 414.621,147.334 
	437.948,122.664 "/>
<polygon style="fill:#FECD57;" points="408.95,220.658 376.952,143.991 371.952,99.993 358.952,56.996 344.954,68.995 
	329.954,92.994 298.956,143.991 263.959,224.986 243.96,148.99 211.962,101.993 173.963,84.994 131.966,96.994 69.97,147.99 
	43.972,192.988 92.968,188.988 130.966,203.987 152.965,238.985 189.963,340.978 248.96,392.976 315.956,392.976 373.952,379.726 
	410.95,347.978 434.948,279.982 "/>
<circle style="fill:#F5BA45;" cx="394.454" cy="85.824" r="28.826"/>
<path d="M487.491,451.113l-30.17-30.17c-4.156-4.172-10.905-4.172-15.076,0c-4.172,4.172-4.172,10.921,0,15.076l11.951,11.969
	H298.643v-42.857c144.508-5.452,162.678-121.945,128.352-176.536c-27.42-43.606-42.294-70.496-41.716-96.697
	c0.016,0.016,0.016,0.031,0.031,0.047l14.062,17.03c3.922,4.75,9.328,7.156,14.749,7.156c4.922,0,9.858-1.969,13.749-5.953
	l12.563-12.827c8.202-8.39,8.108-21.999-0.234-30.264l-7.391-7.312c1.344-2.625,2.422-5.421,3.172-8.328h11.983
	c5.89,0,10.655-4.781,10.655-10.671c0-5.891-4.766-10.671-10.655-10.671H435.98c-1.156-4.421-3.016-8.562-5.469-12.28l3.344-19.999
	c1.922-11.578-5.813-23.374-17.187-26.217L372.733,0.625C371.045,0.203,369.436,0,367.92,0c-8.766,0-14.483,6.703-13.233,16.624
	l3.874,31.045c-49.559,34.888-90.65,144.351-90.65,144.351c-22.232-85.917-57.996-116.087-95.635-116.087
	c-63.871-0.016-133.147,86.885-150.928,135.632c24.279-8.25,43.685-11.905,59.355-11.905c115.384,0,28.357,197.472,196.613,205.409
	v42.92H164.339l-27.045-27.045c-4.156-4.172-10.906-4.172-15.077,0c-4.172,4.172-4.172,10.921,0,15.076l11.952,11.969h-12.64
	l-27.03-27.045c-4.171-4.172-10.921-4.172-15.093,0c-4.155,4.172-4.155,10.921,0,15.076l22.624,22.624l-22.624,22.624
	c-4.155,4.172-4.155,10.921,0,15.093c4.172,4.155,10.922,4.155,15.093,0l27.03-27.046h12.64l-11.952,11.953
	c-4.172,4.172-4.172,10.921,0,15.093c4.171,4.155,10.921,4.155,15.077,0l27.045-27.046h112.978v42.654h21.326v-42.655h155.553
	l-11.951,11.953c-4.172,4.172-4.172,10.921,0,15.093c4.171,4.155,10.92,4.155,15.076,0l30.17-30.171
	C491.663,462.034,491.663,455.269,487.491,451.113z M418.621,115.742l6.562,6.5c0.016,0.047,0.016,0.141,0,0.203l-10.874,11.109
	l-9.749-11.812C409.653,120.602,414.402,118.555,418.621,115.742z M411.497,32.31c0.593,0.141,1.421,1.406,1.312,2.015l-1.28,7.687
	c-4.969-2.078-10.438-3.234-16.172-3.234c-5.672,0-11.077,1.141-16.014,3.172l-2.281-18.249L411.497,32.31z M395.356,60.105
	c11.406,0,20.671,9.281,20.671,20.671s-9.265,20.67-20.671,20.67c-11.39,0-20.654-9.281-20.654-20.67
	C374.702,69.386,383.966,60.105,395.356,60.105z M287.972,383.992c-21.014,0-38.856-3.047-52.996-9.063
	c-11.766-4.999-21.296-12.124-29.14-21.748c-13.655-16.765-20.795-39.576-26.936-62.574c2.75-1.688,9-3.547,20.78-2.375
	c0.359,0.031,0.719,0.047,1.078,0.047c5.89,0,10.655-4.766,10.655-10.656c0-5.53-4.203-10.077-9.593-10.608
	c-12.688-1.28-21.843,0.141-28.421,2.672c-3.702-13.827-7.624-27.077-13.108-39.169c5.672-1.906,15.937-3.594,33.857-1.969
	c0.328,0.031,0.641,0.047,0.969,0.047c5.891,0,10.671-4.765,10.671-10.655c0-5.563-4.265-10.14-9.702-10.625
	c-19.765-1.797-35.373-0.281-46.419,4.468c-7.375-10.327-16.39-18.358-26.826-23.889c-1.75-0.922-3.563-1.781-5.406-2.578
	c2.563-3.453,5.656-7.156,9.28-10.656c14.905-14.39,31.623-18.655,49.669-12.671c1.063,0.344,2.188,0.531,3.359,0.531
	c5.891,0,10.655-4.765,10.655-10.655c0-4.719-3.062-8.718-7.312-10.125l0,0c-0.031-0.016-0.063-0.031-0.094-0.031
	c-0.047-0.016-0.109-0.031-0.156-0.047c-25.718-8.421-50.247-2.328-70.934,17.655c-7.062,6.812-12.483,14.14-16.265,20.03
	c-4.78-0.672-9.765-1.016-14.937-1.016c-5.733,0-11.749,0.406-18.062,1.203c8.719-12.858,19.546-26.436,32.045-39.06
	c13.405-13.546,26.874-24.186,40.061-31.639c13.577-7.687,26.201-11.577,37.528-11.577c14.047,0,26.39,6.14,37.717,18.749
	c15.108,16.827,27.639,44.185,37.264,81.354l16.905,65.34l23.717-63.184c0.141-0.375,14.171-37.529,35.279-74.339
	c10.312-17.983,20.452-32.67,30.232-43.794c0.156,11.858,5.233,22.514,13.296,30.061c-10.438,41.451,9.859,76.979,42.248,128.508
	c7.015,11.155,11.123,25.78,11.561,41.169c0.484,16.937-3.452,33.482-11.389,47.857c-8.875,16.061-22.358,28.889-40.092,38.122
	C347.516,378.32,320.252,383.992,287.972,383.992z"/>
<g>
</g>
<g>
</g>
<g>
</g>
<g>
</g>
<g>
</g>
<g>
</g>
<g>
</g>
<g>
</g>
<g>
</g>
<g>
</g>
<g>
</g>
<g>
</g>
<g>
</g>
<g>
</g>
<g>
</g>
</svg>
