<?xml version="1.0" encoding="iso-8859-1"?>
<!-- Generator: Adobe Illustrator 19.0.0, SVG Export Plug-In . SVG Version: 6.00 Build 0)  -->
<svg version="1.1" id="Layer_1" xmlns="http://www.w3.org/2000/svg" xmlns:xlink="http://www.w3.org/1999/xlink" x="0px" y="0px"
	 viewBox="0 0 299.637 299.637" style="enable-background:new 0 0 299.637 299.637;" xml:space="preserve">
<g>
	<path style="fill:#425864;" d="M109.555,103.936c-29.964,0-54.309-23.409-54.309-53.373c0-16.855,7.491-31.836,19.664-41.2
		C38.391,10.3,9.364,39.327,9.364,74.909c0,36.518,29.964,65.545,67.418,65.545c29.964,0,55.245-19.664,63.673-45.882
		C132.027,100.191,120.791,103.936,109.555,103.936z"/>
	<path style="fill:#E4E7E7;" d="M251.882,85.209c-6.555-31.836-34.645-57.118-69.291-57.118c-24.345,0-45.882,12.173-58.055,30.9
		c-3.745-1.873-7.491-2.809-12.173-2.809c-15.918,0-28.091,12.173-28.091,28.091l0,0c-1.873,0-2.809,0-4.682,0
		c-28.091,0-51.5,23.409-51.5,51.5c0,1.873,0,3.745,0,4.682C12.173,142.327,0,156.373,0,173.227C0,191.018,14.982,206,32.773,206
		h206c33.709,0,60.864-27.155,60.864-60.864C299.636,116.109,279.036,91.764,251.882,85.209z"/>
	<path style="fill:#3CAFD6;" d="M196.636,131.091c-6.555,0-9.364,3.745-9.364,9.364s2.809,9.364,9.364,9.364
		c10.3,0,18.727,10.3,18.727,18.727s-8.427,18.727-18.727,18.727H65.545V206h131.091c24.345,0,37.455-16.855,37.455-37.455
		S220.982,131.091,196.636,131.091z M159.182,215.364H65.545v18.727h93.636c10.3,0,18.727,10.3,18.727,18.727
		s-8.427,18.727-18.727,18.727c-6.555,0-9.364,3.745-9.364,9.364s2.809,9.364,9.364,9.364c24.345,0,37.455-16.855,37.455-37.455
		S183.527,215.364,159.182,215.364z"/>
</g>
<g>
</g>
<g>
</g>
<g>
</g>
<g>
</g>
<g>
</g>
<g>
</g>
<g>
</g>
<g>
</g>
<g>
</g>
<g>
</g>
<g>
</g>
<g>
</g>
<g>
</g>
<g>
</g>
<g>
</g>
</svg>
