<?xml version="1.0" encoding="iso-8859-1"?>
<!-- Generator: Adobe Illustrator 19.0.0, SVG Export Plug-In . SVG Version: 6.00 Build 0)  -->
<svg version="1.1" id="Layer_1" xmlns="http://www.w3.org/2000/svg" xmlns:xlink="http://www.w3.org/1999/xlink" x="0px" y="0px"
	 viewBox="0 0 494.4 494.4" style="enable-background:new 0 0 494.4 494.4;" xml:space="preserve">
<path style="fill:#1A6000;" d="M24.8,342.4c34.4,88,120.8,152,222.4,152s188-64,222.4-152H24.8z"/>
<path style="fill:#144400;" d="M247.2,342.4v152l0,0c101.6,0,188-64,222.4-152H247.2z"/>
<path style="fill:#0CA6BF;" d="M261.6,349.6c0,7.2-11.2,13.6-14.4,13.6l0,0c-3.2,0-14.4-6.4-14.4-13.6l8-175.2
	c0-7.2,3.2-13.6,6.4-13.6l0,0c3.2,0,6.4,6.4,6.4,13.6L261.6,349.6z"/>
<path style="fill:#007E93;" d="M247.2,160.8L247.2,160.8c3.2,0,6.4,6.4,6.4,13.6l8,175.2c0,7.2-11.2,13.6-14.4,13.6l0,0"/>
<path style="fill:#EA8B18;" d="M271.2,147.2c0,5.6-18.4,10.4-24,10.4l0,0c-5.6,0-24-4.8-24-10.4l13.6-136.8
	c0-5.6,4.8-10.4,10.4-10.4l0,0c5.6,0,10.4,4.8,10.4,10.4L271.2,147.2z"/>
<path style="fill:#C66402;" d="M247.2,0L247.2,0c5.6,0,10.4,4.8,10.4,10.4l13.6,136.8c0,5.6-18.4,10.4-24,10.4l0,0"/>
<path style="fill:#EA8B18;" d="M209.6,164.8c4.8-3.2,18.4,10.4,21.6,16l0,0c3.2,4.8,8,23.2,2.4,26.4l-125.6,56
	c-4.8,3.2-12,0.8-14.4-4l0,0c-3.2-4.8-0.8-12,4-14.4L209.6,164.8z"/>
<path style="fill:#C66402;" d="M93.6,258.4L93.6,258.4c-3.2-4.8-0.8-12,4-14.4l112.8-79.2c4.8-3.2,18.4,10.4,21.6,16l0,0"/>
<path style="fill:#EA8B18;" d="M284.8,164.8c-4.8-3.2-18.4,10.4-21.6,16l0,0c-3.2,4.8-8,23.2-2.4,26.4l125.6,56
	c4.8,3.2,12,0.8,14.4-4l0,0c3.2-4.8,0.8-12-4-14.4L284.8,164.8z"/>
<path style="fill:#C66402;" d="M263.2,180L263.2,180c-3.2,4.8-8,23.2-2.4,26.4l125.6,56c4.8,3.2,12,0.8,14.4-4l0,0"/>
<path style="fill:#239B02;" d="M172.8,357.6c-11.2-27.2-11.2-63.2,2.4-79.2l0,0l0,0l0,0l0,0c20.8,2.4,45.6,28.8,56,56
	c11.2,27.2,4.8,46.4-8.8,62.4l0,0l0,0l0,0l0,0C201.6,395.2,183.2,384.8,172.8,357.6z"/>
<path style="fill:#34B515;" d="M222.4,396.8L222.4,396.8C222.4,397.6,222.4,397.6,222.4,396.8C222.4,397.6,222.4,397.6,222.4,396.8
	L222.4,396.8c-20.8-2.4-39.2-12-49.6-39.2c-11.2-27.2-11.2-63.2,2.4-79.2l0,0l0,0l0,0l0,0"/>
<path style="fill:#239B02;" d="M184.8,400.8c-16.8-7.2-32.8-22.4-33.6-35.2l0,0l0,0l0,0l0,0c10.4-8,32-7.2,48.8,0
	s22.4,18.4,23.2,31.2l0,0l0,0l0,0l0,0C212.8,404,200.8,408,184.8,400.8z"/>
<path style="fill:#34B515;" d="M223.2,396L223.2,396L223.2,396L223.2,396L223.2,396c-10.4,8-22.4,12-38.4,4.8
	c-16.8-7.2-32.8-22.4-33.6-35.2l0,0l0,0l0,0l0,0"/>
<path style="fill:#239B02;" d="M321.6,357.6c11.2-27.2,11.2-63.2-2.4-79.2l0,0l0,0l0,0l0,0c-20.8,2.4-45.6,28.8-56,56
	c-11.2,27.2-4.8,46.4,8.8,62.4l0,0l0,0l0,0l0,0C292.8,395.2,311.2,384.8,321.6,357.6z"/>
<path style="fill:#34B515;" d="M272,396.8L272,396.8C272,397.6,272,397.6,272,396.8C272,397.6,272,397.6,272,396.8L272,396.8
	c20.8-2.4,39.2-12,49.6-39.2c11.2-27.2,11.2-63.2-2.4-79.2l0,0l0,0l0,0l0,0"/>
<path style="fill:#239B02;" d="M309.6,400.8c16.8-7.2,32.8-22.4,33.6-35.2l0,0l0,0l0,0l0,0c-10.4-8-32-7.2-48.8,0
	S272,384,271.2,396.8l0,0l0,0l0,0l0,0C281.6,404,293.6,408,309.6,400.8z"/>
<path style="fill:#34B515;" d="M271.2,396L271.2,396L271.2,396L271.2,396L271.2,396c10.4,8,22.4,12,38.4,4.8
	c16.8-7.2,32.8-22.4,33.6-35.2l0,0l0,0l0,0l0,0"/>
<circle style="fill:#765B99;" cx="247.2" cy="172.8" r="21.6"/>
<path style="fill:#674887;" d="M262.4,158.4c8,8,8,21.6,0,30.4c-8,8-21.6,8-30.4,0"/>
<g>
</g>
<g>
</g>
<g>
</g>
<g>
</g>
<g>
</g>
<g>
</g>
<g>
</g>
<g>
</g>
<g>
</g>
<g>
</g>
<g>
</g>
<g>
</g>
<g>
</g>
<g>
</g>
<g>
</g>
</svg>
