<?xml version="1.0" encoding="iso-8859-1"?>
<!-- Generator: Adobe Illustrator 19.0.0, SVG Export Plug-In . SVG Version: 6.00 Build 0)  -->
<svg version="1.1" id="Capa_1" xmlns="http://www.w3.org/2000/svg" xmlns:xlink="http://www.w3.org/1999/xlink" x="0px" y="0px"
	 viewBox="0 0 59.955 59.955" style="enable-background:new 0 0 59.955 59.955;" xml:space="preserve">
<g>
	<path style="fill:#ABC5D3;" d="M13,16.41c-0.552,0-1,0.447-1,1c0,3.955-4.313,7.022-8.022,7.022H1c-0.552,0-1,0.447-1,1
		s0.448,1,1,1h2.978C8.708,26.433,14,22.574,14,17.41C14,16.857,13.552,16.41,13,16.41z"/>
	<path style="fill:#ABC5D3;" d="M4,20.41H1c-0.552,0-1,0.447-1,1s0.448,1,1,1h3c3.411,0,6.083-2.589,6.083-5.895v-1.083
		c0-2.565-1.84-4.71-4.279-4.989c-0.668-0.079-1.334-0.02-1.983,0.172c-2.65,0.779-4.173,3.57-3.394,6.222
		c0.156,0.53,0.712,0.838,1.242,0.677c0.53-0.155,0.833-0.711,0.677-1.241c-0.468-1.593,0.446-3.271,2.039-3.739
		c0.39-0.115,0.789-0.149,1.191-0.104c1.406,0.161,2.507,1.48,2.507,3.003v1.083C8.083,18.736,6.328,20.41,4,20.41z"/>
	<path style="fill:#ABC5D3;" d="M9,28.41H1c-0.552,0-1,0.447-1,1s0.448,1,1,1h8c0.552,0,1-0.447,1-1S9.552,28.41,9,28.41z"/>
	<path style="fill:#ABC5D3;" d="M3.978,32.41H1c-0.552,0-1,0.447-1,1s0.448,1,1,1h2.978c0.552,0,1-0.447,1-1S4.53,32.41,3.978,32.41
		z"/>
</g>
<line style="fill:none;stroke:#7F6E5D;stroke-width:2;stroke-linecap:round;stroke-miterlimit:10;" x1="22.968" y1="39.234" x2="13.068" y2="49.134"/>
<path style="fill:#CB8252;" d="M11.654,47.72l-4.243,4.243c-0.78,0.78-2.048,0.78-2.828,0c-0.538-0.538-0.705-1.309-0.5-1.992
	c0.199-0.662-0.042-1.379-0.531-1.868C2.45,47,0.58,47.532,0.191,49.041c-0.513,1.99,0.009,4.194,1.564,5.749
	c2.34,2.34,6.146,2.34,8.485,0l4.243-4.243L11.654,47.72z"/>
<line style="fill:none;stroke:#7F6E5D;stroke-width:2;stroke-linecap:round;stroke-miterlimit:10;" x1="14.483" y1="44.891" x2="15.897" y2="46.305"/>
<path style="fill:#556080;" d="M25.38,38.351c0,0,10.076,4.11,21.92-7.778c0,0-6.497-0.265-7.071-7.071L25.38,38.351z"/>
<path style="fill:#556080;" d="M22.242,35.832c0,0-11.478-16.492,1.104-30.627c0,0,0.194,7.375,7.763,7.763
	C31.11,12.968,20.787,27.778,22.242,35.832z"/>
<path style="fill:#8697CB;" d="M23.966,36.937c0,0-4.11-10.076,7.778-21.92c0,0,0.265,6.497,7.071,7.071L23.966,36.937z"/>
<path style="fill:#8697CB;" d="M28.68,40.856c0,0,14.231,9.664,27.106-1.797c0,0-6.718-0.177-7.071-7.071
	C48.715,31.987,36.016,42.181,28.68,40.856z"/>
<path style="fill:none;stroke:#546A79;stroke-width:2;stroke-linecap:round;stroke-miterlimit:10;" d="M49.422,29.866
	c-0.483,5.173,3.312,8.969,8.485,8.485"/>
<path style="fill:none;stroke:#546A79;stroke-width:2;stroke-linecap:round;stroke-miterlimit:10;" d="M40.937,21.381
	c-0.483,5.173,3.312,8.969,8.485,8.485"/>
<path style="fill:none;stroke:#546A79;stroke-width:2;stroke-linecap:round;stroke-miterlimit:10;" d="M32.451,12.895
	c-0.483,5.173,3.312,8.969,8.485,8.485"/>
<path style="fill:none;stroke:#546A79;stroke-width:2;stroke-linecap:round;stroke-miterlimit:10;" d="M23.966,4.41
	c-0.483,5.173,3.312,8.969,8.485,8.485"/>
<path style="fill:none;stroke:#546A79;stroke-width:2;stroke-linecap:round;stroke-miterlimit:10;" d="M57.907,38.351
	c-9.373,9.373-24.569,9.373-33.941,0s-9.373-24.569,0-33.941"/>
<path style="fill:none;stroke:#546A79;stroke-width:2;stroke-linecap:round;stroke-miterlimit:10;" d="M49.422,29.866
	c-9.38,9.38-21.082,12.859-26.163,7.778"/>
<path style="fill:none;stroke:#546A79;stroke-width:2;stroke-linecap:round;stroke-miterlimit:10;" d="M32.451,12.895
	c-9.38,9.38-12.859,21.082-7.778,26.163"/>
<line style="fill:none;stroke:#546A79;stroke-width:2;stroke-linecap:round;stroke-miterlimit:10;" x1="40.937" y1="21.381" x2="23.966" y2="38.351"/>
<line style="fill:none;stroke:#546A79;stroke-width:2;stroke-linecap:round;stroke-miterlimit:10;" x1="49.422" y1="29.866" x2="50.836" y2="28.452"/>
<line style="fill:none;stroke:#546A79;stroke-width:2;stroke-linecap:round;stroke-miterlimit:10;" x1="57.907" y1="38.351" x2="58.955" y2="37.303"/>
<line style="fill:none;stroke:#546A79;stroke-width:2;stroke-linecap:round;stroke-miterlimit:10;" x1="32.451" y1="12.895" x2="33.866" y2="11.481"/>
<line style="fill:none;stroke:#546A79;stroke-width:2;stroke-linecap:round;stroke-miterlimit:10;" x1="40.937" y1="21.381" x2="42.351" y2="19.966"/>
<g>
</g>
<g>
</g>
<g>
</g>
<g>
</g>
<g>
</g>
<g>
</g>
<g>
</g>
<g>
</g>
<g>
</g>
<g>
</g>
<g>
</g>
<g>
</g>
<g>
</g>
<g>
</g>
<g>
</g>
</svg>
