<?xml version="1.0" encoding="utf-8"?>
<!-- Generator: Adobe Illustrator 19.2.0, SVG Export Plug-In . SVG Version: 6.00 Build 0)  -->
<svg xmlns="http://www.w3.org/2000/svg" xmlns:xlink="http://www.w3.org/1999/xlink" version="1.1" id="strongwind" x="0px" y="0px" viewBox="0 0 220.0016 203.3099" enable-background="new 0 0 220.0016 203.3099" xml:space="preserve" width="512" height="512">
<g>
	<path fill="#D0E8FF" d="M28.5719,143.3099l6.9336,52h22.25l-5.6875-31.2852c-0.2148-1.168,0.1016-2.3672,0.8633-3.2773   c0.7578-0.9102,1.8828-1.4375,3.0703-1.4375h32c1.9336,0,3.5898,1.3828,3.9336,3.2852l5.9531,32.7148h25.543l-6.9336-52H28.5719z"/>
	<polygon fill="#5CB0FF" points="120.0016,135.3099 126.3141,135.3099 54.1344,89.181 12.9352,135.3099 24.0016,135.3099  "/>
	<polygon fill="#FFFFFF" points="84.6618,167.3099 60.7946,167.3099 65.8849,195.3099 89.757,195.3099  "/>
	<path fill="#1C71DA" d="M124.5702,143.3099h15.4314c1.7773,0,3.3398-1.1719,3.8398-2.8789   c0.4961-1.7031-0.1875-3.5352-1.6875-4.4922l-86.582-55.332c-1.6445-1.0508-3.8281-0.7617-5.1367,0.707l-49.418,55.332   c-1.0508,1.1758-1.3125,2.8594-0.668,4.2969c0.6445,1.4414,2.0742,2.3672,3.6523,2.3672h16.4983l6.9331,52H0.0016v8h32h30.5469h32   h33.4531h84.3516v-8h-80.8499L124.5702,143.3099z M54.1344,89.181l72.1797,46.1289h-6.3125h-96H12.9352L54.1344,89.181z    M60.7946,167.3099h23.8672l5.0952,28H65.8849L60.7946,167.3099z M97.8883,195.3099l-5.9531-32.7148   c-0.3438-1.9023-2-3.2852-3.9336-3.2852h-32c-1.1875,0-2.3125,0.5273-3.0703,1.4375c-0.7617,0.9102-1.0781,2.1094-0.8633,3.2773   l5.6875,31.2852h-22.25l-6.9336-52h87.9258l6.9336,52H97.8883z"/>
	<path fill="#1C71DA" d="M131.0719,107.4974c-0.3066-0.0752-0.5999-0.1875-0.9297-0.1875c-5.5898,0-10.1406-5.3828-10.1406-12   s4.5508-12,10.1406-12c2.2109,0,4-1.7891,4-4s-1.7891-4-4-4c-10.0039,0-18.1406,8.9727-18.1406,20s8.1367,20,18.1406,20   c0.3298,0,0.623-0.1123,0.9297-0.1875c0.3066,0.0752,0.5999,0.1875,0.9297,0.1875h84c2.2109,0,4-1.7891,4-4s-1.7891-4-4-4h-84   C131.6718,107.3099,131.3786,107.4222,131.0719,107.4974z"/>
	<path fill="#1C71DA" d="M216.0016,123.3099h-44c-2.2109,0-4,1.7891-4,4s1.7891,4,4,4h44c2.2109,0,4-1.7891,4-4   S218.2125,123.3099,216.0016,123.3099z"/>
	<path fill="#1C71DA" d="M148.0016,99.3099h44c2.2109,0,4-1.7891,4-4s-1.7891-4-4-4h-44c-2.2109,0-4,1.7891-4,4   S145.7907,99.3099,148.0016,99.3099z"/>
	<path fill="#1C71DA" d="M132.0016,59.3099c0-2.2109-1.7891-4-4-4h-52c-2.2109,0-4,1.7891-4,4s1.7891,4,4,4h52   C130.2125,63.3099,132.0016,61.5209,132.0016,59.3099z"/>
	<path fill="#1C71DA" d="M34.1422,79.3099c2.2109,0,4-1.7891,4-4s-1.7891-4-4-4c-5.5898,0-10.1406-5.3828-10.1406-12   s4.5508-12,10.1406-12c0.3298,0,0.623-0.1123,0.9297-0.1875c0.3066,0.0752,0.5999,0.1875,0.9297,0.1875h104c2.2109,0,4-1.7891,4-4   s-1.7891-4-4-4h-104c-0.3298,0-0.623,0.1123-0.9297,0.1875c-0.3066-0.0752-0.5999-0.1875-0.9297-0.1875   c-10.0039,0-18.1406,8.9727-18.1406,20S24.1383,79.3099,34.1422,79.3099z"/>
</g>
<path fill="#FF5D5D" d="M4.387,22.1416c-1.0234,0-2.0479-0.3906-2.8281-1.1719c-1.5625-1.5615-1.5625-4.0947,0-5.6562  L15.7015,1.1719c1.5625-1.5625,4.0957-1.5625,5.6562,0c1.5625,1.5615,1.5625,4.0947,0,5.6562L7.2151,20.9697  C6.4339,21.751,5.4104,22.1416,4.387,22.1416z"/>
<path fill="#FF5D5D" d="M18.5296,22.1426c-1.0234,0-2.0479-0.3906-2.8281-1.1719L1.5589,6.8281  c-1.5625-1.5615-1.5625-4.0947,0-5.6562c1.5605-1.5625,4.0957-1.5625,5.6562,0l14.1426,14.1426  c1.5625,1.5615,1.5625,4.0947,0,5.6562C20.5774,21.752,19.553,22.1426,18.5296,22.1426z"/>
<path fill="#00D40B" d="M174.387,162.1416c-7.7197,0-14-6.2803-14-14s6.2803-14,14-14s14,6.2803,14,14  S182.1067,162.1416,174.387,162.1416z M174.387,142.1416c-3.3086,0-6,2.6914-6,6s2.6914,6,6,6s6-2.6914,6-6  S177.6956,142.1416,174.387,142.1416z"/>
<path fill="#FFC504" d="M175.7005,72.7695c-1.0605,0-2.0781-0.4219-2.8281-1.1719l-11.3135-11.3145  c-1.5625-1.5615-1.5625-4.0947,0-5.6562l11.3135-11.3135c1.5605-1.5625,4.0957-1.5625,5.6562,0l11.3135,11.3135  c1.5625,1.5615,1.5625,4.0947,0,5.6562l-11.3135,11.3145C177.7786,72.3477,176.761,72.7695,175.7005,72.7695z M170.0432,57.4551  l5.6572,5.6572l5.6572-5.6572l-5.6572-5.6562L170.0432,57.4551z"/>
</svg>
